<svg version="1.2" xmlns="http://www.w3.org/2000/svg" viewBox="0 0 766 672" width="766" height="672"><style>.a{fill:none;stroke:#27debf;stroke-miterlimit:10;stroke-width:2}.b{fill:#37474f}.c{fill:#263238}.d{fill:#455a64}.e{fill:#27debf}.f{fill:#fafafa}.g{fill:#f5f5f5}.h{fill:#e0e0e0}.i{fill:#ebebeb}.j{fill:#fff}.k{fill:#ffa8a7}.l{fill:#f0f0f0}.m{opacity:.1}.n{fill:#f28f8f}.o{fill:#ff4989}.p{opacity:.4;fill:#fff}.q{opacity:.2}.r{fill:#e6e6e6}</style><filter id="f0"><feFlood flood-color="#ccfbfe" flood-opacity="1" /><feBlend mode="normal" in2="SourceGraphic"/><feComposite in2="SourceAlpha" operator="in" /></filter><g filter="url(#f0)"><path fill-rule="evenodd" class="a" d="m475.3 395.2l17.5-10.1c2.1-1.2 5.5-1.2 7.6 0l109.8 63.4"/><path fill-rule="evenodd" class="a" d="m468.2 391.1l24.6-14.2c2.1-1.2 5.5-1.2 7.6 0l116.9 67.5"/><path fill-rule="evenodd" class="a" d="m624.4 440.3l-124-71.6c-2.1-1.2-5.5-1.2-7.6 0l-31.7 18.3"/><path fill-rule="evenodd" class="a" d="m631.5 436.2l-131.1-75.7c-2.1-1.2-5.5-1.2-7.6 0l-38.8 22.4"/></g><path class="b" d="m364.9 24.3l-113.1 65.4c-2.1 1.2-3.8 4.1-3.8 6.5v311.1c0 2.4 1.7 5.3 3.8 6.5l113.2 65.4c2 1.2 5.4 1.2 7.5 0l113.2-65.4c2.1-1.2 3.8-4.1 3.8-6.5v-311.1c0-2.4-1.7-5.3-3.8-6.5l-113.2-65.4c-2.1-1.2-5.5-1.2-7.6 0z"/><path class="c" d="m489.5 96.2v311.1c0 2.4-1.7 5.3-3.8 6.5l-113.2 65.4c-1 0.6-2.4 0.9-3.8 0.9v-319.8c1.4 0 2.8-0.3 3.8-0.9l113.2-65.4 1-0.8 1.4-1.2c0.8 1.3 1.4 2.8 1.4 4.2z"/><path class="d" d="m266 126.8l84.7 49c2.1 1.2 3.8 4.1 3.8 6.5v32.3c0 2.4-1.7 3.4-3.8 2.2l-84.7-49c-2.1-1.2-3.8-4.1-3.8-6.5v-32.3c0-2.4 1.7-3.4 3.8-2.2z"/><path class="e" d="m269.3 141c0 2.3 1.7 5.1 3.8 6.3l70.5 40.8c2.1 1.2 3.8 0.3 3.8-1.9 0-2.3-1.7-5.1-3.8-6.3l-70.5-40.8c-2.1-1.2-3.8-0.3-3.8 1.9z"/><path class="c" d="m269.3 157.4c0 2.3 1.7 5.1 3.8 6.3l70.5 40.8c2.1 1.2 3.8 0.3 3.8-1.9 0-2.3-1.7-5.1-3.8-6.3l-70.5-40.8c-2.1-1.2-3.8-0.3-3.8 1.9z"/><path class="e" d="m273.1 155.5l38.8 22.5v8.2l-38.8-22.5c-2.1-1.2-3.8-4-3.8-6.3 0-2.2 1.7-3.1 3.8-1.9z"/><path class="d" d="m266 184.2l84.7 49c2.1 1.2 3.8 4.1 3.8 6.5v32.3c0 2.4-1.7 3.4-3.8 2.2l-84.7-49c-2.1-1.2-3.8-4.1-3.8-6.5v-32.3c0-2.4 1.7-3.4 3.8-2.2z"/><path class="e" d="m269.3 198.5c0 2.2 1.7 5 3.8 6.2l70.5 40.8c2.1 1.2 3.8 0.3 3.8-1.9 0-2.3-1.7-5.1-3.8-6.3l-70.5-40.8c-2.1-1.2-3.8-0.3-3.8 2z"/><path class="c" d="m269.3 214.9c0 2.2 1.7 5 3.8 6.2l70.5 40.8c2.1 1.2 3.8 0.3 3.8-1.9 0-2.3-1.7-5.1-3.8-6.3l-70.5-40.8c-2.1-1.2-3.8-0.3-3.8 2z"/><path class="e" d="m273.1 212.9l60.1 34.8v8.2l-60.1-34.8c-2.1-1.2-3.8-4-3.8-6.2 0-2.3 1.7-3.2 3.8-2z"/><path class="d" d="m266 241.6l84.7 49c2.1 1.2 3.8 4.1 3.8 6.5v32.3c0 2.4-1.7 3.4-3.8 2.2l-84.7-49c-2.1-1.2-3.8-4.1-3.8-6.5v-32.3c0-2.4 1.7-3.4 3.8-2.2z"/><path class="e" d="m269.3 255.9c0 2.2 1.7 5 3.8 6.2l70.5 40.8c2.1 1.2 3.8 0.3 3.8-1.9 0-2.3-1.7-5.1-3.8-6.3l-70.5-40.8c-2.1-1.2-3.8-0.3-3.8 2z"/><path class="c" d="m269.3 272.3c0 2.2 1.7 5 3.8 6.2l70.5 40.8c2.1 1.2 3.8 0.3 3.8-1.9 0-2.3-1.7-5.1-3.8-6.3l-70.5-40.8c-2.1-1.2-3.8-0.3-3.8 2z"/><path class="e" d="m273.1 270.3l24.6 14.3v8.2l-24.6-14.3c-2.1-1.2-3.8-4-3.8-6.2 0-2.3 1.7-3.2 3.8-2z"/><path class="d" d="m266 299l84.7 49c2.1 1.2 3.8 4.1 3.8 6.5v32.3c0 2.4-1.7 3.4-3.8 2.2l-84.7-49c-2.1-1.2-3.8-4.1-3.8-6.5v-32.3c0-2.4 1.7-3.4 3.8-2.2z"/><path class="e" d="m269.3 313.3c0 2.2 1.7 5 3.8 6.2l70.5 40.8c2.1 1.2 3.8 0.3 3.8-1.9 0-2.3-1.7-5.1-3.8-6.3l-70.5-40.8c-2.1-1.2-3.8-0.3-3.8 2z"/><path class="c" d="m269.3 329.7c0 2.2 1.7 5 3.8 6.2l70.5 40.8c2.1 1.2 3.8 0.3 3.8-1.9 0-2.3-1.7-5.1-3.8-6.3l-70.5-40.8c-2.1-1.2-3.8-0.3-3.8 2z"/><path class="e" d="m273.1 327.7l38.8 22.5v8.2l-38.8-22.5c-2.1-1.2-3.8-4-3.8-6.2 0-2.3 1.7-3.2 3.8-2z"/><path class="d" d="m266 356.4l84.7 49c2.1 1.2 3.8 4.1 3.8 6.5v32.3c0 2.4-1.7 3.4-3.8 2.2l-84.7-49c-2.1-1.2-3.8-4.1-3.8-6.5v-32.3c0-2.4 1.7-3.4 3.8-2.2z"/><path class="e" d="m269.3 370.7c0 2.2 1.7 5 3.8 6.2l70.5 40.8c2.1 1.2 3.8 0.3 3.8-1.9 0-2.3-1.7-5.1-3.8-6.3l-70.5-40.8c-2.1-1.2-3.8-0.3-3.8 2z"/><path class="c" d="m269.3 387.1c0 2.2 1.7 5 3.8 6.2l70.5 40.8c2.1 1.2 3.8 0.3 3.8-1.9 0-2.3-1.7-5.1-3.8-6.3l-70.5-40.8c-2.1-1.2-3.8-0.3-3.8 2z"/><path class="e" d="m273.1 385.1l53 30.7v8.2l-53-30.7c-2.1-1.2-3.8-4-3.8-6.2 0-2.3 1.7-3.2 3.8-2z"/><path class="b" d="m386.5 180c3.9-2.3 7.1-0.2 7.1 4.6v187.6c0 4.8-3.2 10.6-7.1 12.8-3.9 2.3-7.1 0.2-7.1-4.6v-187.5c0-4.9 3.2-10.6 7.1-12.9z"/><path class="c" d="m386.5 380.9c2-1.1 3.5-4 3.5-6.4v-188.1c0-2.4-1.6-3.4-3.5-2.3-2 1.1-3.6 4-3.6 6.4v188.1c0 2.4 1.6 3.4 3.6 2.3z"/><path class="e" d="m386.5 380.9c2-1.1 3.5-4 3.5-6.4v-89.9l-7.1 4.1v89.9c0 2.4 1.6 3.4 3.6 2.3z"/><path class="b" d="m407.8 167.7c3.9-2.3 7.1-0.2 7.1 4.6v187.6c0 4.8-3.2 10.6-7.1 12.8-3.9 2.3-7.1 0.2-7.1-4.6v-187.5c0-4.9 3.2-10.6 7.1-12.9z"/><path class="e" d="m407.8 368.6c2-1.1 3.5-4 3.5-6.4v-188.1c0-2.4-1.5-3.4-3.5-2.3-2 1.1-3.6 4-3.6 6.4v188.1c0 2.4 1.6 3.4 3.6 2.3z"/><path class="b" d="m429.1 155.4c3.9-2.3 7.1-0.2 7.1 4.6v187.6c0 4.8-3.2 10.6-7.1 12.8-3.9 2.3-7.1 0.2-7.1-4.6v-187.5c0-4.9 3.2-10.6 7.1-12.9z"/><path class="c" d="m429.1 356.3c2-1.1 3.6-4 3.6-6.4v-188.1c0-2.4-1.6-3.4-3.6-2.3-2 1.1-3.6 4-3.6 6.4v188.1c0 2.4 1.6 3.4 3.6 2.3z"/><path class="e" d="m429.1 356.3c2-1.1 3.6-4 3.6-6.4v-145.3l-7.2 4.1v145.3c0 2.4 1.6 3.4 3.6 2.3z"/><path class="b" d="m450.4 143.1c3.9-2.3 7.1-0.2 7.1 4.6v187.6c0 4.8-3.2 10.6-7.1 12.8-3.9 2.3-7.1 0.2-7.1-4.6v-187.5c0-4.9 3.2-10.6 7.1-12.9z"/><path class="c" d="m450.4 344c2-1.1 3.6-4 3.6-6.4v-188.1c0-2.4-1.6-3.4-3.6-2.3-2 1.1-3.5 4-3.5 6.4v188.1c0 2.4 1.5 3.4 3.5 2.3z"/><path class="e" d="m450.4 344c2-1.1 3.6-4 3.6-6.4v-31.8l-7.1 4.1v31.8c0 2.4 1.5 3.4 3.5 2.3z"/><path class="b" d="m471.7 130.8c3.9-2.3 7.1-0.2 7.1 4.6v187.6c0 4.8-3.2 10.6-7.1 12.8-3.9 2.3-7.1 0.2-7.1-4.6v-187.5c0-4.9 3.2-10.6 7.1-12.9z"/><path class="c" d="m471.7 331.7c2-1.1 3.6-4 3.6-6.4v-188.1c0-2.4-1.6-3.4-3.6-2.3-2 1.1-3.5 4-3.5 6.4v188.1c0 2.4 1.6 3.4 3.5 2.3z"/><path class="e" d="m471.7 331.7c2-1.1 3.6-4 3.6-6.4v-98.1l-7.1 4.1v98.1c0 2.4 1.6 3.4 3.5 2.3z"/><path class="b" d="m382.4 407.9l93.4-53.9c1.7-1 3-0.2 3 1.7v34c0 1.9-1.3 4.3-3 5.3l-93.4 53.9c-1.7 0.9-3 0.1-3-1.8v-34c0-1.9 1.3-4.3 3-5.2z"/><path class="c" d="m386.3 417.9c0 2.3 1.6 3.2 3.7 2l78.2-45.2c2.1-1.2 3.7-4 3.7-6.2 0-2.3-1.6-3.2-3.7-2l-78.2 45.2c-2.1 1.2-3.7 4-3.7 6.2z"/><path class="e" d="m386.3 417.9c0 2.3 1.6 3.2 3.7 2l56.9-32.9v-8.2l-56.9 32.9c-2.1 1.2-3.7 4-3.7 6.2z"/><path class="c" d="m386.3 434.3c0 2.3 1.6 3.2 3.7 2l78.2-45.2c2.1-1.2 3.7-4 3.7-6.2 0-2.3-1.6-3.2-3.7-2l-78.2 45.2c-2.1 1.2-3.7 4-3.7 6.2z"/><path class="e" d="m386.3 434.3c0 2.3 1.6 3.2 3.7 2l21.3-12.3v-8.2l-21.3 12.3c-2.1 1.2-3.7 4-3.7 6.2z"/><path class="d" d="m485.7 89.7l-113.2-65.4c-2.1-1.2-5.5-1.2-7.6 0l-113.1 65.4c-2.1 1.2-2.1 3.1 0 4.3l113.2 65.4c2 1.2 5.4 1.2 7.5 0l113.2-65.4c2.1-1.2 2.1-3.1 0-4.3z"/><path class="c" d="m366.5 143.8l-87.8-50.6c-1.3-0.8-2.3-2.5-2.3-4v-2.9c0-1.5 1-3.2 2.3-4l87.8-50.6c1.2-0.8 3.3-0.8 4.5 0l87.8 50.6c1.2 0.8 2.3 2.5 2.3 4v2.9c0 1.5-1.1 3.2-2.3 4l-87.8 50.6c-1.2 0.8-3.3 0.8-4.5 0z"/><path class="d" d="m278.7 85l87.8 50.6c1.2 0.8 3.3 0.8 4.5 0l87.8-50.6c1.2-0.8 1.2-1.9 0-2.7l-87.8-48.9c-1.2-0.7-3.3-0.7-4.5 0l-87.8 48.9c-1.3 0.8-1.3 1.9 0 2.7z"/><path class="b" d="m368.7 136.2v8.2c-0.8 0-1.6-0.2-2.2-0.6l-87.8-50.6c-1.3-0.8-2.3-2.5-2.3-4v-2.9c0-1.3 0.8-2.8 1.9-3.7-0.9 0.7-0.7 1.7 0.4 2.4l87.8 50.6c0.6 0.4 1.4 0.6 2.2 0.6z"/><path class="c" d="m366.5 119.2l-59.4-34.2c-1.3-0.8-2.3-2.5-2.3-4v-2.9c0-1.5 1-3.2 2.3-4l38.1-21.9c1.2-0.8 2.9-2.3 3.8-3.5l18.2-24.5c0.8-1.1 2.6-1.5 3.8-0.7l59.4 34.2c1.2 0.8 2.3 2.5 2.3 4l-0.1 19.3c0 1.5-1 3.2-2.2 4l-59.4 34.2c-1.2 0.8-3.3 0.8-4.5 0z"/><path class="d" d="m371 111l38.1-21.9c0.6-0.4 1.3-0.9 2-1.5 0.7-0.7 1.4-1.4 1.8-2l18.2-24.5c0.9-1.1 0.5-2.6-0.7-3.4l-59.4-34.2c-1.2-0.8-3-0.4-3.8 0.7l-18.2 24.5c-0.9 1.2-2.3 2.9-3.5 3.6l-38.4 21.8c-1.3 0.8-1.3 1.9 0 2.7l59.4 34.2c1.2 0.8 3.3 0.8 4.5 0z"/><path class="b" d="m430.4 57.7l-59.4-34.2c-1.2-0.8-3-0.4-3.8 0.7l-18.2 24.5c-0.5 0.6-1.1 1.3-1.9 2 0 0 63.9 36.9 64 36.9 0.7-0.7 1.4-1.4 1.8-2l18.2-24.5c0.9-1.1 0.5-2.6-0.7-3.4z"/><path class="e" d="m321.5 74.7c1.5-0.8 3.9-0.8 5.3 0 1.5 0.9 1.5 2.3 0 3.1-1.4 0.9-3.8 0.9-5.3 0-1.5-0.8-1.5-2.2 0-3.1z"/><path class="e" d="m332.1 80.9c1.5-0.9 3.9-0.9 5.4 0 1.4 0.8 1.4 2.2 0 3.1-1.5 0.8-3.9 0.8-5.4 0-1.4-0.9-1.4-2.3 0-3.1z"/><path class="c" d="m342.8 87c1.5-0.8 3.9-0.8 5.3 0 1.5 0.9 1.5 2.3 0 3.1-1.4 0.9-3.8 0.9-5.3 0-1.5-0.8-1.5-2.2 0-3.1z"/><path class="c" d="m353.5 93.2c1.4-0.9 3.8-0.9 5.3 0 1.4 0.8 1.4 2.2 0 3.1-1.5 0.8-3.9 0.8-5.3 0-1.5-0.9-1.5-2.3 0-3.1z"/><path class="e" d="m329.5 70.1c1.5-0.8 3.8-0.8 5.3 0 1.5 0.9 1.5 2.2 0 3.1-1.5 0.8-3.8 0.8-5.3 0-1.5-0.9-1.5-2.2 0-3.1z"/><path class="c" d="m340.1 76.3c1.5-0.9 3.9-0.9 5.4 0 1.4 0.8 1.4 2.2 0 3-1.5 0.9-3.9 0.9-5.4 0-1.4-0.8-1.4-2.2 0-3z"/><path class="e" d="m350.8 82.4c1.5-0.8 3.8-0.8 5.3 0 1.5 0.9 1.5 2.2 0 3.1-1.5 0.8-3.8 0.8-5.3 0-1.5-0.9-1.5-2.2 0-3.1z"/><path class="c" d="m361.4 88.6c1.5-0.9 3.9-0.9 5.4 0 1.4 0.8 1.4 2.2 0 3-1.5 0.9-3.9 0.9-5.4 0-1.4-0.8-1.4-2.2 0-3z"/><path class="c" d="m337.5 65.5c1.4-0.8 3.8-0.8 5.3 0 1.5 0.9 1.5 2.2 0 3.1-1.5 0.8-3.9 0.8-5.3 0-1.5-0.9-1.5-2.2 0-3.1z"/><path class="e" d="m348.1 71.7c1.5-0.9 3.9-0.9 5.4 0 1.4 0.8 1.4 2.2 0 3-1.5 0.9-3.9 0.9-5.4 0-1.4-0.8-1.4-2.2 0-3z"/><path class="c" d="m358.8 77.8c1.4-0.8 3.8-0.8 5.3 0 1.5 0.9 1.5 2.2 0 3.1-1.5 0.8-3.9 0.8-5.3 0-1.5-0.9-1.5-2.2 0-3.1z"/><path class="e" d="m364.2 99.2c1.4-0.8 3.8-0.8 5.3 0 1.5 0.9 1.5 2.2 0 3.1-1.5 0.8-3.9 0.8-5.3 0-1.5-0.9-1.5-2.2 0-3.1z"/><path class="c" d="m372.2 94.6c1.4-0.8 3.8-0.8 5.3 0 1.5 0.8 1.5 2.2 0 3.1-1.5 0.8-3.9 0.8-5.3 0-1.5-0.9-1.5-2.3 0-3.1z"/><path class="c" d="m369.4 84c1.5-0.9 3.9-0.9 5.4 0 1.4 0.8 1.4 2.2 0 3-1.5 0.9-3.9 0.9-5.4 0-1.4-0.8-1.4-2.2 0-3z"/><path class="e" d="m345.5 60.9c1.4-0.8 3.8-0.8 5.3 0 1.5 0.9 1.5 2.2 0 3.1-1.5 0.8-3.9 0.8-5.3 0-1.5-0.9-1.5-2.2 0-3.1z"/><path class="c" d="m356.1 67.1c1.5-0.9 3.9-0.9 5.3 0 1.5 0.8 1.5 2.2 0 3-1.4 0.9-3.8 0.9-5.3 0-1.5-0.8-1.5-2.2 0-3z"/><path class="e" d="m366.8 73.2c1.4-0.8 3.8-0.8 5.3 0 1.5 0.9 1.5 2.2 0 3.1-1.5 0.8-3.9 0.8-5.3 0-1.5-0.9-1.5-2.2 0-3.1z"/><path class="c" d="m377.4 79.4c1.5-0.9 3.9-0.9 5.3 0 1.5 0.8 1.5 2.2 0 3-1.4 0.9-3.8 0.9-5.3 0-1.5-0.8-1.5-2.2 0-3z"/><path class="e" d="m380.1 90c1.5-0.9 3.9-0.9 5.4 0 1.4 0.8 1.4 2.2 0 3.1-1.5 0.8-3.9 0.8-5.4 0-1.4-0.9-1.4-2.3 0-3.1z"/><path class="c" d="m388.1 85.4c1.5-0.9 3.9-0.9 5.4 0 1.4 0.8 1.4 2.2 0 3.1-1.5 0.8-3.9 0.8-5.4 0-1.4-0.9-1.4-2.3 0-3.1z"/><path class="b" d="m368.9 111.6v8.2c-0.9 0-1.8-0.2-2.4-0.6l-59.4-34.2c-1.3-0.8-2.3-2.5-2.3-4v-2.9c0-1.3 0.8-2.8 1.9-3.7-0.8 0.7-0.7 1.7 0.4 2.4l59.4 34.2c0.6 0.4 1.5 0.6 2.4 0.6z"/><path class="c" d="m356.8 47.7l0.1-0.1c0.6-0.7 1.7-1 2.5-0.5l51.7 29.8c0.9 0.5 1.1 1.5 0.5 2.3l-0.1 0.1c-0.5 0.8-1.7 1-2.5 0.5l-51.7-29.8c-0.8-0.5-1-1.5-0.5-2.3z"/><path class="e" d="m356.8 47.7l0.1-0.1c0.6-0.7 1.7-1 2.5-0.5l38.5 22.2-2.2 2.9-38.4-22.2c-0.8-0.5-1-1.5-0.5-2.3z"/><path class="c" d="m361.1 42l0.1-0.1c0.5-0.8 1.7-1 2.5-0.5l51.7 29.8c0.8 0.5 1 1.5 0.5 2.3l-0.1 0.1c-0.6 0.7-1.7 1-2.6 0.5l-51.6-29.8c-0.8-0.5-1.1-1.5-0.5-2.3z"/><path class="e" d="m361.1 42l0.1-0.1c0.5-0.8 1.7-1 2.5-0.5l12.9 7.4-2.2 2.9-12.8-7.4c-0.8-0.5-1.1-1.5-0.5-2.3z"/><path class="c" d="m365.4 36.2c0.6-0.8 1.8-1 2.6-0.6l51.7 29.9c0.8 0.5 1 1.5 0.4 2.3-0.6 0.8-1.7 1-2.6 0.6l-51.6-29.9c-0.9-0.5-1.1-1.5-0.5-2.3z"/><path class="e" d="m365.4 36.2c0.6-0.8 1.8-1 2.6-0.6l26.9 15.5-2.1 2.9-26.9-15.5c-0.9-0.5-1.1-1.5-0.5-2.3z"/><path class="c" d="m369.7 30.5v-0.1c0.6-0.7 1.7-1 2.6-0.5l51.6 29.8c0.9 0.5 1.1 1.5 0.5 2.3l-0.1 0.1c-0.5 0.8-1.7 1-2.5 0.5l-51.7-29.8c-0.8-0.5-1-1.5-0.4-2.3z"/><path class="e" d="m369.7 30.5v-0.1c0.6-0.7 1.7-1 2.6-0.5l46.9 27.1-2.2 2.9-46.9-27.1c-0.8-0.5-1-1.5-0.4-2.3z"/><filter id="f1"><feFlood flood-color="#ccfbfe" flood-opacity="1" /><feBlend mode="normal" in2="SourceGraphic"/><feComposite in2="SourceAlpha" operator="in" /></filter><g filter="url(#f1)"><path fill-rule="evenodd" class="a" d="m276.4 510l17.5-10.1c2.1-1.2 5.5-1.2 7.6 0l104.1 60.1c2.5 1.5 5.7-0.4 5.7-3.3v-86.1"/><path fill-rule="evenodd" class="a" d="m269.3 505.9l24.6-14.2c2.1-1.2 5.5-1.2 7.6 0l111.2 64.2c2.5 1.5 5.7-0.4 5.7-3.3v-82"/><path fill-rule="evenodd" class="a" d="m262.2 501.8l31.7-18.3c2.1-1.2 5.5-1.2 7.6 0l118.3 68.3c2.5 1.5 5.7-0.4 5.7-3.3v-77.4"/><path fill-rule="evenodd" class="a" d="m255.1 497.7l38.8-22.4c2.1-1.2 5.5-1.2 7.6 0l125.4 72.4c2.5 1.5 5.8-0.4 5.8-3.3v-73.3"/></g><path class="b" d="m159 143.2l-113.2 65.3c-2.1 1.3-3.7 4.2-3.7 6.6v311.1c0 2.4 1.6 5.3 3.7 6.5l113.2 65.4c2.1 1.2 5.5 1.2 7.6 0l113.1-65.4c2.1-1.2 3.8-4.1 3.8-6.5v-311.1c0-2.4-1.7-5.3-3.8-6.6l-113.1-65.3c-2.1-1.2-5.5-1.2-7.6 0z"/><path class="c" d="m283.5 215.1v311.1c0 2.4-1.7 5.3-3.8 6.5l-113.1 65.4c-1.1 0.6-2.5 0.9-3.8 0.9v-319.8c1.3 0 2.7-0.4 3.8-1l113.1-65.3 1.1-0.8 1.3-1.2c0.9 1.3 1.4 2.8 1.4 4.2z"/><path class="d" d="m60 245.7l84.8 49c2.1 1.2 3.8 4.1 3.8 6.5v32.3c0 2.4-1.7 3.4-3.8 2.2l-84.8-49c-2-1.2-3.7-4.1-3.7-6.5v-32.3c0-2.4 1.6-3.4 3.7-2.2z"/><path class="e" d="m63.4 259.9c0 2.3 1.7 5.1 3.7 6.3l70.6 40.8c2.1 1.2 3.8 0.3 3.8-2 0-2.2-1.7-5-3.8-6.2l-70.6-40.8c-2-1.2-3.7-0.3-3.7 1.9z"/><path class="c" d="m63.4 276.3c0 2.3 1.7 5.1 3.7 6.3l70.6 40.8c2.1 1.2 3.8 0.3 3.8-2 0-2.2-1.7-5-3.8-6.2l-70.6-40.8c-2-1.2-3.7-0.3-3.7 1.9z"/><path class="e" d="m67.1 274.4l38.9 22.4v8.2l-38.9-22.4c-2-1.2-3.7-4-3.7-6.3 0-2.2 1.7-3.1 3.7-1.9z"/><path class="d" d="m60 303.1l84.8 49c2.1 1.2 3.8 4.1 3.8 6.5v32.3c0 2.4-1.7 3.4-3.8 2.2l-84.8-49c-2-1.2-3.7-4.1-3.7-6.5v-32.3c0-2.4 1.6-3.4 3.7-2.2z"/><path class="e" d="m63.4 317.3c0 2.3 1.7 5.1 3.7 6.3l70.6 40.8c2.1 1.2 3.8 0.3 3.8-2 0-2.2-1.7-5-3.8-6.2l-70.6-40.8c-2-1.2-3.7-0.3-3.7 1.9z"/><path class="c" d="m63.4 333.7c0 2.3 1.7 5.1 3.7 6.3l70.6 40.8c2.1 1.2 3.8 0.3 3.8-2 0-2.2-1.7-5-3.8-6.2l-70.6-40.8c-2-1.2-3.7-0.3-3.7 1.9z"/><path class="e" d="m67.1 331.8l60.2 34.7v8.2l-60.2-34.7c-2-1.2-3.7-4-3.7-6.3 0-2.2 1.7-3.1 3.7-1.9z"/><path class="d" d="m60 360.5l84.8 49c2.1 1.2 3.8 4.1 3.8 6.5v32.3c0 2.4-1.7 3.4-3.8 2.2l-84.8-49c-2-1.2-3.7-4.1-3.7-6.5v-32.3c0-2.4 1.6-3.4 3.7-2.2z"/><path class="e" d="m63.4 374.7c0 2.3 1.7 5.1 3.7 6.3l70.6 40.8c2.1 1.2 3.8 0.3 3.8-2 0-2.2-1.7-5-3.8-6.2l-70.6-40.8c-2-1.2-3.7-0.3-3.7 1.9z"/><path class="c" d="m63.4 391.1c0 2.3 1.7 5.1 3.7 6.3l70.6 40.8c2.1 1.2 3.8 0.3 3.8-2 0-2.2-1.7-5-3.8-6.2l-70.6-40.8c-2-1.2-3.7-0.3-3.7 1.9z"/><path class="e" d="m67.1 389.2l24.7 14.2v8.2l-24.7-14.2c-2-1.2-3.7-4-3.7-6.3 0-2.2 1.7-3.1 3.7-1.9z"/><path class="d" d="m60 417.9l84.8 49c2.1 1.2 3.8 4.1 3.8 6.5v32.3c0 2.4-1.7 3.4-3.8 2.2l-84.8-49c-2-1.2-3.7-4.1-3.7-6.5v-32.3c0-2.4 1.6-3.4 3.7-2.2z"/><path class="e" d="m63.4 432.1c0 2.3 1.7 5.1 3.7 6.3l70.6 40.8c2.1 1.2 3.8 0.3 3.8-2 0-2.2-1.7-5-3.8-6.2l-70.6-40.8c-2-1.2-3.7-0.3-3.7 1.9z"/><path class="c" d="m63.4 448.5c0 2.3 1.7 5.1 3.7 6.3l70.6 40.8c2.1 1.2 3.8 0.3 3.8-2 0-2.2-1.7-5-3.8-6.2l-70.6-40.8c-2-1.2-3.7-0.3-3.7 1.9z"/><path class="e" d="m67.1 446.6l38.9 22.4v8.2l-38.9-22.4c-2-1.2-3.7-4-3.7-6.3 0-2.2 1.7-3.1 3.7-1.9z"/><path class="d" d="m60 475.3l84.8 49c2.1 1.2 3.8 4.1 3.8 6.5v32.3c0 2.4-1.7 3.4-3.8 2.2l-84.8-49c-2-1.2-3.7-4.1-3.7-6.5v-32.3c0-2.4 1.6-3.4 3.7-2.2z"/><path class="e" d="m63.4 489.5c0 2.3 1.7 5.1 3.7 6.3l70.6 40.8c2.1 1.2 3.8 0.3 3.8-2 0-2.2-1.7-5-3.8-6.2l-70.6-40.8c-2-1.2-3.7-0.3-3.7 1.9z"/><path class="c" d="m63.4 505.9c0 2.3 1.7 5.1 3.7 6.3l70.6 40.8c2.1 1.2 3.8 0.3 3.8-2 0-2.2-1.7-5-3.8-6.2l-70.6-40.8c-2-1.2-3.7-0.3-3.7 1.9z"/><path class="e" d="m67.1 504l53.1 30.6v8.2l-53.1-30.6c-2-1.2-3.7-4-3.7-6.3 0-2.2 1.7-3.1 3.7-1.9z"/><path class="b" d="m180.5 298.9c4-2.3 7.1-0.2 7.1 4.6v187.6c0 4.8-3.1 10.6-7.1 12.8-3.9 2.3-7.1 0.2-7.1-4.6v-187.5c0-4.9 3.2-10.6 7.1-12.9z"/><path class="c" d="m180.5 499.8c2-1.2 3.6-4 3.6-6.4v-188.1c0-2.4-1.6-3.5-3.6-2.3-1.9 1.1-3.5 4-3.5 6.4v188.1c0 2.4 1.6 3.4 3.5 2.3z"/><path class="e" d="m180.5 499.8c2-1.2 3.6-4 3.6-6.4v-90l-7.1 4.1v90c0 2.4 1.6 3.4 3.5 2.3z"/><path class="b" d="m201.8 286.6c4-2.3 7.1-0.2 7.1 4.6v187.6c0 4.8-3.1 10.6-7.1 12.8-3.9 2.3-7.1 0.2-7.1-4.6v-187.5c0-4.9 3.2-10.6 7.1-12.9z"/><path class="e" d="m201.8 487.5c2-1.2 3.6-4 3.6-6.4v-188.1c0-2.4-1.6-3.5-3.6-2.3-1.9 1.1-3.5 4-3.5 6.4v188.1c0 2.4 1.6 3.4 3.5 2.3z"/><path class="b" d="m223.1 274.3c4-2.3 7.1-0.2 7.1 4.6l0.1 187.6c0 4.8-3.2 10.6-7.2 12.8-3.9 2.3-7.1 0.2-7.1-4.6v-187.5c0-4.9 3.2-10.6 7.1-12.9z"/><path class="c" d="m223.1 475.2c2-1.2 3.6-4 3.6-6.4v-188.1c0-2.4-1.6-3.5-3.6-2.3-1.9 1.1-3.5 4-3.5 6.4v188.1c0 2.4 1.6 3.4 3.5 2.3z"/><path class="e" d="m223.1 475.2c2-1.2 3.6-4 3.6-6.4v-145.3l-7.1 4.1v145.3c0 2.4 1.6 3.4 3.5 2.3z"/><path class="b" d="m244.5 262c3.9-2.3 7.1-0.2 7.1 4.6v187.6c0 4.8-3.2 10.6-7.1 12.8-4 2.3-7.1 0.2-7.1-4.6v-187.5c0-4.9 3.1-10.6 7.1-12.9z"/><path class="c" d="m244.5 462.9c1.9-1.2 3.5-4 3.5-6.4v-188.1c0-2.4-1.6-3.5-3.5-2.3-2 1.1-3.6 4-3.6 6.4v188.1c0 2.4 1.6 3.4 3.6 2.3z"/><path class="e" d="m244.5 462.9c1.9-1.2 3.5-4 3.5-6.4v-31.8l-7.1 4.1v31.8c0 2.4 1.6 3.4 3.6 2.3z"/><path class="b" d="m265.8 249.7c3.9-2.3 7.1-0.2 7.1 4.6v187.6c0 4.8-3.2 10.6-7.1 12.8-4 2.3-7.1 0.2-7.1-4.6v-187.5c0-4.9 3.1-10.6 7.1-12.9z"/><path class="c" d="m265.8 450.6c1.9-1.2 3.5-4 3.5-6.4v-188.1c0-2.4-1.6-3.5-3.5-2.3-2 1.1-3.6 4-3.6 6.4v188.1c0 2.4 1.6 3.4 3.6 2.3z"/><path class="e" d="m265.8 450.6c1.9-1.2 3.5-4 3.5-6.4v-98.2l-7.1 4.1v98.2c0 2.4 1.6 3.4 3.6 2.3z"/><path class="b" d="m176.5 526.7l93.3-53.9c1.7-0.9 3.1-0.1 3.1 1.8v34c0 1.9-1.4 4.3-3.1 5.2l-93.3 54c-1.7 0.9-3.1 0.1-3.1-1.8v-34c0-1.9 1.4-4.3 3.1-5.3z"/><path class="c" d="m180.3 536.8c0 2.3 1.7 3.2 3.8 1.9l78.1-45.1c2.1-1.2 3.8-4 3.8-6.3 0-2.2-1.7-3.1-3.8-1.9l-78.1 45.1c-2.1 1.3-3.8 4.1-3.8 6.3z"/><path class="e" d="m180.3 536.8c0 2.3 1.7 3.2 3.8 1.9l56.8-32.8v-8.2l-56.8 32.8c-2.1 1.3-3.8 4.1-3.8 6.3z"/><path class="c" d="m180.3 553.2c0 2.3 1.7 3.2 3.8 1.9l78.1-45.1c2.1-1.2 3.8-4 3.8-6.3 0-2.2-1.7-3.1-3.8-1.9l-78.1 45.1c-2.1 1.3-3.8 4.1-3.8 6.3z"/><path class="e" d="m180.3 553.2c0 2.3 1.7 3.2 3.8 1.9l21.3-12.3v-8.2l-21.3 12.3c-2.1 1.3-3.8 4.1-3.8 6.3z"/><path class="d" d="m279.7 208.5l-113.1-65.3c-2.1-1.2-5.5-1.2-7.6 0l-113.2 65.3c-2.1 1.3-2.1 3.2 0 4.4l113.2 65.4c2.1 1.2 5.5 1.2 7.6 0l113.1-65.4c2.1-1.2 2.1-3.1 0-4.4z"/><path class="c" d="m160.5 262.7l-87.8-50.7c-1.2-0.7-2.2-2.4-2.2-3.9v-2.9c0-1.5 1-3.3 2.2-4l87.8-50.7c1.3-0.7 3.3-0.7 4.6 0l87.7 50.7c1.3 0.7 2.3 2.5 2.3 4v2.9c0 1.5-1 3.2-2.3 3.9l-87.7 50.7c-1.3 0.7-3.3 0.7-4.6 0z"/><path class="d" d="m72.7 203.8l87.8 50.7c1.3 0.7 3.3 0.7 4.6 0l87.7-50.7c1.3-0.7 1.3-1.9 0-2.6l-87.7-48.9c-1.3-0.7-3.3-0.7-4.6 0l-87.8 48.9c-1.2 0.7-1.2 1.9 0 2.6z"/><path class="b" d="m162.8 255.1v8.2c-0.8 0-1.7-0.2-2.3-0.6l-87.8-50.7c-1.2-0.7-2.2-2.4-2.2-3.9v-3c0-1.2 0.7-2.7 1.8-3.6-0.8 0.7-0.7 1.7 0.4 2.3l87.8 50.7c0.6 0.4 1.5 0.6 2.3 0.6z"/><path class="c" d="m160.5 238.1l-59.4-34.3c-1.2-0.7-2.2-2.4-2.2-3.9v-2.9c0-1.5 1-3.3 2.2-4l38.1-22c1.3-0.7 3-2.2 3.8-3.4l18.2-24.5c0.9-1.1 2.6-1.5 3.9-0.8l59.3 34.3c1.3 0.7 2.3 2.5 2.3 4v19.3c0 1.5-1 3.2-2.3 3.9l-59.3 34.3c-1.3 0.7-3.3 0.7-4.6 0z"/><path class="d" d="m165.1 229.9l38-22c0.6-0.3 1.3-0.8 2-1.4 0.7-0.7 1.4-1.4 1.9-2l18.1-24.5c0.9-1.1 0.6-2.7-0.7-3.4l-59.3-34.3c-1.3-0.7-3-0.3-3.9 0.8l-18.2 24.5c-0.8 1.2-2.2 2.9-3.5 3.6l-38.4 21.8c-1.2 0.7-1.2 1.9 0 2.6l59.4 34.3c1.3 0.7 3.3 0.7 4.6 0z"/><path class="b" d="m224.4 176.6l-59.3-34.3c-1.3-0.7-3-0.3-3.9 0.8l-18.2 24.5c-0.4 0.6-1.1 1.3-1.8 2l63.9 36.9c0.7-0.7 1.4-1.4 1.9-2l18.1-24.5c0.9-1.1 0.6-2.7-0.7-3.4z"/><path class="e" d="m115.5 193.6c1.5-0.8 3.9-0.8 5.4 0 1.4 0.9 1.4 2.2 0 3.1-1.5 0.8-3.9 0.8-5.4 0-1.4-0.9-1.4-2.2 0-3.1z"/><path class="e" d="m126.2 199.8c1.5-0.9 3.9-0.9 5.3 0 1.5 0.8 1.5 2.2 0 3-1.4 0.9-3.8 0.9-5.3 0-1.5-0.8-1.5-2.2 0-3z"/><path class="c" d="m136.8 205.9c1.5-0.8 3.9-0.8 5.4 0 1.4 0.9 1.4 2.2 0 3.1-1.5 0.8-3.9 0.8-5.4 0-1.4-0.9-1.4-2.2 0-3.1z"/><path class="c" d="m147.5 212.1c1.5-0.9 3.9-0.9 5.3 0 1.5 0.8 1.5 2.2 0 3-1.4 0.9-3.8 0.9-5.3 0-1.5-0.8-1.5-2.2 0-3z"/><path class="e" d="m123.5 189c1.5-0.8 3.9-0.8 5.4 0 1.4 0.9 1.4 2.2 0 3.1-1.5 0.8-3.9 0.8-5.4 0-1.4-0.9-1.4-2.2 0-3.1z"/><path class="c" d="m134.2 195.2c1.5-0.9 3.8-0.9 5.3 0 1.5 0.8 1.5 2.2 0 3-1.5 0.9-3.8 0.9-5.3 0-1.5-0.8-1.5-2.2 0-3z"/><path class="e" d="m144.8 201.3c1.5-0.8 3.9-0.8 5.4 0 1.4 0.9 1.4 2.2 0 3.1-1.5 0.8-3.9 0.8-5.4 0-1.4-0.9-1.4-2.2 0-3.1z"/><path class="c" d="m155.5 207.5c1.5-0.9 3.8-0.9 5.3 0 1.5 0.8 1.5 2.2 0 3-1.5 0.9-3.8 0.9-5.3 0-1.5-0.8-1.5-2.2 0-3z"/><path class="c" d="m131.5 184.4c1.5-0.9 3.9-0.9 5.3 0 1.5 0.8 1.5 2.2 0 3.1-1.4 0.8-3.8 0.8-5.3 0-1.4-0.9-1.4-2.3 0-3.1z"/><path class="e" d="m142.2 190.5c1.4-0.8 3.8-0.8 5.3 0 1.5 0.9 1.5 2.3 0 3.1-1.5 0.9-3.9 0.9-5.3 0-1.5-0.8-1.5-2.2 0-3.1z"/><path class="c" d="m152.8 196.7c1.5-0.9 3.9-0.9 5.4 0 1.4 0.8 1.4 2.2 0 3.1-1.5 0.8-3.9 0.8-5.4 0-1.4-0.9-1.4-2.3 0-3.1z"/><path class="e" d="m158.2 218.1c1.5-0.8 3.9-0.8 5.3 0 1.5 0.8 1.5 2.2 0 3.1-1.4 0.8-3.8 0.8-5.3 0-1.5-0.9-1.5-2.3 0-3.1z"/><path class="c" d="m166.2 213.5c1.5-0.9 3.9-0.9 5.3 0 1.5 0.8 1.5 2.2 0 3.1-1.4 0.8-3.8 0.8-5.3 0-1.5-0.9-1.5-2.3 0-3.1z"/><path class="c" d="m163.5 202.9c1.4-0.9 3.8-0.9 5.3 0 1.5 0.8 1.5 2.2 0 3-1.5 0.9-3.9 0.9-5.3 0-1.5-0.8-1.5-2.2 0-3z"/><path class="e" d="m139.5 179.8c1.5-0.9 3.9-0.9 5.3 0 1.5 0.8 1.5 2.2 0 3.1-1.4 0.8-3.8 0.8-5.3 0-1.5-0.9-1.5-2.3 0-3.1z"/><path class="c" d="m150.2 185.9c1.4-0.8 3.8-0.8 5.3 0 1.5 0.9 1.5 2.3 0 3.1-1.5 0.9-3.9 0.9-5.3 0-1.5-0.8-1.5-2.2 0-3.1z"/><path class="e" d="m160.8 192.1c1.5-0.9 3.9-0.9 5.3 0 1.5 0.8 1.5 2.2 0 3.1-1.4 0.8-3.8 0.8-5.3 0-1.5-0.9-1.5-2.3 0-3.1z"/><path class="c" d="m171.5 198.2c1.4-0.8 3.8-0.8 5.3 0 1.5 0.9 1.5 2.3 0 3.1-1.5 0.9-3.9 0.9-5.3 0-1.5-0.8-1.5-2.2 0-3.1z"/><path class="e" d="m174.2 208.9c1.5-0.9 3.8-0.9 5.3 0 1.5 0.8 1.5 2.2 0 3.1-1.5 0.8-3.8 0.8-5.3 0-1.5-0.9-1.5-2.3 0-3.1z"/><path class="c" d="m182.2 204.3c1.5-0.9 3.8-0.9 5.3 0 1.5 0.8 1.5 2.2 0 3-1.5 0.9-3.8 0.9-5.3 0-1.5-0.8-1.5-2.2 0-3z"/><path class="b" d="m162.9 230.5v8.1c-0.8 0.1-1.7-0.1-2.4-0.5l-59.4-34.3c-1.2-0.7-2.2-2.4-2.2-3.9v-3c0-1.2 0.8-2.7 1.8-3.6-0.8 0.7-0.7 1.7 0.4 2.3l59.4 34.3c0.7 0.4 1.6 0.6 2.4 0.6z"/><path class="c" d="m150.9 166.6v-0.1c0.6-0.7 1.8-1 2.6-0.5l51.7 29.8c0.8 0.5 1 1.5 0.4 2.3v0.1c-0.6 0.8-1.7 1-2.6 0.5l-51.6-29.8c-0.9-0.5-1.1-1.5-0.5-2.3z"/><path class="e" d="m150.9 166.6v-0.1c0.6-0.7 1.8-1 2.6-0.5l38.4 22.2-2.1 2.9-38.4-22.2c-0.9-0.5-1.1-1.5-0.5-2.3z"/><path class="c" d="m155.2 160.9v-0.1c0.6-0.8 1.7-1 2.6-0.5l51.6 29.8c0.9 0.5 1.1 1.5 0.5 2.3-0.6 0.8-1.8 1.1-2.6 0.6l-51.7-29.9c-0.8-0.4-1-1.5-0.4-2.2z"/><path class="e" d="m155.2 160.9v-0.1c0.6-0.8 1.7-1 2.6-0.5l12.8 7.4-2.1 2.9-12.9-7.5c-0.8-0.4-1-1.5-0.4-2.2z"/><path class="c" d="m159.4 155.1h0.1c0.6-0.8 1.7-1.1 2.5-0.6l51.7 29.9c0.8 0.4 1.1 1.5 0.5 2.2l-0.1 0.1c-0.6 0.8-1.7 1-2.5 0.5l-51.7-29.8c-0.8-0.5-1-1.5-0.5-2.3z"/><path class="e" d="m159.4 155.1h0.1c0.6-0.8 1.7-1.1 2.5-0.6l27 15.5-2.2 2.9-26.9-15.5c-0.8-0.5-1-1.5-0.5-2.3z"/><path class="c" d="m163.7 149.4l0.1-0.1c0.5-0.7 1.7-1 2.5-0.5l51.7 29.8c0.8 0.5 1 1.5 0.4 2.3v0.1c-0.6 0.8-1.7 1-2.6 0.5l-51.6-29.8c-0.9-0.5-1.1-1.5-0.5-2.3z"/><path class="e" d="m163.7 149.4l0.1-0.1c0.5-0.7 1.7-1 2.5-0.5l46.9 27.1-2.1 2.9-46.9-27.1c-0.9-0.5-1.1-1.5-0.5-2.3z"/><path class="f" d="m403.2 484.2v95.8c0 0.7 0.6 1.6 1.2 1.9l91.8 53c0.6 0.3 1.6 0.3 2.2 0l3.1-1.8c0.6-0.4 1.1-1.2 1.1-2v-95.7c0-0.7-0.6-1.3-1.3-1.3l-96.7-51.2c-0.8 0-1.4 0.6-1.4 1.3z"/><path class="g" d="m501.3 534.1h-2.7c-0.7 0-1.3 0.6-1.3 1.3v98.8c0 0.7 0.5 1 1.1 0.7l3.1-1.8c0.6-0.4 1.1-1.2 1.1-2v-95.7c0-0.7-0.6-1.3-1.3-1.3z"/><path class="h" d="m586 374.5v95.8c0 0.7 0.5 1.6 1.2 1.9l95.4 55.1c0.6 0.3 1.6 0.3 2.2 0l3.1-1.8c0.6-0.4 1.1-1.2 1.1-2v-95.7c0-0.7-0.6-1.3-1.3-1.3l-100.4-53.3c-0.7 0-1.3 0.6-1.3 1.3z"/><path class="i" d="m687.7 426.5h-2.7c-0.7 0-1.3 0.6-1.3 1.3v98.8c0 0.7 0.5 1 1.1 0.7l3.1-1.8c0.6-0.4 1.1-1.2 1.1-2v-95.7c0-0.7-0.6-1.3-1.3-1.3z"/><path class="g" d="m394.3 481.2v-0.9c0-1.4 1-3.2 2.3-3.9l192.5-111.2c1.3-0.7 3.3-0.7 4.5 0l102 58.9c1.3 0.7 2.3 2.5 2.3 3.9v1c0 1.4-1 3.2-2.3 3.9l-192.5 111.1c-1.3 0.8-3.3 0.8-4.5 0l-102-58.8c-1.3-0.8-2.3-2.5-2.3-4z"/><path class="i" d="m500.8 538.4v6.2c-0.8 0-1.6-0.2-2.3-0.5l-101.9-58.9c-1.3-0.8-2.3-2.5-2.3-4v-0.9c0-1.3 0.8-2.8 1.9-3.6-0.9 0.7-0.7 1.7 0.4 2.3l101.9 58.9c0.7 0.4 1.5 0.5 2.3 0.5z"/><path class="f" d="m396.6 479l102 58.9c1.2 0.7 3.2 0.7 4.5 0l192.5-111.2c1.3-0.7 1.3-1.9 0-2.6l-102-58.9c-1.2-0.7-3.2-0.7-4.5 0l-192.5 111.2c-1.3 0.7-1.3 1.9 0 2.6z"/><path class="i" d="m560.9 437.9l57.7-33.3c1-0.6 2.7-0.6 3.7 0l18.3 10.6c1 0.6 1 1.6 0 2.2l-57.7 33.3c-1 0.6-2.7 0.6-3.7 0l-18.3-10.6c-1-0.6-1-1.6 0-2.2z"/><path class="i" d="m571.2 417.2h-0.1l-6.1-3.5c-0.8-0.5-0.8-1.3 0-1.8l47.9-27.7c0.8-0.4 0.8-1.2 0-1.7l-0.5-0.3c-0.8-0.5-2.2-0.5-3 0l-46.6 26.9c-0.8 0.5-1.6 0.5-1.6 0.1q0-0.4 0-0.8l2.7-13.7c0.2-0.9-0.4-2.1-1.2-2.6l-0.5-0.3c-0.8-0.4-1.6-0.1-1.8 0.9l-3.1 15.9q-0.1 0.8 0 1.7c0.1 1-0.2 2.1-1 2.6l-29.1 16.8c-0.8 0.4-0.8 1.2 0 1.7l0.5 0.3c0.8 0.5 2.2 0.5 3 0l27.8-16c0.8-0.5 1.6-0.9 1.6-0.8q0.1 0 0.1 0l9.5 5.5c0.8 0.5 2.2 0.5 3 0 4.2-2.4 15.6-9 19.8-11.4 0.8-0.5 1.1-1.1 0.6-1.4-0.5-0.2-1.6-0.1-2.5 0.3l-17.8 8.6c-0.9 0.4-1.6 0.7-1.6 0.7z"/><path class="b" d="m622.1 400.1l17.2 10c1.1 0.6 1.9 2 1.9 3.1 0 1.1-0.8 2.5-1.9 3.1l-55.7 32.2c-1.1 0.6-2.7 0.6-3.8 0l-17.2-10c-1.1-0.6-1.9-2-1.9-3.1 0-1.1 0.8-2.5 1.9-3.1l55.7-32.2c1.1-0.6 2.7-0.6 3.8 0z"/><path class="c" d="m581.7 448.9c-0.7 0-1.3-0.1-1.9-0.4l-17.2-10c-1.1-0.6-1.9-2-1.9-3.1 0-1.1 0.8-2.5 1.9-3.1l1.8-1h17.3z"/><path class="d" d="m562.6 432.3l55.7-32.2c1.1-0.6 2.7-0.6 3.8 0l17.2 10c1.1 0.6 1.1 1.6 0 2.2l-55.7 32.2c-1.1 0.6-2.7 0.6-3.8 0l-17.2-10c-1.1-0.6-1.1-1.6 0-2.2z"/><path fill-rule="evenodd" class="e" d="m613.3 415l-2.1-1.2q-0.1-0.1 0-0.2l1.8-1q0.2 0 0.3 0l2 1.2q0.1 0.1 0 0.2l-1.8 1zm-2.9-4l2 1.1q0.1 0.1 0 0.2l-1.8 1c0 0.1-0.2 0.1-0.2 0l-2.1-1.2q-0.1 0 0-0.1l1.8-1q0.1-0.2 0.3 0zm-5.7 3.2l2 1.2q0.1 0.1 0 0.2l-2.9 1.7q-0.2 0-0.3 0l-2.1-1.2q-0.1-0.1 0-0.1l3-1.8q0.2 0 0.3 0zm3.1-1.8l2 1.2q0.1 0.1 0 0.2l-1.7 1q-0.2 0-0.3 0l-2-1.2q-0.2-0.1 0-0.1l1.7-1.1q0.2 0 0.3 0zm-6.9 4l2 1.2q0.2 0.1 0 0.2l-1.7 1q-0.2 0-0.3 0l-2-1.2q-0.1-0.1 0-0.2l1.7-1q0.1 0 0.3 0zm-2.6 1.5l2.1 1.2q0.1 0.1 0 0.1l-1.8 1.1c-0.1 0-0.2 0-0.3-0.1l-2-1.1q-0.1-0.1 0-0.2l1.8-1zm7.5 4.8l-2.1-1.2q-0.1-0.1 0-0.2l1.8-1q0.2 0 0.3 0l2 1.2q0.1 0.1 0 0.2l-1.8 1zm-2.6 1.4l-2-1.1q-0.2-0.1 0-0.2l1.7-1q0.2 0 0.3 0l2 1.2q0.1 0.1 0 0.1l-1.7 1.1c-0.1 0-0.2 0-0.3-0.1zm-2.6 1.5l-2-1.1q-0.1-0.1 0-0.2l1.7-1q0.2-0.2 0.3 0l2.1 1.2q0.1 0 0 0.1l-1.8 1q-0.2 0.2-0.3 0zm-2.5 1.5l-2.1-1.2q-0.1 0 0-0.1l1.8-1q0.1-0.2 0.3 0l2 1.1q0.1 0.1 0 0.2l-1.8 1c0 0.1-0.2 0.1-0.2 0zm12.6-10.6l-2-1.2q-0.2-0.1 0-0.2l1.7-1q0.2 0 0.3 0l2 1.2q0.1 0.1 0 0.2l-1.7 1q-0.2 0-0.3 0zm-2.4 4.7l-2-1.2q-0.1-0.1 0-0.2l1.6-0.9q0.1-0.1 0-0.2l-2.6-1.5q-0.1 0 0-0.1l2-1.2q0.2 0 0.3 0l4.9 2.9q0.1 0 0 0.1l-3.9 2.3q-0.2 0-0.3 0zm-12.5-1.8l2 1.2q0.1 0 0 0.1l-1.7 1q-0.2 0.1-0.3 0l-2.1-1.1q-0.1-0.1 0-0.2l1.8-1q0.1-0.2 0.3 0zm-2.6 1.5l2 1.1q0.2 0.1 0 0.2l-1.7 1q-0.2 0.1-0.3 0l-2-1.2q-0.1 0 0-0.1l1.7-1q0.2-0.2 0.3 0zm-15.1 15.4q-0.2-0.1 0-0.2l1.7-1q0.2 0 0.3 0l2 1.2q0.1 0.1 0 0.2l-1.7 1q-0.2 0-0.3 0zm-5.4-3.6l2 1.2q0.2 0.1 0 0.1l-1.7 1q-0.2 0.1-0.3 0l-2-1.1q-0.1-0.1 0-0.2l1.7-1c0.1-0.1 0.2 0 0.3 0zm1.8 2.3q-0.1-0.1 0-0.2l1.8-1h0.2l2.1 1.2q0.1 0.1 0 0.2l-1.8 1h-0.2zm9.8 3.3l-2-1.2q-0.1 0 0-0.1l1.7-1q0.1-0.2 0.3 0l2 1.2q0.2 0 0 0.1l-1.7 1q-0.2 0.1-0.3 0zm-4.6 0.3q-0.1-0.1 0-0.1l1.8-1c0-0.1 0.2-0.1 0.2 0l2.1 1.1q0.1 0.1 0 0.2l-1.8 1c0 0.1-0.2 0-0.3 0zm-4.5-7.4l2.1 1.1q0.1 0.1 0 0.2l-1.8 1c-0.1 0.1-0.2 0-0.3 0l-2-1.2q-0.1-0.1 0-0.1l1.8-1c0-0.1 0.2-0.1 0.2 0zm12.9-7.4l2 1.1q0.1 0.1 0 0.2l-1.8 1h-0.2l-2.1-1.2q-0.1-0.1 0-0.1l1.8-1.1c0.1 0 0.2 0 0.3 0.1zm-10.3 5.9l2 1.2q0.1 0 0 0.1l-1.7 1q-0.2 0.1-0.3 0l-2-1.2q-0.2 0 0-0.1l1.7-1q0.2-0.2 0.3 0zm12.8-7.4l2.1 1.1q0.1 0.1 0 0.2l-1.8 1q-0.2 0.1-0.3 0l-2-1.2q-0.1 0 0-0.1l1.7-1q0.2-0.2 0.3 0zm-5.1 2.9l2 1.2q0.1 0.1 0 0.2l-1.7 1q-0.2 0-0.3 0l-2-1.2q-0.2-0.1 0-0.2l1.7-1q0.2 0 0.3 0zm-2.6 1.5l2.1 1.2q0.1 0.1 0 0.1l-1.8 1.1q-0.2 0-0.3 0l-2-1.2q-0.1-0.1 0-0.2l1.8-1zm-2.5 1.5l2 1.2q0.1 0.1 0 0.1l-1.8 1c0 0.1-0.2 0.1-0.2 0l-2.1-1.1q-0.1-0.1 0-0.2l1.8-1c0.1-0.1 0.2 0 0.3 0zm12.5 1.8l-2-1.2q-0.1-0.1 0-0.1l1.7-1.1q0.2 0 0.3 0l2 1.2q0.2 0.1 0.1 0.2l-1.8 1q-0.2 0-0.3 0zm23.1-22.4l2.1 1.2q0.1 0.1 0 0.1l-1.8 1.1q-0.2 0-0.3 0l-2-1.2q-0.1-0.1 0-0.2l1.7-1q0.2 0 0.3 0zm-3.1 1.8l2 1.2q0.2 0.1 0.1 0.1l-1.8 1q-0.2 0.2-0.3 0l-2-1.1q-0.1-0.1 0-0.2l1.7-1q0.2 0 0.3 0zm5.7-3.3l2 1.2q0.1 0.1 0 0.2l-1.7 1q-0.2 0-0.3 0l-2-1.2q-0.2-0.1 0-0.2l1.7-1q0.1 0 0.3 0zm-13.9 13.7l-2-1.2q-0.1 0 0-0.1l1.8-1c0-0.1 0.2-0.1 0.2 0l2.1 1.1q0.1 0.1 0 0.2l-1.8 1c0 0.1-0.2 0.1-0.3 0zm18.5-14q0.1 0.1 0 0.2l-1.8 1h-0.2l-2.1-1.2q-0.1-0.1 0-0.1l1.8-1.1q0.1 0 0.3 0zm-27.7 22.7l-2.1-1.1q-0.1-0.1 0-0.2l1.8-1c0-0.1 0.2-0.1 0.3 0l2 1.2q0.1 0 0 0.1l-1.8 1c0 0.1-0.2 0.1-0.2 0zm31.4-18.1l-2-1.2q-0.1-0.1 0-0.2l1.7-1q0.1 0 0.3 0l2.1 1.2q0.1 0.1 0 0.2l-1.8 1q-0.2 0-0.3 0zm-5.4-0.2l-2.1-1.2q-0.1-0.1 0-0.2l1.8-1q0.1 0 0.3 0l2 1.2q0.1 0.1 0 0.2l-1.8 1zm4.6-2.7q0.1 0.1 0 0.2l-1.8 1q-0.2 0-0.3 0l-2-1.2q-0.1-0.1 0-0.1l1.7-1.1q0.1 0 0.3 0zm-1.5-1.6l1.8-1q0.1-0.2 0.3 0l4.9 2.8q0.1 0.1 0 0.2l-1.8 1c0 0.1-0.2 0.1-0.2 0l-5-2.8q-0.1-0.1 0-0.2zm-5.6 3.4l2 1.2q0.1 0.1 0 0.2l-1.8 1h-0.2l-2.1-1.2q-0.1-0.1 0-0.2l1.8-1q0.1 0 0.3 0zm-19.4 11.2l2.1 1.2q0.1 0 0 0.1l-1.8 1c0 0.1-0.2 0.1-0.2 0l-2.1-1.1q-0.1-0.1 0-0.2l1.8-1c0-0.1 0.2-0.1 0.2 0zm22.8-9.8q-0.1-0.1 0-0.2l1.8-1h0.2l2.1 1.2q0.1 0.1 0 0.2l-1.8 1q-0.2 0-0.3 0zm-20.2 8.3l2.1 1.2q0.1 0 0 0.1l-1.8 1c0 0.1-0.2 0.1-0.3 0l-2-1.1q-0.1-0.1 0-0.2l1.8-1c0-0.1 0.2-0.1 0.2 0zm-21.5 15.8q-0.1-0.1 0-0.2l1.7-1q0.1 0 0.3 0l2.1 1.2q0.1 0.1 0 0.1l-1.8 1q-0.2 0.1-0.3 0zm-1.5-2.4l2 1.2q0.1 0 0 0.1l-1.7 1q-0.2 0.1-0.3 0l-2-1.1q-0.2-0.1-0.1-0.2l1.8-1q0.2-0.2 0.3 0zm6.1 2.1l-2-1.1q-0.1-0.1 0-0.2l1.7-1q0.2-0.2 0.3 0l2.1 1.2q0.1 0 0 0.1l-1.8 1q-0.1 0.1-0.3 0zm2.6-1.4l-2-1.2q-0.2-0.1 0-0.2l1.7-1q0.2 0 0.3 0l2 1.2q0.1 0.1 0 0.1l-1.7 1.1q-0.1 0-0.3 0zm2.6-1.5l-2.1-1.2q-0.1-0.1 0-0.2l1.8-1c0 0 0.2 0 0.3 0l2 1.2q0.1 0.1 0 0.2l-1.8 1zm-8.8-0.7l2.1 1.2q0.1 0.1 0 0.1l-1.8 1.1c0 0-0.2 0-0.3-0.1l-2-1.1q-0.1-0.1 0-0.2l1.8-1zm2.6-1.5l2 1.2q0.2 0.1 0.1 0.2l-1.8 1q-0.1 0-0.3 0l-2-1.2q-0.1-0.1 0-0.2l1.7-1q0.2 0 0.3 0zm10.3-5.9l2 1.2q0.1 0.1 0 0.1l-1.7 1q-0.2 0.1-0.3 0l-2-1.1q-0.2-0.1-0.1-0.2l1.8-1c0.1-0.1 0.2 0 0.3 0zm-2.6 1.5l2 1.2q0.2 0 0.1 0.1l-1.8 1q-0.1 0.1-0.3 0l-2-1.2q-0.1 0 0-0.1l1.7-1q0.2-0.2 0.3 0zm5.1-3l2.1 1.2q0.1 0.1 0 0.2l-1.8 1c0 0-0.2 0-0.3 0l-2-1.2q-0.1-0.1 0-0.2l1.8-1zm-10.2 5.9l2 1.2q0.1 0.1 0 0.2l-1.7 1q-0.1 0-0.3 0l-2-1.2q-0.2-0.1-0.1-0.1l1.8-1.1q0.2 0 0.3 0zm2.5-1.4l2.1 1.1q0.1 0.1 0 0.2l-1.8 1c0 0.1-0.2 0.1-0.3 0l-2-1.2q-0.1-0.1 0-0.1l1.8-1c0-0.1 0.2-0.1 0.2 0zm-2.4 10.4l-2-1.2q-0.1 0 0-0.1l1.7-1q0.2-0.2 0.3 0l2 1.1q0.2 0.1 0 0.2l-1.7 1q-0.1 0.1-0.3 0zm-14.8-1.3l-1.7 1q-0.1 0-0.3 0l-2-1.2q-0.1-0.1 0-0.2l1.7-1q0.2 0 0.3 0l2 1.2q0.1 0.1 0 0.2zm3.9 1.1l-2.7 1.5q-0.1 0.1-0.3 0l-2-1.1q-0.1-0.1 0-0.2l2.7-1.6c0 0 0.2 0 0.2 0.1l2.1 1.1q0.1 0.1 0 0.2zm-7-3.4l-2.1 1.2q-0.1 0.2-0.3 0l-2-1.1q-0.2-0.1-0.1-0.2l2.2-1.2q0.2-0.2 0.3 0l2 1.1q0.1 0.1 0 0.2zm-0.4-2.3q-0.1-0.1 0-0.2l1.8-1q0.2 0 0.3 0l2 1.2q0.1 0.1 0 0.2l-1.8 1h-0.2zm10.9 6.9l-3.4 2q-0.1 0-0.3 0l-2-1.2q-0.1-0.1 0-0.1l3.4-2c0 0 0.2 0 0.3 0l2 1.2q0.1 0.1 0 0.1zm1.7 2.4l-2.2 1.3q-0.1 0-0.3 0l-2-1.2q-0.1-0.1 0-0.2l2.2-1.2c0-0.1 0.2-0.1 0.2 0l2.1 1.2q0.1 0 0 0.1zm6.5-20.3q-0.2-0.1-0.1-0.2l1.8-1q0.2-0.2 0.3 0l2 1.2q0.1 0 0 0.1l-1.7 1q-0.2 0.1-0.3 0zm-5.2 3q-0.1-0.1 0-0.2l1.8-1q0.1 0 0.3 0l2 1.2q0.1 0.1 0 0.2l-1.7 1q-0.2 0-0.3 0zm-11.4 6.5q-0.1 0 0-0.1l1.7-1q0.2-0.2 0.3 0l2.1 1.1q0.1 0.1 0 0.2l-1.8 1q-0.2 0.1-0.3 0zm14-8q-0.1-0.1 0-0.2l1.7-1q0.2-0.2 0.3 0l2 1.2q0.2 0 0 0.1l-1.7 1q-0.2 0.1-0.3 0zm-5.1 3q-0.1-0.1 0-0.2l1.7-1q0.2 0 0.3 0l2 1.2q0.2 0.1 0 0.2l-1.7 1q-0.2 0-0.3 0zm4.7 17.1q0.1 0.1 0 0.1l-2.7 1.6q-0.1 0-0.3 0l-2-1.2q-0.2-0.1-0.1-0.1l2.8-1.6c0 0 0.1 0 0.2 0zm-8.3-15q-0.1-0.1 0-0.1l1.7-1.1q0.2 0 0.3 0l2 1.2q0.2 0.1 0.1 0.2l-1.8 1q-0.1 0-0.3 0zm-2.5 1.5q-0.2-0.1-0.1-0.2l1.8-1q0.2 0 0.3 0l2 1.2q0.1 0.1 0 0.1l-1.7 1q-0.2 0.1-0.3 0zm58.4-13.9q0.2 0.1 0 0.2l-4.3 2.5c0 0-0.2 0-0.3 0l-2-1.2q-0.1-0.1 0-0.2l4.3-2.5q0.2 0 0.3 0zm-5.7 3.3q0.2 0.1 0 0.2l-1.7 1q-0.2 0-0.3 0l-2-1.2q-0.1-0.1 0-0.2l1.7-1q0.2 0 0.3 0zm-37.1 18.1l-2-1.2q-0.1-0.1 0-0.1l1.7-1.1q0.1 0 0.3 0l2.1 1.2q0.1 0.1 0 0.2l-1.8 1q-0.2 0-0.3 0zm32-15.1q0.1 0.1 0 0.2l-1.8 1c0 0-0.2 0-0.3 0l-2-1.2q-0.1-0.1 0-0.2l1.8-1h0.2zm13.4-7.7q0.1 0.1 0 0.2l-1.7 1q-0.2 0-0.3 0l-2-1.2q-0.2-0.1-0.1-0.2l1.8-1q0.2 0 0.3 0zm2.6-1.3l-1.8 1q-0.2 0.2-0.3 0l-4.9-2.8q-0.1-0.1 0-0.2l1.7-1q0.2 0 0.3 0l5 2.9q0.1 0 0 0.1zm-25.6 14.6q0.1 0.1 0 0.2l-2.1 1.2q-0.2 0-0.3 0l-2-1.2q-0.2-0.1-0.1-0.1l2.2-1.3q0.2 0 0.3 0zm6.5-3.7q0.1 0.1 0 0.1l-2.7 1.6q-0.2 0-0.3 0l-2-1.2q-0.1-0.1 0-0.1l2.7-1.6h0.2zm-12.4 7.2q0.1 0.1 0 0.1l-14.4 8.4q-0.2 0-0.3 0l-2-1.2q-0.2-0.1 0-0.2l14.4-8.3q0.2 0 0.3 0zm-15.3 8.8q0.1 0.1 0 0.2l-2.1 1.2q-0.2 0.1-0.3 0l-2-1.2q-0.2 0-0.1-0.1l2.2-1.3q0.2 0 0.3 0zm18.2-10.5q0.1 0.1 0 0.2l-2.1 1.2q-0.1 0.1-0.3 0l-2-1.2q-0.2 0 0-0.1l2.1-1.3q0.2 0 0.3 0zm-21.2 12.3q0.1 0.1 0 0.2l-2.2 1.2h-0.2l-2.1-1.2q-0.1-0.1 0-0.1l2.2-1.3q0.2 0 0.3 0zm27.1-15.7q0.1 0.1 0 0.2l-2.1 1.3c-0.1 0-0.2 0-0.3-0.1l-2.1-1.1q-0.1-0.1 0-0.2l2.2-1.2q0.2-0.2 0.3 0zm9.2-5.3q0.1 0 0 0.1l-1.8 1q-0.1 0.1-0.3 0l-2-1.1q-0.1-0.1 0-0.2l1.8-1c0-0.1 0.2-0.1 0.2 0zm3.3-5.3l-2-1.1q-0.1-0.1 0-0.2l1.8-1c0-0.1 0.2-0.1 0.2 0l2.1 1.2q0.1 0 0 0.1l-1.8 1c0 0.1-0.2 0.1-0.3 0zm-11.4 0l-2.1-1.2q-0.1-0.1 0-0.2l1.8-1q0.2 0 0.3 0l2 1.2q0.1 0.1 0 0.1l-1.7 1.1q-0.2 0-0.3 0zm-5.8 10l-2.1-1.2q-0.1 0 0-0.1l5.1-3q0.2 0 0.3 0l2.1 1.2q0.1 0.1 0 0.2l-5.2 2.9c0 0.1-0.2 0.1-0.2 0zm12.6-9.7q-0.1 0 0-0.1l1.8-1q0.2-0.2 0.3 0l2 1.1q0.1 0.1 0 0.2l-1.7 1q-0.2 0.1-0.3 0zm-0.9-0.5l-2-1.2q-0.1 0 0-0.1l1.7-1q0.2-0.2 0.3 0l2 1.1q0.2 0.1 0 0.2l-1.7 1q-0.2 0.1-0.3 0zm-14.4 11.7l-2-1.2q-0.1-0.1 0-0.2l1.7-1q0.2 0 0.3 0l2 1.2q0.2 0.1 0.1 0.2l-1.8 1q-0.1 0-0.3 0zm9.6-7.9q-0.1-0.1 0-0.2l1.8-1h0.2l2.1 1.2q0.1 0.1 0 0.2l-1.8 1q-0.1 0-0.3 0zm-22.4 15.2l-2-1.1q-0.1-0.1 0-0.2l1.7-1q0.2 0 0.3 0l2 1.2q0.2 0.1 0.1 0.1l-1.8 1.1c-0.1 0-0.2 0-0.3-0.1zm2.6-1.4l-2-1.2q-0.2-0.1-0.1-0.2l1.8-1q0.2 0 0.3 0l2 1.2q0.1 0.1 0 0.2l-1.7 1q-0.1 0-0.3 0zm-5.1 2.9l-2.1-1.1q-0.1-0.1 0-0.2l1.8-1c0-0.1 0.2-0.1 0.2 0l2.1 1.2q0.1 0 0 0.1l-1.8 1c0 0.1-0.2 0.1-0.2 0zm10.2-5.9l-2-1.2q-0.1-0.1 0-0.1l1.7-1q0.2-0.2 0.3 0l2 1.1q0.2 0.1 0.1 0.2l-1.8 1c-0.1 0.1-0.2 0-0.3 0zm-2.5 1.5l-2.1-1.2q-0.1-0.1 0-0.1l1.8-1.1h0.2l2.1 1.2q0.1 0.1 0 0.2l-1.8 1zm5.1-3l-2-1.2q-0.2 0-0.1-0.1l1.8-1q0.2-0.2 0.3 0l2 1.2q0.1 0 0 0.1l-1.7 1q-0.1 0.1-0.3 0zm11.5-22.2q-0.2-0.1 0-0.2l1.7-1q0.2 0 0.3 0l0.5 0.3q0.2 0.1 0 0.2l-1.7 1q-0.1 0.1-0.3 0zm-14.1 7.3q-0.1-0.1 0-0.2l1.7-1q0.2 0 0.3 0l2 1.2q0.2 0.1 0.1 0.2l-1.8 1q-0.1 0-0.3 0zm5.2-3q-0.2-0.1-0.1-0.2l1.8-1q0.2 0 0.3 0l2 1.2q0.1 0.1 0 0.2l-1.7 1q-0.1 0-0.3 0zm-8.3 4.8q-0.1-0.1 0-0.2l1.8-1c0-0.1 0.2-0.1 0.2 0l2.1 1.2q0.1 0 0 0.1l-1.8 1c0 0.1-0.2 0.1-0.3 0zm5.7-3.3q-0.1-0.1 0-0.1l1.8-1q0.2-0.2 0.3 0l2 1.1q0.1 0.1 0 0.2l-1.7 1q-0.1 0.1-0.3 0zm-10.9 6.3q-0.1-0.1 0-0.2l1.8-1q0.2-0.2 0.3 0l2 1.2q0.1 0 0 0.1l-1.7 1q-0.1 0.1-0.3 0zm2.5-1.4q-0.1-0.1 0-0.2l1.8-1q0.2-0.2 0.3 0l2 1.2q0.1 0 0 0.1l-1.7 1q-0.1 0.1-0.3 0zm14.7-7.6q-0.2-0.1-0.1-0.2l1.8-1q0.2 0 0.3 0l0.5 0.3q0.1 0.1 0 0.2l-1.7 1q-0.1 0.1-0.3 0zm7.7-4.4q-0.1-0.1 0-0.2l1.7-1q0.2 0 0.3 0l0.6 0.3q0.1 0.1 0 0.2l-1.8 1q-0.1 0-0.3 0zm2.8 1.6q-0.1-0.1 0-0.2l1.8-1h0.2l2.1 1.2q0.1 0.1 0 0.1l-1.8 1.1q-0.1 0-0.3 0zm8.2 7.6l-2-1.1q-0.1-0.1 0-0.2l1.7-1q0.2-0.2 0.3 0l2 1.2q0.2 0 0 0.1l-1.7 1q-0.1 0.2-0.3 0zm-16.1-6.3q-0.1-0.1 0-0.1l1.8-1.1q0.2 0 0.3 0l0.5 0.4q0.1 0 0 0.1l-1.7 1q-0.1 0.1-0.3 0zm-22.4 12.1q-0.1-0.1 0-0.2l1.7-1q0.2 0 0.3 0l2 1.2q0.2 0.1 0.1 0.2l-1.8 1q-0.1 0-0.3 0z"/><path class="d" d="m592.2 403.1l-21 12.1h-0.1l-7.9-4.6c-1.4-0.8-2.3-2.7-2-4.2l3-15.4 17.5-14.2 3.5 2.1-3 15.3c-0.3 1.6 0.6 3.5 2 4.3z"/><path class="c" d="m571.2 415.2v4.1l-11-6.4c-2-1.1-3.3-4-2.9-6.4l3.4-17.5 3.5 2-3 15.4c-0.3 1.5 0.6 3.4 2 4.2l7.9 4.6z"/><path class="b" d="m592.2 403.1l-21 12.1v4.1l21-12.2z"/><path class="d" d="m611.5 301c0.9 0.6 1.7 2 1.7 3.2v64.4c0 1.2-0.8 2.6-1.9 3.2l-80.2 46.4c-1.1 0.6-2.7 0.6-3.6 0.1-1-0.6-1.8-2-1.8-3.2v-64.4c0-1.2 0.8-2.6 1.9-3.2l80.2-46.4c1.1-0.6 2.7-0.6 3.7-0.1z"/><path class="c" d="m531.1 418.2c-1.1 0.6-2.7 0.6-3.6 0.1-1-0.6-1.8-2-1.8-3.2v-64.4c0-0.6 0.2-1.3 0.6-1.8l62.4 36z"/><path class="b" d="m613.2 368.6v-64.4c0-1.2-0.8-1.7-1.9-1.1l-80.2 46.4c-1.1 0.6-1.9 2-1.9 3.2v64.4c0 1.2 0.8 1.7 1.9 1.1l80.2-46.4c1.1-0.6 1.9-2 1.9-3.2z"/><path class="j" d="m608.6 306.7l-76.1 44c-0.9 0.5-1.5 1.6-1.5 2.6v57.2c0 0.9 0.6 1.3 1.5 0.8l76.1-43.9c0.9-0.5 1.5-1.7 1.5-2.6v-57.2c0-1-0.6-1.3-1.5-0.9z"/><path class="c" d="m502.1 515.3l-45.2-26c-1.2-0.8-2.2-2.5-2.2-4v-27.5c0-1.5 1-3.2 2.2-4l31-17.8c1.3-0.8 3.3-0.8 4.5 0l45.2 26c1.3 0.7 2.3 2.5 2.3 4v27.5c0 1.5-1 3.2-2.3 3.9l-30.9 17.9c-1.3 0.7-3.3 0.7-4.6 0z"/><path class="d" d="m506.7 482.5l30.9-17.9c1.3-0.7 1.3-1.9 0-2.6l-45.2-26c-1.2-0.8-3.2-0.8-4.5 0l-31 17.8c-1.2 0.8-1.2 1.9 0 2.6l45.2 26.1c1.3 0.7 3.3 0.7 4.6 0z"/><path class="b" d="m504.4 483.1v32.8c-0.8 0-1.7-0.2-2.3-0.6l-45.2-26c-1.2-0.8-2.2-2.5-2.2-4l-0.1-27.5c0-1.3 0.8-2.7 1.8-3.5-0.7 0.7-0.5 1.6 0.5 2.1l45.2 26.1c0.6 0.4 1.5 0.6 2.3 0.6z"/><path class="b" d="m468.2 455.5c0.9-0.5 2.2-0.5 3 0l32.5 18.8c0.8 0.4 0.9 1.2 0.1 1.7-0.9 0.5-2.2 0.5-3 0l-32.5-18.8c-0.8-0.5-0.9-1.2-0.1-1.7z"/><path class="e" d="m468.2 455.5c0.9-0.5 2.2-0.5 3 0l19.8 11.4-2.9 1.8-19.8-11.5c-0.8-0.4-0.9-1.2-0.1-1.7z"/><path class="b" d="m473.9 452.2c0.8-0.4 2.1-0.4 3 0l32.4 18.8c0.9 0.5 0.9 1.3 0.1 1.7-0.8 0.5-2.2 0.5-3 0l-32.5-18.7c-0.8-0.5-0.8-1.3 0-1.8z"/><path class="e" d="m473.9 452.2c0.8-0.4 2.1-0.4 3 0l2.6 1.6-2.9 1.7-2.7-1.5c-0.8-0.5-0.8-1.3 0-1.8z"/><path class="b" d="m479.5 449c0.8-0.5 2.2-0.5 3 0l32.5 18.7c0.8 0.5 0.8 1.3 0 1.8-0.8 0.5-2.1 0.5-3 0l-32.4-18.8c-0.9-0.5-0.9-1.2-0.1-1.7z"/><path class="e" d="m479.5 449c0.8-0.5 2.2-0.5 3 0l11.5 6.6-3 1.8-11.4-6.7c-0.9-0.5-0.9-1.2-0.1-1.7z"/><path class="b" d="m485.1 445.7c0.9-0.4 2.2-0.4 3 0l32.5 18.8c0.8 0.5 0.9 1.3 0.1 1.7-0.9 0.5-2.2 0.5-3 0l-32.5-18.7c-0.8-0.5-0.9-1.3-0.1-1.8z"/><path class="e" d="m485.1 445.7c0.9-0.4 2.2-0.4 3 0l23.3 13.5-2.9 1.7-23.3-13.4c-0.8-0.5-0.9-1.3-0.1-1.8z"/><path class="b" d="m490.8 442.5c0.8-0.5 2.1-0.5 3 0l32.4 18.7c0.9 0.5 0.9 1.3 0.1 1.8-0.8 0.5-2.2 0.5-3 0l-32.5-18.8c-0.8-0.5-0.8-1.2 0-1.7z"/><path class="e" d="m490.8 442.5c0.8-0.5 2.1-0.5 3 0l29.2 16.9-2.9 1.7-29.3-16.9c-0.8-0.5-0.8-1.2 0-1.7z"/><path class="b" d="m507.9 506.4v-5.6c0-1.5 0.8-3.1 1.8-3.7 1-0.5 1.8 0.2 1.8 1.6v5.6c0 1.5-0.8 3.1-1.8 3.7-1 0.5-1.8-0.2-1.8-1.6z"/><path class="e" d="m509.8 498c-0.7 0.3-1.2 1.3-1.2 2 0 0.8 0.5 1.1 1.2 0.7 0.6-0.4 1.2-1.3 1.2-2.1 0-0.7-0.6-1-1.2-0.6z"/><path class="b" d="m513.5 503.1v-5.5c0-1.5 0.8-3.1 1.8-3.7 1-0.6 1.8 0.2 1.8 1.6v5.6c0 1.4-0.8 3.1-1.8 3.6-1 0.6-1.8-0.1-1.8-1.6z"/><path class="e" d="m515.3 501.2c-0.6 0.4-1.2 1.3-1.2 2 0 0.8 0.6 1.1 1.2 0.7 0.7-0.4 1.2-1.3 1.2-2 0-0.8-0.5-1.1-1.2-0.7z"/><path class="c" d="m618.2 572.1c0.7 0.9 0.8 2.9 1.5 5.7 0.6 2.8 0.9 4.9 0.4 6.2-0.4 1.4-3.4 4.4-7 5.5-3.7 1.2-8.1 0.2-12.5-2.4-4.3-2.5-7.6-5.7-13.7-7.4-6.2-1.8-9.3-3.2-12.2-5.6-3.4-2.7-5.6-6.8 0.9-8.6 6.6-1.7 18.4 1 31.4 1.6z"/><path class="k" d="m618.2 564v9.7c0 0-1.3 3.2-6.9 3.4-3.3 0.2-5.8-1.4-7.3-3.5v-9.6z"/><path class="b" d="m599.7 500.7c-0.1 12 3.4 67.6 3.4 67.6 0 0 4.9 6.2 15.6 0l3.7-61.7z"/><path class="c" d="m589.1 591.1c0.7 0.8 0.8 2.9 1.5 5.6 0.7 2.8 0.9 4.9 0.4 6.3-0.4 1.3-3.4 4.4-7 5.5-3.6 1.1-8.1 0.2-12.4-2.4-4.4-2.6-7.6-5.7-13.8-7.5-6.2-1.8-9.2-3.2-12.2-5.5-3.4-2.8-5.6-6.9 1-8.6 6.5-1.8 18.4 0.9 31.3 1.5z"/><path class="k" d="m589.1 583v9.7c0 0-1.3 3.2-6.8 3.4-3.4 0.1-5.8-1.4-7.4-3.5v-9.6z"/><path class="b" d="m570.6 519.6c0 12.1 3.4 67.6 3.4 67.6 0 0 4.9 6.3 15.6 0l3.7-61.6z"/><path class="d" d="m608.1 634q0 0.7 0.1 1.3 0.4 1.3 1.3 1.9c0.9 0.6 2.3 0.6 3.8-0.3 2.8-1.6 5.1-5.6 5.1-8.9 0-1.6-0.6-2.7-1.4-3.3l-0.3-0.1q-0.9-0.5-2.2-0.1-0.6 0.2-1.2 0.5c-2.9 1.7-5.2 5.7-5.2 9z"/><path class="c" d="m609.5 622.9q1.2-0.7 2.3-0.7 0.8 0 1.5 0.4l0.1 0.1 3.3 1.9q-0.9-0.5-2.2-0.1-0.6 0.2-1.2 0.5c-2.9 1.7-5.2 5.7-5.2 9q0 0.7 0.1 1.3 0.4 1.3 1.3 1.9l-3.5-2-0.3-0.2q0 0-0.1 0c-0.8-0.6-1.3-1.7-1.3-3.2 0-3.3 2.4-7.3 5.2-8.9z"/><path class="d" d="m663.9 603.9q0 0.8 0.2 1.4 0.3 1.3 1.2 1.9c1 0.6 2.3 0.6 3.8-0.3 2.8-1.6 5.2-5.6 5.2-8.9 0-1.6-0.6-2.7-1.5-3.3l-0.2-0.2q-1-0.4-2.2 0-0.7 0.1-1.3 0.5c-2.9 1.7-5.2 5.6-5.2 8.9z"/><path class="c" d="m665.3 592.8q1.3-0.7 2.3-0.7 0.9 0.1 1.5 0.5h0.1l3.4 1.9q-1-0.4-2.2 0-0.7 0.1-1.3 0.5c-2.9 1.7-5.2 5.6-5.2 8.9q0 0.8 0.2 1.4 0.3 1.3 1.2 1.9l-3.4-2h-0.1l-0.3-0.2q0 0-0.1-0.1c-0.7-0.5-1.2-1.6-1.2-3.1 0-3.3 2.3-7.3 5.1-9z"/><path class="d" d="m654 645.7q0 0.7-0.2 1.3-0.3 1.3-1.2 1.9v0.1c-1 0.6-2.3 0.5-3.8-0.3-2.8-1.7-5.2-5.7-5.2-9 0-1.6 0.6-2.7 1.5-3.2v-0.1l0.2-0.1q1-0.4 2.2-0.1 0.7 0.2 1.3 0.6c2.9 1.6 5.2 5.6 5.2 8.9z"/><path class="c" d="m652.6 634.6q-1.3-0.7-2.3-0.7-0.8 0-1.5 0.4l-0.1 0.1-3.4 1.9q1-0.4 2.2-0.1 0.7 0.2 1.3 0.6c2.9 1.6 5.2 5.6 5.2 8.9q0 0.7-0.2 1.3-0.3 1.3-1.2 1.9l3.4-1.9 0.1-0.1 0.3-0.2q0 0 0.1 0c0.7-0.6 1.2-1.7 1.2-3.2 0-3.3-2.3-7.3-5.1-8.9z"/><path class="d" d="m690.2 627.9q0 0.8-0.1 1.4-0.4 1.3-1.2 1.9h-0.1c-0.9 0.6-2.3 0.6-3.7-0.3-2.9-1.6-5.2-5.6-5.2-8.9 0-1.6 0.6-2.7 1.4-3.3l0.3-0.2q0.9-0.4 2.2 0 0.6 0.1 1.3 0.5c2.8 1.6 5.1 5.6 5.1 8.9z"/><path class="c" d="m688.8 616.8q-1.2-0.7-2.3-0.7-0.8 0-1.4 0.4l-0.2 0.1-3.3 1.9q0.9-0.4 2.2 0 0.6 0.1 1.3 0.5c2.8 1.6 5.1 5.6 5.1 8.9q0 0.8-0.1 1.4-0.4 1.3-1.2 1.9l3.4-2 0.3-0.2q0.1 0 0.1-0.1c0.8-0.5 1.3-1.7 1.3-3.1 0-3.3-2.3-7.3-5.2-9z"/><path class="d" d="m620.2 606.2q-0.1 0.7-0.2 1.3-0.3 1.3-1.2 1.9h-0.1c-0.9 0.6-2.2 0.6-3.7-0.3-2.9-1.6-5.2-5.6-5.2-8.9 0-1.6 0.6-2.7 1.5-3.3l0.2-0.1q1-0.5 2.2-0.1 0.6 0.2 1.3 0.5c2.8 1.7 5.2 5.7 5.2 9z"/><path class="c" d="m618.7 595.1q-1.2-0.7-2.3-0.7-0.8 0-1.4 0.4h-0.1l-3.4 2q1-0.5 2.2-0.1 0.6 0.2 1.3 0.5c2.8 1.7 5.2 5.7 5.2 9q-0.1 0.7-0.2 1.3-0.3 1.3-1.2 1.9l3.4-2h0.1l0.3-0.2c0.8-0.6 1.3-1.7 1.3-3.2 0-3.3-2.3-7.3-5.2-8.9z"/><path class="g" d="m651 595.2l18.4-5.2v3.9l-18.4 10.6z"/><path class="f" d="m651 595.2l-1.9-1.1 18.5-5 1.8 0.9z"/><path class="g" d="m643 607l-26.1-9.8v-4l26.1 2.4z"/><path class="f" d="m616.9 593.2l1.9-0.5 25.7 1.7-1.5 1.2z"/><path class="f" d="m642.3 605.7c0 3 9.1 3 9.1 0v-25.8h-9.1z"/><path class="f" d="m649.1 599l5 32.5h-3.4l-4.7-32.5c1.2 0.3 2.2 0.3 3.1 0z"/><path class="g" d="m646 599v8.9l4.7 29v-5.4z"/><path class="i" d="m650.7 631.5h3.4v5.4h-3.4z"/><path class="g" d="m644.5 607.7l-33.7 17.6v-5.4l33.7-20.9z"/><path class="f" d="m644.5 599c-0.8-0.1-1.6-0.4-2.2-0.9l-33.6 20.4 2.1 1.4z"/><path class="i" d="m610.8 625.3v-5.4l-2.1-1.4v5.2z"/><path class="g" d="m686.9 619.1l-36-12.3v-8.1l36 14.9z"/><path class="f" d="m650.9 598.7c0.3-0.1 0.5-0.6 0.5-1.4l36.6 15.9-1.1 0.4z"/><path class="i" d="m688 613.2v5.3l-1.1 0.6v-5.5z"/><path class="l" d="m654.5 534.9h-15.4v53.3c0 4.4 15.4 4.4 15.4 0z"/><path class="e" d="m587.6 539.7c0-2.8 1.4-5.3 3.8-6.7l53.9-31.1c2.3-1.4 5.3-1.4 7.7 0l53.8 31.1c2.4 1.4 3.8 3.9 3.8 6.7l-61.5 35.5z"/><path class="f" d="m587.6 539.7v4.4l57.7 33.3c1.2 0.7 2.5 1.1 3.8 1.1 1.3 0 2.6-0.4 3.8-1.1l57.7-33.3v-4.4l-57.7 33.3c-1.2 0.7-2.5 1-3.8 1-1.3 0-2.6-0.3-3.8-1z"/><path class="g" d="m587.6 539.7v4.4l57.7 33.3c1.2 0.7 2.5 1.1 3.8 1.1v-4.5c-1.3 0-2.6-0.3-3.8-1z"/><path class="m" d="m587.6 539.7c0-1.3 0.3-2.4 0.8-3.5l58.2 33.6c1.5 0.9 3.5 0.9 5 0l58.2-33.6c0.5 1.1 0.8 2.3 0.8 3.5l-61.5 35.5z"/><path class="c" d="m692 515.4c0 0-49.9-15-58.6-17.4-8.7-2.4-25.4-6.4-30.2-4.2-4.9 2.2-7.4 4.7-7.8 11.7-0.1 1.3 0 7.8 0 7.8 0 0 24.1 7.4 43.9 7.4 19.8 0 52.7-5.3 52.7-5.3z"/><path class="k" d="m649.3 430.5l3.3 18 18.4 2.1-2.6-24.7z"/><path class="n" d="m632.2 416.3c0 0-2.4 7.3-1.7 7.8 0.7 0.4 4 0.2 4 0.2z"/><path class="k" d="m636.9 392.6c-3.2 3.3-6.2 8.9-4.8 23 1.4 15.4 6 19.6 8 20.5 2.9 1.3 12.8-1 16-3.4 4-3 11.6-10.4 13.6-19.5 2.3-10.7-0.6-22.9-8.5-25.3-11-3.5-21.6 1.9-24.3 4.7z"/><path class="c" d="m629.7 400.2c1.9 3.5 5.4 12.3 15.5 14.8 0 0 0.5-6 5.5-6 5-0.1 6.7 6 4.2 10.3-2.5 4.3-5.6 3.3-5.6 3.3 0 0 0.5 8.4 6.6 11.5 0 0 7.3 3.3 14-1 3-1.9 6.5-10.2 8.2-16.8 3.8-14.1 3.2-24.9-5.8-27.1-1.9-5.9-4.9-7.8-10.6-8.2-12.1-0.8-20 8.2-30 8.2-5.3 0-4.1 6.9-2 11z"/><path class="c" d="m672.1 390.2l6-2.6c-0.7-1.7-2.6-2.5-4.3-1.8-1.7 0.7-2.4 2.7-1.7 4.4z"/><path class="b" d="m691.9 509.4c0 9.6 0.9 19.6-3.1 26.6-3.9 6.8-22.1 21.5-42.5 18.1-13.4-2.2-56.5-18.7-56.5-18.7 0 0-19-7-19.1-12 0-1.3-0.2-2.5-0.1-3.9 0.4-6.6 3.1-13.8 17.1-13.5 15.2 0.4 60.5 7.8 60.5 7.8z"/><path class="o" d="m688.3 447.4c-1.6-5-8-10.5-14.3-9.3-11.7 2.2-24.5 6-27.9 7 0 0 1.5 25.7-11.7 33.5l-1.7 32.8c0 0 3.2 6.6 8.3 9.8 5.4 3.4 13 8.6 26.8 7.5 16.3-1.3 24.2-13.3 24.2-13.3 0 0-0.1-31-0.7-44.8-0.4-11.8-1.8-19.8-3-23.2z"/><path class="b" d="m634.1 485c0 0 6.9-7.2 9.3-15.5 0 0 0 12.2-9.5 18.7z"/><path class="k" d="m646.1 445.1c-7.2 2.1-11.6 2.5-19.6 14.8-7.9 12.3-25.4 36.6-27.1 39.5-2.4 4.1-3.5 8.9-1.4 12.6 1.9 3.5 7.6 2 15.5-4.9 7.6-6.7 22.8-25.7 22.8-25.7 0 0 7.9-17.3 9.8-36.3z"/><path class="o" d="m646.1 445.1c0 0-6.4 1.3-10.4 3.3-1.3 0.6-5.3 2.1-7.9 6.5-5.6 9.2-13.6 22.4-13.6 22.4 0 0-1.3 11.5 12.6 15.5l7.4-8c3.1-3.3 5.6-7 7.4-11 3.2-6.9 6.8-17.9 4.5-28.7z"/><path class="k" d="m600.4 513.8c-6.6-0.8-21.6-21.3-26.6-27.9-5-6.5-9.1-10.3-13.6-12.8-4.5-2.5-8.4-6.4-9.6-14.2-1.2-7.3 5.6-12 11.2-4.6 3.5 4.6 7.1 7.6 7.3 6.8 0.2-0.8-1.1-4-1.1-7.4 0.1-4.1 2.9-1.4 3.8 0 0.8 1.5 1.8 3.8 3 6.8 1.4 3.6 0.8 7.3 2.5 9.8 1.8 2.5 25 24.7 25 24.7z"/><path class="e" d="m713.6 450.8v68.8l-54.6 31.6v-68.7z"/><path class="m" d="m713.6 450.8v68.8l-54.6 31.6v-68.7z"/><path class="e" d="m654.1 548.4l4.9 2.8c0 0 0-54.2 0-63 0-3 0.9-4.5 2.1-5.1 4.2-2.6 9.7 2.8 9.7 2.8v-4.5l52.7-30.6c-4.9-2.8-8.2-4.7-18.2 1-10 5.6-39.4 22.6-44 25.5-3.8 2.3-7.2 5-7.2 11.2 0 10.8 0 59.9 0 59.9z"/><path class="p" d="m661.3 477.3c4.6-3 34-19.9 44-25.5 10-5.7 13.3-3.8 18.2-1l-52.7 30.6c-1.8-2-5.4-4.2-9.5-4.1z"/><path class="e" d="m670.8 485.9l52.7-30.6v-4.5l-52.7 30.6z"/><path class="q" d="m670.8 485.9l52.7-30.6v-4.5l-52.7 30.6z"/><path class="r" d="m671.6 573.1q1.2 0 2.4-0.6c1.5-0.9 2.4-2.5 2.4-4.2v-36c0-1.4-1.1-2.5-2.5-2.5-1.3 0-2.4 1.1-2.4 2.5v35.8l-3.9-2.2c-1.2-0.7-2.7-0.3-3.3 0.9-0.7 1.1-0.3 2.6 0.8 3.3l4.1 2.4c0.7 0.4 1.6 0.6 2.4 0.6z"/><path class="r" d="m701.4 555.7q1.4 0 2.4-0.6c1.5-0.9 2.4-2.4 2.4-4.2v-36c0-1.4-1.1-2.5-2.4-2.5-1.4 0-2.5 1.1-2.5 2.5v35.8l-3.9-2.2c-1.1-0.7-2.6-0.3-3.3 0.9-0.7 1.2-0.3 2.6 0.9 3.3l4 2.4q1.2 0.6 2.4 0.6z"/></svg>