<svg version="1.2" xmlns="http://www.w3.org/2000/svg" viewBox="0 0 766 672" width="766" height="672"><style>.a{fill:#fff}.b{fill:#292953}.c{fill:#c4e4e6}.d{fill:#0f766e}.e{fill:#ccfbfe}.f{fill:#70c4bc}.g{fill:#afdbd5}.h{fill:#115e59}.i{fill:#134e4a}.j{fill:#0d9488}.k{fill:#7770fa}</style><path class="a" d="m244 37l49.9 383c3.1 23.2-3.5 44.2-16.7 59.5-13.2 15.3-54.8 24.7-77.9 24.7h-41.7q-1.1 0-2.2 0c-19.1-0.5-37.7-7.4-53.2-18.7q-3.8-2.8-7.4-6c-17.3-15.3-29.6-36.3-32.7-59.5l-49.9-383q-0.1-0.6-0.2-1.2v-0.3h231.8q0.1 0.8 0.2 1.5z"/><path class="b" d="m221 506.2h-63.4q-1.1 0-2.2 0c-19.1-0.5-37.9-7.1-54.3-19.1-2.6-1.9-5.1-3.9-7.6-6.1-18.5-16.3-30.3-37.8-33.4-60.7l-49.9-383q-0.1-0.7-0.2-1.4v-0.1c-0.1-1.1 0.6-2.1 1.7-2.2 1.1-0.2 2.1 0.6 2.3 1.7v0.2q0.1 0.7 0.2 1.3l49.9 383c2.9 21.9 14.3 42.6 32 58.2 2.4 2.1 4.9 4.1 7.3 5.8 15.8 11.6 33.8 17.9 52.1 18.4q1 0 2.1 0h63.4c21.9 0 41.3-8.5 54.7-24 13.4-15.5 19.2-36.1 16.3-57.9l-50-383q-0.1-0.7-0.2-1.4c-0.2-1.1 0.6-2.1 1.7-2.3 1.1-0.2 2.1 0.5 2.3 1.6q0.1 0.8 0.2 1.6l49.9 383c3.1 22.9-3 44.6-17.2 61-14.2 16.4-34.7 25.4-57.7 25.4z"/><path class="a" d="m273.4 386.4h-194.6l-8.2-60.7-3.9-29.4-19.9-147h194.5l19.2 142 4 29.4z"/><path class="c" d="m229.4 346.1h-147.8l-1-7.2h147.8z"/><path class="c" d="m256.7 323.2h-178.2l-0.9-7.2h178.1z"/><path class="d" d="m259.9 293.8h-192.6l-10-73.7-9.5-70.8h192.6l8.7 64.1z"/><path fill-rule="evenodd" class="e" d="m232.8 219.9c2.9 21.2-12 38.4-33.2 38.4-1.6 0-3.3-0.1-4.9-0.3-0.1 0-0.2 0-0.3-0.1-3.9-0.5-8-1.7-12-3.4-7.1-3-16.8-9-26.8-20.5-8.7 14.8-19.7 20.8-28 23.1q-4.7 1.2-9.5 1.2c-21.2 0-40.8-17.2-43.7-38.4-2.8-21.2 12.1-38.5 33.3-38.5 1.6 0 3.3 0.2 4.9 0.3 0.1 0 0.1 0.1 0.2 0.1 3.9 0.6 8 1.7 12.1 3.5 7 3 16.8 8.9 26.8 20.5 8.7-14.9 19.7-20.8 28-23.1 3.1-0.9 6.3-1.3 9.5-1.3 21.2 0 40.8 17.3 43.6 38.5zm-38.1 23.3c14.4 1.8 25.1-9.4 23.2-23.3-1.7-13-13.7-23.6-26.7-23.6-2 0-3.9 0.3-5.8 0.8-6.7 1.9-16.1 7.4-23.3 22.7 9.4 12.7 18.4 18.5 24.6 21.1 3.4 1.5 6.2 2.1 7.9 2.3zm-72.8-0.6c6.8-1.8 16.1-7.3 23.3-22.7-9.4-12.6-18.4-18.4-24.5-21-3.5-1.5-6.3-2.1-8-2.4q-0.1 0-0.1 0c-0.9-0.1-1.9-0.2-2.8-0.2-13 0-22.1 10.6-20.4 23.6 1.7 13 13.7 23.5 26.7 23.5q3 0 5.8-0.8z"/><path fill-rule="evenodd" class="b" d="m273.4 388.4h-194.6c-1 0-1.8-0.8-1.9-1.8l-32.1-237.1c-0.1-0.5 0.1-1.1 0.5-1.6q0.6-0.6 1.5-0.6h194.5c1 0 1.9 0.7 2 1.7l32.1 237.1c0.1 0.6-0.1 1.2-0.5 1.6-0.4 0.4-0.9 0.7-1.5 0.7zm-192.8-4h190.5l-31.5-233.1h-190.5z"/><path class="f" d="m239.1 132.1h-194.2l-5-36.6-4.7-35.1h194.2l4.3 31.8z"/><path fill-rule="evenodd" class="b" d="m239.1 134.1h-194.2c-1 0-1.8-0.7-2-1.7l-9.7-71.7c-0.1-0.6 0.1-1.2 0.5-1.6 0.3-0.5 0.9-0.7 1.5-0.7h194.2c1 0 1.8 0.7 1.9 1.7l9.8 71.7c0.1 0.6-0.1 1.2-0.5 1.6-0.4 0.5-0.9 0.7-1.5 0.7zm-192.4-4h190.1l-9.2-67.7h-190.1z"/><path class="g" d="m81.6 440.4l-4-29.8h194l1.5 11.5c3 22 13.2 43.4 29.5 60.3 15.6 16.2 29.9 21.6 30.8 21.8q0.1 0 0.1 0h-174.5c-19.2-0.4-37.7-7.4-53.2-18.7q-4.3-3.1-8.2-6.7 0 0-0.1 0c-8.3-11.2-14-24.4-15.9-38.4z"/><path fill-rule="evenodd" class="b" d="m333.5 506.2h-174.5c-19.1-0.4-37.9-7.1-54.4-19.1-2.8-2.1-5.6-4.4-8.4-6.8q0-0.1-0.1-0.2c-0.1 0-0.1-0.1-0.2-0.1-8.8-11.8-14.4-25.4-16.3-39.3l-4-29.8c-0.1-0.6 0.1-1.2 0.5-1.6 0.3-0.4 0.9-0.7 1.5-0.7h194c1 0 1.8 0.8 2 1.8l1.5 11.7c2.6 19.5 10.8 37.8 23.5 53 17.6 21.1 35.1 27.1 35.3 27.2q0.1 0 0.2 0c0.8 0.3 1.4 1 1.4 1.9 0 1.1-0.9 2-2 2zm-234.5-28.7c2.6 2.3 5.3 4.4 8 6.4 15.8 11.5 33.8 17.9 52 18.3h165.5c-7.2-3.9-18-11.4-29-24.5-13.2-15.8-21.6-34.9-24.3-55l-1.4-10.1h-189.9l3.6 27.6c1.8 13.1 7.2 26 15.5 37.3z"/><path class="a" d="m489.6 391.6l3.8 28.4c1.4 10.6 0.8 20.8-1.6 30.2q0 0.2-0.1 0.4c-2.8 10.9-8 20.7-15.1 28.9q-2.7 3.2-5.8 6-3.1 2.8-6.5 5.2c-12 8.6-27 13.5-43.8 13.5h-221.2c23.1 0 42.9-9.4 56.1-24.7 13.2-15.3 19.9-36.3 16.8-59.5l-37.9-281.9q-0.1-0.7-0.2-1.5h0.3l-3.8-28.4c-3.1-23.2 3.5-44.2 16.8-59.5q2.7-3.1 5.8-5.9c12.4-11.3 29.1-18.3 48.1-18.8 22.5 0.5 44.1 9.9 61 24.7 14.3 12.6 25.2 29.1 30.3 47.5q1.1 4.1 1.9 8.3 0.3 1.8 0.5 3.7l37.9 281.9q0.1 0.7 0.2 1.5z"/><path fill-rule="evenodd" class="b" d="m420.5 506.2h-221.2c-1.1 0-2-0.9-2-2 0-1.1 0.9-2 2-2 21.8 0 41.2-8.5 54.6-24 13.4-15.5 19.2-36.1 16.3-57.9l-37.9-281.9c-0.1-0.5-0.1-1-0.2-1.4-0.1-0.5 0-0.9 0.2-1.3l-3.7-27.2c-3-23 3.1-44.7 17.3-61.1 1.8-2.2 3.9-4.2 5.9-6.1 13.4-12.1 30.5-18.8 49.5-19.3 22.3 0.5 44.4 9.4 62.3 25.2 15.1 13.3 25.8 30.1 30.9 48.5 0.8 2.9 1.4 5.7 1.9 8.5q0.4 1.8 0.6 3.7l37.9 281.7h54.7c1 0 1.8 0.7 2 1.7l3.8 28.5c1.4 10.6 0.9 20.9-1.6 30.7q0 0.3-0.1 0.5c-2.9 11.3-8.1 21.2-15.5 29.8-1.9 2.2-3.9 4.2-6 6.1-2.2 2-4.5 3.8-6.7 5.4-12.8 9.1-28.3 13.9-45 13.9zm-195.8-4h195.8c15.8 0 30.6-4.5 42.7-13.2q3.1-2.2 6.3-5c2-1.8 3.9-3.8 5.6-5.8 7-8.1 12-17.5 14.7-28.1l2 0.3-1.9-0.5c0-0.1 0-0.1 0-0.2 2.4-9.4 2.9-19.3 1.5-29.4l-3.6-26.7h-54.7c-1 0-1.9-0.8-2-1.8q-0.1-0.7-0.2-1.4l-37.8-281.9q-0.3-1.8-0.6-3.6c-0.5-2.7-1.1-5.3-1.9-8.1-4.9-17.7-15.1-33.8-29.6-46.6-17.2-15.1-38.4-23.7-59.7-24.2-18 0.5-34.2 6.8-46.8 18.3-1.9 1.7-3.8 3.7-5.6 5.7-13.4 15.6-19.2 36.1-16.3 57.9l3.8 28.5q0.1 0.6-0.2 1.2 0 0.1 0.1 0.2l37.8 282c3.1 22.9-3 44.6-17.2 61-8.7 10-19.7 17.3-32.2 21.4z"/><path class="a" d="m475.3 333.4h-194.5l-4.4-32.7-3.2-22.9-6.1-45.8-18.4-135.7h194.6l16.7 123.5 6.2 45.8 4 30.1z"/><path class="g" d="m416.2 212h-107.5l-6.7-49.9-7.8-57.6h107.4l7.4 54.7z"/><path class="c" d="m462.1 290.7l1 7.2h-178.1l-1-7.2z"/><path class="c" d="m459.1 267.8l0.9 7.2h-178.1l-1-7.2z"/><path class="c" d="m452.9 222l0.9 7.2h-178.1l-1-7.2z"/><path class="c" d="m425.6 244.9l1 7.2h-147.8l-1-7.2z"/><path class="c" d="m378.3 313.6l1 7.2h-91.2l-1-7.2z"/><path fill-rule="evenodd" class="a" d="m404.4 160.6c1.8 13.1-7.4 23.8-20.5 23.8-1 0-2-0.1-3-0.2-0.1 0-0.1 0-0.2-0.1q-3.6-0.4-7.5-2.1c-4.3-1.8-10.3-5.5-16.5-12.7-5.4 9.2-12.2 12.9-17.3 14.3-1.9 0.5-3.9 0.8-5.9 0.8-13.1 0-25.1-10.7-26.9-23.8-1.8-13 7.4-23.7 20.5-23.7 1 0 2.1 0.1 3.1 0.2 0 0 0 0 0.1 0 2.4 0.4 4.9 1.1 7.5 2.2 4.3 1.8 10.3 5.5 16.5 12.6 5.4-9.1 12.1-12.8 17.3-14.2q2.9-0.8 5.9-0.8c13.1 0 25.1 10.7 26.9 23.7zm-23.5 14.4c8.9 1.1 15.5-5.8 14.3-14.4-1.1-8-8.5-14.5-16.5-14.5-1.2 0-2.4 0.2-3.6 0.5-4.1 1.1-9.9 4.5-14.3 14 5.7 7.8 11.3 11.4 15.1 13 2.1 0.9 3.8 1.3 4.9 1.4zm-45-0.3c4.2-1.2 10-4.6 14.4-14-5.8-7.9-11.3-11.4-15.1-13.1-2.2-0.9-3.9-1.2-5-1.4q-0.9-0.1-1.8-0.1c-8 0-13.6 6.5-12.5 14.5 1 8.1 8.4 14.6 16.5 14.6q1.8 0 3.5-0.5z"/><path fill-rule="evenodd" class="b" d="m475.3 335.4h-194.5c-1 0-1.9-0.8-2-1.8l-32.1-237.1c-0.1-0.5 0.1-1.1 0.5-1.6q0.6-0.6 1.5-0.6h194.6c1 0 1.8 0.7 1.9 1.7l32.1 237.1c0.1 0.6-0.1 1.2-0.5 1.6-0.3 0.4-0.9 0.7-1.5 0.7zm-192.8-4h190.5l-31.5-233.1h-190.5z"/><path class="h" d="m482.3 440.4l-4-29.8h-194l1.5 11.5c3 22-1.5 43.4-13.2 60.3-11.3 16.2-24.1 21.6-25 21.8q-0.1 0-0.1 0h174.5c19.1-0.4 35.7-7.4 48.2-18.7q3.4-3.1 6.4-6.7c5.4-11.2 7.6-24.4 5.7-38.4z"/><path fill-rule="evenodd" class="b" d="m247.5 506.2c-1.1 0-2-0.9-2-2 0-0.7 0.5-1.4 1.1-1.8q0.2-0.1 0.5-0.1c0.1-0.1 15.7-5.8 27.6-26.9 8.6-15.1 11.8-33.4 9.2-52.7l-1.6-11.8c-0.1-0.6 0.1-1.2 0.5-1.6 0.3-0.4 0.9-0.7 1.5-0.7h194c1 0 1.8 0.8 2 1.8l4 29.8c1.8 13.9-0.2 27.6-5.9 39.5q0 0-0.1 0.1c0 0.1-0.1 0.2-0.2 0.3q-3.2 3.8-6.6 6.9c-13.3 12.1-30.4 18.8-49.5 19.2zm8.1-4h166.4c18-0.4 34.2-6.7 46.8-18.2 2.2-1.9 4.2-4 6.1-6.3 5.3-11 7.2-23.9 5.4-37l-3.7-28.1h-190l1.3 9.5c2.7 20.3-0.7 39.4-9.7 55.3-7.3 12.9-16.2 20.7-22.6 24.8z"/><path class="b" d="m247.5 506.2c-1.1 0-2-0.9-2-2 0-0.7 0.5-1.4 1.1-1.7 0.7-0.4 1.6-0.4 2.3 0.2 0.8 0.8 0.9 2 0.1 2.8-0.3 0.5-0.9 0.7-1.5 0.7z"/><path class="g" d="m417.3 375.2l-17 25.3-23.9-25.3h8.8l-3.9-29.1h23.3l3.9 29.1z"/><path class="g" d="m320.8 375.2l-17.1 25.3-23.8-25.3h8.8l-3.9-29.1h23.3l3.9 29.1z"/><path class="g" d="m368.6 375.2l-17.1 25.3-23.9-25.3h8.8l-3.9-29.1h23.3l3.9 29.1z"/><path fill-rule="evenodd" class="b" d="m610.6 106.3l65.3 486.1c1.1 8.8-5 15.9-13.8 15.9h-240.8c-8.8 0-16.9-7.1-18.1-15.9l-65.3-486.1c-1.2-8.8 5-16 13.8-16h240.8c8.8 0 16.9 7.2 18.1 16zm54.4 486.1l-65.3-486.1c-0.4-2.8-3-5.1-5.7-5.1h-24.2c-3.6 0-6.8 1.3-9.2 3.5-2.3 2.2-3.8 5.2-4 8.8-0.4 7.1-6 12.2-13.2 12.2h-133.1c-3.6 0-7.2-1.3-10.1-3.4-2.9-2.2-5.3-5.3-6.4-8.8-2.3-7.1-9.3-12.3-16.5-12.3h-24.1c-2.8 0-4.8 2.3-4.4 5.1l65.3 486.1c0.4 2.7 3 5 5.7 5h240.8c2.8 0 4.8-2.2 4.4-5zm-137.8-481.9c-0.5-3.5-3.8-6.4-7.2-6.4h-92.1c-1.7 0-3.2 0.8-4.2 1.9-1 1.2-1.5 2.8-1.3 4.5 0.5 3.5 3.8 6.4 7.2 6.4h92.1c1.7 0 3.2-0.8 4.2-1.9 1-1.1 1.5-2.8 1.3-4.5z"/><path class="g" d="m599.7 106.3l65.3 486.1c0.4 2.8-1.6 5-4.4 5h-240.8c-2.7 0-5.3-2.3-5.7-5l-65.3-486.1c-0.4-2.8 1.6-5.1 4.4-5.1h24.1c7.2 0 14.2 5.2 16.5 12.3 1.1 3.5 3.5 6.6 6.4 8.8 2.9 2.1 6.5 3.4 10.1 3.4h133.1c7.2 0 12.8-5.1 13.2-12.2 0.2-3.6 1.7-6.6 4-8.8 2.4-2.2 5.6-3.5 9.2-3.5h24.2c2.7 0 5.3 2.3 5.7 5.1z"/><path class="g" d="m520 104.1c3.4 0 6.7 2.9 7.2 6.4 0.2 1.7-0.3 3.4-1.3 4.5-1 1.1-2.5 1.9-4.2 1.9h-92.1c-3.4 0-6.7-2.9-7.2-6.4-0.2-1.7 0.3-3.3 1.3-4.5 1-1.1 2.5-1.9 4.2-1.9z"/><path fill-rule="evenodd" class="b" d="m662.1 610.3h-240.8c-9.8 0-18.7-7.9-20.1-17.6l-65.3-486.2c-0.6-4.8 0.7-9.4 3.7-12.9 3-3.4 7.3-5.3 12.1-5.3h240.8c9.7 0 18.7 8 20 17.7l65.4 486.1c0.6 4.9-0.7 9.5-3.7 12.9-3 3.4-7.3 5.3-12.1 5.3zm-310.4-518c-3.6 0-6.9 1.4-9.1 4-2.2 2.5-3.2 6-2.7 9.7l65.3 486.1c1.1 7.9 8.3 14.2 16.1 14.2h240.8c3.6 0 6.8-1.4 9.1-3.9 2.2-2.6 3.2-6 2.7-9.7l-65.3-486.2c-1.1-7.8-8.3-14.2-16.1-14.2zm308.9 507.1h-240.8c-3.7 0-7.2-3-7.7-6.7l-65.3-486.2c-0.2-1.9 0.3-3.7 1.5-5.1 1.2-1.4 3-2.2 4.9-2.2h24.1c8.1 0 15.8 5.8 18.4 13.7 1 3 3 5.8 5.7 7.8 2.7 1.9 5.8 3 8.9 3h133.1c6.1 0 10.8-4.3 11.2-10.3 0.2-4 1.9-7.6 4.7-10.2 2.7-2.6 6.4-4 10.5-4h24.2c3.7 0 7.2 3.1 7.7 6.8l65.3 486.1c0.2 1.9-0.3 3.8-1.5 5.2-1.2 1.4-3 2.1-4.9 2.1zm-307.4-496.2c-0.8 0-1.4 0.3-1.9 0.8-0.4 0.5-0.6 1.2-0.5 2l65.3 486.1c0.2 1.8 2 3.3 3.7 3.3h240.8c0.8 0 1.4-0.2 1.9-0.7 0.4-0.6 0.6-1.3 0.5-2l-65.3-486.2c-0.3-1.8-2-3.3-3.7-3.3h-24.2c-3 0-5.8 1.1-7.8 2.9-2 1.9-3.2 4.6-3.4 7.5-0.5 8.2-6.9 14.1-15.2 14.1h-133.1c-3.9 0-7.9-1.3-11.3-3.8-3.3-2.5-5.9-6-7.1-9.8-2.1-6.3-8.2-10.9-14.6-10.9zm168.5 15.7h-92c-4.5 0-8.6-3.7-9.2-8.1-0.3-2.3 0.3-4.4 1.7-6.1 1.4-1.6 3.5-2.6 5.8-2.6h92c4.5 0 8.6 3.7 9.2 8.1 0.3 2.3-0.3 4.5-1.7 6.1-1.4 1.6-3.5 2.6-5.8 2.6zm-93.7-12.8c-1.1 0-2.1 0.5-2.7 1.2-0.7 0.8-1 1.8-0.8 2.9 0.3 2.5 2.7 4.7 5.2 4.7h92c1.1 0 2.1-0.5 2.7-1.2 0.7-0.8 1-1.8 0.8-2.9-0.3-2.5-2.7-4.7-5.2-4.7z"/><path fill-rule="evenodd" class="b" d="m660.6 599.4h-240.8c-3.7 0-7.2-3-7.7-6.7l-65.3-486.2c-0.2-1.9 0.3-3.7 1.5-5.1 1.2-1.4 3-2.2 4.9-2.2h24.1c8.1 0 15.8 5.8 18.4 13.7 1 3 3 5.8 5.7 7.8 2.7 1.9 5.8 3 8.9 3h133.1c6.1 0 10.8-4.3 11.2-10.3 0.2-4 1.9-7.6 4.7-10.2 2.7-2.6 6.4-4 10.5-4h24.2c3.7 0 7.2 3.1 7.7 6.8l65.3 486.1c0.2 1.9-0.3 3.8-1.5 5.2-1.2 1.4-3 2.1-4.9 2.1zm-307.4-496.2c-0.8 0-1.4 0.3-1.9 0.8-0.4 0.5-0.6 1.2-0.5 2l65.3 486.1c0.2 1.8 2 3.3 3.7 3.3h240.8c0.8 0 1.4-0.2 1.9-0.7 0.4-0.6 0.6-1.3 0.5-2l-65.3-486.2c-0.3-1.8-2-3.3-3.7-3.3h-24.2c-3 0-5.8 1.1-7.8 2.9-2 1.9-3.2 4.6-3.4 7.5-0.5 8.2-6.9 14.1-15.2 14.1h-133.1c-3.9 0-7.9-1.3-11.3-3.8-3.3-2.5-5.9-6-7.1-9.8-2.1-6.3-8.2-10.9-14.6-10.9z"/><path fill-rule="evenodd" class="b" d="m521.7 118.9h-92.1c-4.4 0-8.6-3.7-9.2-8.1-0.3-2.3 0.4-4.4 1.8-6.1 1.4-1.6 3.5-2.6 5.7-2.6h92.1c4.4 0 8.6 3.7 9.2 8.1 0.3 2.3-0.4 4.5-1.8 6.1-1.4 1.6-3.5 2.6-5.7 2.6zm-93.8-12.8c-1.1 0-2 0.5-2.7 1.2-0.7 0.8-0.9 1.8-0.8 2.9 0.3 2.5 2.7 4.7 5.2 4.7h92.1c1.1 0 2-0.5 2.7-1.2 0.7-0.8 0.9-1.8 0.8-2.9-0.3-2.5-2.7-4.7-5.2-4.7z"/><path class="a" d="m188.8 419.2h-0.1v-0.2z"/><path class="a" d="m616.3 108.2l58.8 439q0.1 0.6 0.1 1.3l0.1 0.2h-221.3q-0.1-0.8-0.2-1.5l-58.8-439c-3.1-23.2-15.4-44.2-32.7-59.5-16.9-14.8-38.5-24.2-61-24.7q1.1 0 2.2 0h217.3q1.1 0 2.1 0c19.2 0.5 37.8 7.5 53.2 18.8q3.9 2.8 7.5 5.9 0.4 0.4 0.8 0.8c16.9 15.2 28.8 35.9 31.9 58.7z"/><path fill-rule="evenodd" class="b" d="m675.3 550.7h-221.3c-1 0-1.9-0.8-2-1.8q0-0.7-0.1-1.4l-58.8-439c-3-22-14.4-42.6-32.1-58.3-17.2-15.1-38.4-23.7-59.7-24.2-1.1 0-2-0.9-2-2 0-1 0.9-1.9 2-2 0.8 0 1.5 0 2.2 0 0.7 0 218.7 0 219.4 0 19.2 0.5 38 7.1 54.4 19.2 2.6 1.8 5.1 3.9 7.6 6q0.4 0.4 0.9 0.8c17.9 16.2 29.4 37.5 32.5 59.9l58.8 439q0.1 0.7 0.1 1.4v0.1c0.1 0.6-0.1 1.2-0.4 1.6-0.4 0.4-1 0.7-1.5 0.7zm-219.5-4h217.2l-58.7-438.2c-2.9-21.6-14-42-31.2-57.5q-0.5-0.4-0.9-0.8c-2.3-2-4.8-4-7.2-5.8-15.8-11.6-33.9-17.9-52.1-18.4q-1.2 0-2.1 0h-194.8c13.5 4.1 26.4 11.3 37.6 21.2 18.5 16.3 30.4 37.9 33.4 60.7z"/><path class="a" d="m638.7 371.6h-194.6l-8.2-60.6-21.3-158-2.5-18.4h194.5l19.2 142 3 22.2z"/><path class="c" d="m621.9 308.5h-178.1l-1-7.2h178.2z"/><path class="c" d="m594.7 331.4h-147.8l-1-7.2h147.8z"/><path class="c" d="m597.8 354.3h-147.8l-1-7.2h147.8z"/><path class="f" d="m626.1 279.1h-194.4l-19.6-144.5h194.4z"/><path fill-rule="evenodd" class="a" d="m599 214.8c2.9 21.1-12 38.3-33 38.3-1.7 0-3.3-0.1-4.9-0.4q-0.2 0-0.3 0c-3.9-0.5-7.9-1.7-12-3.4-7-3-16.7-8.9-26.6-20.5-8.7 14.8-19.6 20.7-27.9 23q-4.6 1.2-9.5 1.3c-21.1 0-40.5-17.2-43.4-38.3-2.8-21.1 12-38.2 33.1-38.2 1.6 0 3.2 0.1 4.9 0.3 0.1 0 0.1 0 0.2 0 3.9 0.6 8 1.8 12 3.5 7 3 16.7 8.9 26.7 20.4 8.6-14.8 19.6-20.7 27.9-23 3-0.8 6.2-1.2 9.4-1.2 21.1 0 40.6 17.1 43.4 38.2zm-37.9 23.3c14.3 1.7 24.9-9.5 23.1-23.3-1.7-12.9-13.7-23.4-26.6-23.4q-3 0-5.8 0.8c-6.7 1.8-16 7.3-23.1 22.6 9.3 12.6 18.3 18.3 24.4 20.9 3.4 1.5 6.2 2.1 7.9 2.4zm-72.4-0.6c6.7-1.9 16-7.4 23.1-22.6-9.3-12.7-18.3-18.4-24.4-21-3.4-1.5-6.2-2-7.9-2.3q-0.1 0-0.1 0c-0.9-0.1-1.9-0.2-2.9-0.2-12.9 0-21.9 10.5-20.2 23.4 1.7 12.9 13.7 23.4 26.6 23.4q3 0 5.8-0.7z"/><path fill-rule="evenodd" class="b" d="m638.7 373.6h-194.6c-1 0-1.8-0.7-2-1.7l-32-237.1c-0.1-0.5 0.1-1.1 0.5-1.6q0.6-0.6 1.5-0.6h194.5c1.1 0 1.9 0.7 2 1.7l32.1 237.1c0 0.5-0.1 1.1-0.5 1.6q-0.6 0.6-1.5 0.6zm-192.8-4h190.5l-31.5-233h-190.5z"/><path class="i" d="m600.4 87.8l4 29.8h-194l-1.6-11.5c-2.9-21.9-13.1-43.4-29.4-60.3-15.6-16.1-29.9-21.5-30.9-21.7q0-0.1 0-0.1h174.4c19.2 0.5 37.8 7.5 53.2 18.8q4.3 3.1 8.3 6.6 0 0.1 0 0.1c8.4 11.2 14.1 24.3 16 38.3z"/><path fill-rule="evenodd" class="b" d="m604.4 119.6h-194c-1 0-1.9-0.7-2-1.7l-1.6-11.8c-2.6-19.4-10.7-37.7-23.5-52.9-17.6-21.1-35.1-27.2-35.3-27.2q0 0-0.1-0.1c-0.8-0.2-1.4-1-1.4-1.9 0-1.1 0.9-2 2-2h174.4c19.2 0.5 38 7.1 54.4 19.2 2.9 2 5.7 4.3 8.4 6.8q0.1 0 0.2 0.1c0 0.1 0.1 0.1 0.1 0.2 8.8 11.8 14.5 25.4 16.4 39.3l4 29.8c0 0.6-0.1 1.1-0.5 1.6q-0.6 0.6-1.5 0.6zm-192.3-4h190l-3.7-27.5c-1.8-13.2-7.1-26.1-15.5-37.3-2.6-2.3-5.2-4.4-7.9-6.4-15.8-11.6-33.9-17.9-52.1-18.4h-165.4c7.1 4 18 11.5 28.9 24.6 13.2 15.8 21.7 34.8 24.4 55z"/><path class="b" d="m348.5 26.1q-0.4 0-0.9-0.2c-0.7-0.4-1.1-1.1-1.1-1.9 0-1.1 0.9-2 2-2 0.4 0 0.9 0.2 1.3 0.5 0.8 0.8 0.9 2 0.2 2.9-0.4 0.4-0.9 0.7-1.5 0.7z"/><path class="j" d="m659.9 529.7h-194.4l-19.6-144.5h194.4z"/><path fill-rule="evenodd" class="a" d="m632.8 465.4c2.9 21.1-12 38.3-33 38.3-1.6 0-3.3-0.1-4.9-0.4q-0.1 0-0.3 0c-3.8-0.5-7.9-1.7-12-3.4-7-3-16.6-8.9-26.6-20.5-8.7 14.8-19.6 20.7-27.9 23q-4.6 1.2-9.5 1.3c-21.1 0-40.5-17.2-43.4-38.3-2.8-21.1 12-38.2 33.1-38.2 1.6 0 3.3 0.1 4.9 0.3 0.1 0 0.1 0 0.2 0 3.9 0.6 8 1.8 12.1 3.5 6.9 3 16.6 8.9 26.6 20.4 8.7-14.8 19.6-20.7 27.9-23 3-0.8 6.2-1.2 9.4-1.2 21.1 0 40.6 17.1 43.4 38.2zm-37.9 23.3c14.3 1.7 25-9.5 23.1-23.3-1.7-12.9-13.7-23.4-26.6-23.4q-2.9 0-5.7 0.8c-6.8 1.8-16.1 7.3-23.2 22.6 9.3 12.6 18.3 18.3 24.4 20.9 3.4 1.5 6.2 2.1 8 2.4zm-72.5-0.6c6.7-1.9 16-7.4 23.1-22.6-9.3-12.7-18.3-18.4-24.4-21-3.4-1.5-6.2-2-7.9-2.3q-0.1 0 0 0c-1-0.1-2-0.2-2.9-0.2-12.9 0-22 10.5-20.3 23.4 1.8 12.9 13.7 23.4 26.6 23.4q3 0 5.8-0.7z"/><path fill-rule="evenodd" class="b" d="m659.9 531.7h-194.4c-1 0-1.9-0.7-2-1.7l-19.6-144.6c0-0.5 0.1-1.1 0.5-1.6q0.6-0.6 1.5-0.6h194.4c1 0 1.9 0.7 2 1.7l19.6 144.5c0.1 0.6-0.1 1.2-0.5 1.6-0.4 0.5-0.9 0.7-1.5 0.7zm-192.7-4h190.4l-19-140.5h-190.4z"/><filter id="f0"><feFlood flood-color="#ccfbfe" flood-opacity="1" /><feBlend mode="normal" in2="SourceGraphic"/><feComposite in2="SourceAlpha" operator="in" /></filter><g filter="url(#f0)"><path class="k" d="m711.5 225.6c1.4 0 2.8 0.4 4.1 1.3l29.9 21.2c3.2 2.2 3.9 6.6 1.7 9.8-2.3 3.2-6.7 3.9-9.8 1.7l-25.9-18.3-25.9 18.3c-3.2 2.2-7.6 1.5-9.9-1.7-2.2-3.2-1.4-7.6 1.7-9.8l30-21.2c1.2-0.9 2.7-1.3 4.1-1.3z"/><path class="k" d="m711.5 186.5c1.4 0 2.8 0.4 4.1 1.3l29.9 21.1c3.2 2.3 3.9 6.7 1.7 9.9-2.3 3.2-6.7 3.9-9.8 1.7l-25.9-18.3-25.9 18.3c-3.2 2.2-7.6 1.5-9.9-1.7-2.2-3.2-1.4-7.6 1.7-9.9l30-21.1c1.2-0.9 2.7-1.3 4.1-1.3z"/><path class="k" d="m711.5 142.4c1.4 0 2.8 0.4 4.1 1.3l29.9 21.1c3.2 2.3 3.9 6.7 1.7 9.9-2.3 3.2-6.7 3.9-9.8 1.7l-25.9-18.3-25.9 18.3c-3.2 2.2-7.6 1.5-9.9-1.7-2.2-3.2-1.4-7.6 1.7-9.9l30-21.1c1.2-0.9 2.7-1.3 4.1-1.3z"/></g><path class="b" d="m314.7 583c-3.7 0-6.7-3-6.7-6.6 0-3.7 3-6.7 6.7-6.7 3.6 0 6.6 3 6.6 6.7 0 3.6-3 6.6-6.6 6.6z"/><path class="b" d="m314.7 550.9c-3.7 0-6.7-2.9-6.7-6.6 0-3.7 3-6.6 6.7-6.6 3.6 0 6.6 2.9 6.6 6.6 0 3.7-3 6.6-6.6 6.6z"/><path class="b" d="m346.7 583c-3.7 0-6.6-3-6.6-6.6 0-3.7 2.9-6.7 6.6-6.7 3.7 0 6.6 3 6.6 6.7 0 3.6-2.9 6.6-6.6 6.6z"/><path class="b" d="m314.7 649.9c-3.7 0-6.7-3-6.7-6.6 0-3.7 3-6.7 6.7-6.7 3.6 0 6.6 3 6.6 6.7 0 3.6-3 6.6-6.6 6.6z"/><path class="b" d="m346.7 649.9c-3.7 0-6.6-3-6.6-6.6 0-3.7 2.9-6.7 6.6-6.7 3.7 0 6.6 3 6.6 6.7 0 3.6-2.9 6.6-6.6 6.6z"/><path class="b" d="m346.7 550.9c-3.7 0-6.6-2.9-6.6-6.6 0-3.7 2.9-6.6 6.6-6.6 3.7 0 6.6 2.9 6.6 6.6 0 3.7-2.9 6.6-6.6 6.6z"/><path class="b" d="m314.7 617.9c-3.7 0-6.7-3-6.7-6.7 0-3.6 3-6.6 6.7-6.6 3.6 0 6.6 3 6.6 6.6 0 3.7-3 6.7-6.6 6.7z"/><path class="b" d="m346.7 617.9c-3.7 0-6.6-3-6.6-6.7 0-3.6 2.9-6.6 6.6-6.6 3.7 0 6.6 3 6.6 6.6 0 3.7-2.9 6.7-6.6 6.7z"/><path class="b" d="m378.7 649.9c-3.6 0-6.6-3-6.6-6.6 0-3.7 3-6.7 6.6-6.7 3.7 0 6.7 3 6.7 6.7 0 3.6-3 6.6-6.7 6.6z"/><path class="b" d="m378.7 617.9c-3.6 0-6.6-3-6.6-6.7 0-3.6 3-6.6 6.6-6.6 3.7 0 6.7 3 6.7 6.6 0 3.7-3 6.7-6.7 6.7z"/><path class="a" d="m159.5 507.9l31.9-39.5 31.8 39.5h-13.7v77.9h-36.3v-77.9z"/><path class="a" d="m223.9 544.7l24.1-29.9 24.1 29.9h-10.4v58.8h-27.4v-58.8z"/><path fill-rule="evenodd" class="b" d="m248 513.6c0.4 0 0.7 0.2 1 0.5l24 29.8c0.3 0.4 0.4 0.9 0.2 1.3-0.2 0.4-0.7 0.7-1.1 0.7h-9.2v57.6c0 0.7-0.5 1.3-1.2 1.3h-27.4c-0.7 0-1.2-0.6-1.2-1.3v-57.6h-9.2c-0.4 0-0.9-0.3-1.1-0.7-0.2-0.4-0.1-0.9 0.2-1.3l24.1-29.8c0.2-0.3 0.5-0.5 0.9-0.5zm21.5 29.9l-21.5-26.7-21.5 26.7h7.8c0.7 0 1.2 0.5 1.2 1.2v57.6h25v-57.6c0-0.7 0.5-1.2 1.2-1.2z"/><path class="a" d="m110.7 544.7l24-29.9 24.1 29.9h-10.3v58.8h-27.5v-58.8z"/><path fill-rule="evenodd" class="b" d="m134.7 513.6c0.4 0 0.8 0.2 1 0.5l24.1 29.8c0.3 0.4 0.3 0.9 0.1 1.3-0.2 0.4-0.6 0.7-1.1 0.7h-9.1v57.6c0 0.7-0.6 1.3-1.2 1.3h-27.5c-0.6 0-1.2-0.6-1.2-1.3v-57.6h-9.1c-0.5 0-0.9-0.3-1.1-0.7-0.2-0.4-0.2-0.9 0.1-1.3l24.1-29.8c0.2-0.3 0.6-0.5 0.9-0.5zm21.6 29.9l-21.6-26.7-21.5 26.7h7.8c0.7 0 1.3 0.5 1.3 1.2v57.6h24.9v-57.6c0-0.7 0.6-1.2 1.3-1.2z"/><path class="b" d="m742.5 398.9c0-3.7 3-6.6 6.7-6.6 3.6 0 6.6 2.9 6.6 6.6 0 3.7-3 6.6-6.6 6.6-3.7 0-6.7-2.9-6.7-6.6z"/><path class="b" d="m742.5 430.9c0-3.6 3-6.6 6.7-6.6 3.6 0 6.6 3 6.6 6.6 0 3.7-3 6.7-6.6 6.7-3.7 0-6.7-3-6.7-6.7z"/><path class="b" d="m710.5 398.9c0-3.7 3-6.6 6.6-6.6 3.7 0 6.7 2.9 6.7 6.6 0 3.7-3 6.6-6.7 6.6-3.6 0-6.6-2.9-6.6-6.6z"/><path class="b" d="m742.5 332c0-3.7 3-6.6 6.7-6.6 3.6 0 6.6 2.9 6.6 6.6 0 3.7-3 6.6-6.6 6.6-3.7 0-6.7-2.9-6.7-6.6z"/><path class="b" d="m710.5 332c0-3.7 3-6.6 6.6-6.6 3.7 0 6.7 2.9 6.7 6.6 0 3.7-3 6.6-6.7 6.6-3.6 0-6.6-2.9-6.6-6.6z"/><path class="b" d="m710.5 430.9c0-3.6 3-6.6 6.6-6.6 3.7 0 6.7 3 6.7 6.6 0 3.7-3 6.7-6.7 6.7-3.6 0-6.6-3-6.6-6.7z"/><path class="b" d="m742.5 364c0-3.6 3-6.6 6.7-6.6 3.6 0 6.6 3 6.6 6.6 0 3.7-3 6.7-6.6 6.7-3.7 0-6.7-3-6.7-6.7z"/><path class="b" d="m710.5 364c0-3.6 3-6.6 6.6-6.6 3.7 0 6.7 3 6.7 6.6 0 3.7-3 6.7-6.7 6.7-3.6 0-6.6-3-6.6-6.7z"/><path class="b" d="m678.4 332c0-3.7 3-6.6 6.7-6.6 3.6 0 6.6 2.9 6.6 6.6 0 3.7-3 6.6-6.6 6.6-3.7 0-6.7-2.9-6.7-6.6z"/><path class="b" d="m678.4 364c0-3.6 3-6.6 6.7-6.6 3.6 0 6.6 3 6.6 6.6 0 3.7-3 6.7-6.6 6.7-3.7 0-6.7-3-6.7-6.7z"/></svg>