<svg version="1.2" xmlns="http://www.w3.org/2000/svg" viewBox="0 0 766 670" width="600" height="525"><defs><clipPath clipPathUnits="userSpaceOnUse" id="cp1"><path d="m502.99 465.76l14.09-8.19c8.86 22.78 19.98 30.98 20.57 31.41l-14.09 8.19c-0.59-0.43-11.71-8.63-20.57-31.41z"/></clipPath></defs><style>tspan{white-space:pre}.a{fill:#b2ccfc}.b{fill:#0d3885}.c{fill:#5a94fd}.d{fill:#1869f8}.e{fill:#fff}.f{fill:#c7dafc}.g{fill:#548ff9}.h{fill:#0050f0}.i{font-size: 24px;fill: #ffffff;font-family: "Bebas Neue"}.j{fill:#f8bea1}.k{fill:#ff498a}.l{font-size: 19px;fill: #ffffff;font-family: "Bebas Neue"}.m{fill:#263138}</style><path class="a" d="m552.4 113.8c-3.1-1.9-5.7-0.4-5.8 3.3l-0.4 167c0 3.7 2.5 8.2 5.7 10l185.5 107c3.1 1.9 5.7 0.4 5.7-3.3l0.5-167c0-3.7-2.5-8.1-5.7-10z"/><path class="b" d="m551.5 113.3q-0.2 0-0.4-0.1-0.1 0-0.3-0.1-0.1 0-0.2 0-0.2-0.1-0.3-0.1-0.1 0-0.2 0-0.2 0-0.4 0 0 0 0 0-0.3 0-0.5 0.1 0 0-0.1 0-0.1 0-0.3 0.1 0 0-0.1 0-0.2 0.1-0.4 0.2l11.1-6.5q0 0 0 0 0.2 0 0.3-0.1 0.1 0 0.1 0 0 0 0.1-0.1 0.1 0 0.1 0 0.1 0 0.2-0.1 0 0 0.1 0 0 0 0.1 0 0.1 0 0.3 0 0 0 0 0 0.1 0 0.1 0 0.1 0 0.3 0 0 0 0.1 0 0.1 0 0.2 0 0 0 0.1 0 0.1 0 0.2 0 0.1 0.1 0.2 0.1 0.1 0 0.1 0 0.1 0 0.2 0.1 0.2 0 0.4 0.1 0 0 0.1 0 0 0.1 0.1 0.1 0.3 0.1 0.7 0.4l185.4 107q0.6 0.3 1.1 0.8 0.2 0.1 0.4 0.3 0.2 0.2 0.5 0.4 0.1 0.1 0.2 0.2 0.1 0.1 0.2 0.2 0.1 0.2 0.2 0.3 0.2 0.2 0.5 0.5 0 0.1 0.1 0.3 0.1 0 0.1 0.1 0.1 0.1 0.2 0.2 0.1 0.2 0.3 0.5 0.1 0.2 0.3 0.4 0 0.1 0 0.1 0 0 0 0 0.1 0.2 0.3 0.4 0.1 0.3 0.2 0.5 0.1 0.3 0.2 0.5 0 0 0 0 0 0 0 0 0.1 0.3 0.2 0.5 0.1 0.3 0.2 0.6 0.1 0.1 0.1 0.3 0 0 0.1 0.1 0 0.1 0 0.2 0.1 0.3 0.2 0.6 0 0.2 0.1 0.4 0 0.1 0 0.3 0 0 0 0.1 0.1 0.6 0.1 1.2l-0.5 167c0 1.8-0.6 3.1-1.7 3.7l-11 6.4c1-0.6 1.6-1.8 1.6-3.7l0.5-167q0-0.6-0.1-1.3 0-0.1 0-0.2-0.1-0.6-0.3-1.3 0 0 0-0.1-0.3-0.7-0.6-1.4 0 0 0 0-0.3-0.7-0.6-1.3-0.1-0.1-0.1-0.1-0.3-0.6-0.8-1.2 0-0.1-0.1-0.1-0.4-0.5-0.8-1-0.1-0.1-0.2-0.2-0.3-0.4-0.7-0.7-0.2-0.2-0.3-0.3-0.6-0.4-1.1-0.8l-185.5-107q-0.3-0.2-0.7-0.4-0.1 0-0.2-0.1z"/><path class="c" d="m552.2 104.6c-3.2-1.9-5.8-0.4-5.8 3.3v11.5l197 113.7v-11.5c0-3.7-2.6-8.1-5.8-10z"/><path class="d" d="m754.4 214q0-0.1 0-0.2-0.1-0.1-0.1-0.2 0-0.2 0-0.4-0.1-0.3-0.2-0.6 0-0.1-0.1-0.2 0-0.1 0-0.2 0-0.1-0.1-0.2-0.1-0.3-0.2-0.6-0.1-0.2-0.2-0.5 0 0 0 0 0 0 0 0-0.1-0.3-0.2-0.5-0.1-0.2-0.3-0.5-0.1-0.2-0.2-0.4 0 0 0 0 0 0 0-0.1-0.2-0.2-0.3-0.5-0.2-0.2-0.4-0.5-0.1-0.1-0.1-0.2-0.1 0-0.1-0.1-0.1-0.1-0.2-0.2-0.2-0.3-0.4-0.5-0.1-0.2-0.3-0.3 0-0.1-0.1-0.2-0.2-0.1-0.3-0.2-0.2-0.3-0.5-0.5-0.1-0.1-0.3-0.3-0.5-0.4-1.1-0.7l-185.4-107.1q-0.4-0.2-0.8-0.4-0.2 0-0.3-0.1-0.1 0-0.2 0-0.1-0.1-0.2-0.1-0.3-0.1-0.5-0.1-0.1 0-0.2 0-0.1 0-0.1 0-0.1-0.1-0.1-0.1-0.2 0-0.4 0-0.2 0.1-0.4 0.1 0 0 0 0-0.1 0-0.1 0-0.1 0-0.2 0.1-0.2 0-0.3 0.1-0.2 0-0.3 0.1 0 0 0 0l-11.1 6.5q0.4-0.3 0.8-0.4 0.1 0 0.1 0 0.4 0 0.9 0 0.1 0 0.1 0 0.5 0 0.9 0.2 0.1 0 0.2 0.1 0.6 0.2 1.1 0.5l185.4 107q0.6 0.3 1.1 0.8 0.2 0.1 0.4 0.3 0.3 0.3 0.7 0.6 0.1 0.1 0.2 0.3 0.4 0.4 0.8 1 0.1 0 0.1 0.1 0.4 0.6 0.8 1.2 0 0 0 0 0.4 0.7 0.7 1.4 0 0 0 0 0.3 0.7 0.5 1.4 0 0 0.1 0.1 0.1 0.6 0.2 1.3 0.1 0.1 0.1 0.2 0.1 0.6 0.1 1.3v11.5l11-6.4 0.1-11.5q0-0.6-0.1-1.2z"/><path class="e" d="m703.9 197.6c-2-1.2-3.6-0.2-3.7 2 0 2.3 1.7 5.1 3.7 6.3 2 1.1 3.6 0.2 3.6-2.1 0-2.3-1.6-5.1-3.6-6.2z"/><path class="e" d="m716.3 204.8c-2-1.2-3.6-0.3-3.6 2 0 2.3 1.6 5.1 3.6 6.3 2 1.1 3.6 0.2 3.6-2.1 0-2.3-1.6-5.1-3.6-6.2z"/><path class="e" d="m728.7 211.9c-2-1.1-3.6-0.2-3.6 2.1 0 2.3 1.6 5.1 3.6 6.2 2 1.2 3.6 0.3 3.6-2 0.1-2.3-1.6-5.1-3.6-6.3z"/><path class="e" d="m583.8 180.3v4.9l-14.5-8.5-0.1-5z"/><path class="e" d="m671.8 325.5v5l-51.8-30.5v-4.9z"/><path class="e" d="m687.2 299.5v5l-67.3-39.6v-4.9z"/><path class="e" d="m717.2 305.5v4.9l-97.3-57.2v-4.9z"/><path class="e" d="m687.9 323.3v5l-94.6-55.7v-4.9z"/><path class="e" d="m629.8 277.5v4.9l-36.5-21.5-0.1-4.9z"/><path class="e" d="m717.1 282.1v4.9l-97.3-57.2v-4.9z"/><path class="e" d="m611.2 254.8v5l-18-10.6v-4.9z"/><path class="e" d="m711.7 267.2v4.9l-91.9-54v-5z"/><path class="e" d="m701.8 284.7v5l-108.6-63.9v-4.9z"/><path class="e" d="m611.1 219.7v5l-17.9-10.6-0.1-4.9z"/><path class="e" d="m611.1 208v5l-18-10.6v-4.9z"/><path class="e" d="m701.7 249.6v5l-108.6-63.9v-4.9z"/><path class="e" d="m679.9 223.3v5l-110.7-65.1v-5z"/><path class="e" d="m724.3 249.4v5l-6.5-3.9v-4.9z"/><path class="e" d="m583.9 215.4v4.9l-14.6-8.5v-5z"/><path class="e" d="m611.2 243.1v5l-18-10.6v-4.9z"/><path class="e" d="m611.3 289.9v5l-18-10.6v-4.9z"/><path class="d" d="m411.8 547.9c2.9 1.7 2.9 4.4 0 6.1l-11.7 6.8-143.3-82.8 11.7-6.8c2.8-1.6 7.5-1.6 10.4 0z"/><path fill-rule="evenodd" class="a" d="m256.8 478l143.3 82.8-76.5 44.4c-2.9 1.7-7.6 1.7-10.5 0l-132.8-76.7c-2.9-1.6-2.9-4.3-0.1-6zm37.7 50.1q7-3.1 13-1.5l3-3.2q-11.5-3.6-21.4 0.4l-6.8 2.9q-6.2 2.8-11.2 0.1l-5.8 2.8q2.9 2.1 0.3 3.9-0.9 0.6-2.1 1.1l-6 2.7q-4.9 2.3-6 5.2-1.1 3 1.6 6.1l5.8-1.5q-1.7-2.5 2.6-4.8l1.6-0.8 6.9-3.1q2.7-1.3 3.9-2.9 1.2-1.7 0.7-3.5 7.3 1.4 13.2-0.9zm15.8 27.3l5.8-2.8q-3-2-0.3-3.9 0.8-0.5 2.1-1.1l5.9-2.6q4.8-2.3 6-5.2 1.2-2.8-1.6-6.1l-5.7 1.4q1.6 2.6-2.7 4.9l-1.6 0.8-6.8 3q-2.8 1.4-4 3-1.2 1.7-0.6 3.5-7.4-1.5-13.2 0.9l-6.8 2.9q-6.9 3.1-13 1.6l-3 3.2q12 3.7 22.4-0.8l5.8-2.6q6.2-2.7 11.3-0.1z"/><path class="e" d="m328.2 533.8q2.8 3.2 1.6 6.1-1.2 2.9-6 5.2l-6 2.6q-1.2 0.6-2 1.1-2.7 1.9 0.2 3.9l-5.8 2.8q-5.1-2.6-11.2 0.1l-5.8 2.6q-10.4 4.5-22.5 0.8l3.1-3.2q6 1.5 13-1.6l6.7-2.9q5.9-2.4 13.3-0.9-0.6-1.9 0.6-3.5 1.2-1.7 3.9-3l6.9-3.1 1.6-0.8q4.3-2.3 2.7-4.8z"/><path class="e" d="m310.5 523.4l-3.1 3.2q-6-1.5-13 1.5l-6.7 3q-5.8 2.3-13.2 1 0.5 1.8-0.7 3.4-1.1 1.6-3.9 3l-6.9 3-1.5 0.8q-4.4 2.3-2.7 4.9l-5.7 1.5q-2.7-3.2-1.6-6.1 1.1-3 6-5.3l5.9-2.6q1.3-0.6 2.1-1.2 2.6-1.8-0.3-3.8l5.8-2.9q5 2.7 11.3-0.1l6.7-2.9q9.9-4 21.5-0.4z"/><path class="f" d="m352.9 309l198.4 114.3c4.2 2.4 4.2 8.5 0 11l-144.5 84c-2 1.2-4.5 1.2-6.5 0l-199.5-120c-4.2-2.5-4.1-8.6 0.3-11l145.6-78.4c1.9-1 4.3-1 6.2 0.1z"/><path class="a" d="m531.8 404.6c4.8 2.8 4.8 7.3 0 10l-125.1 72.8c-4.8 2.7-12.5 2.7-17.3-0.1l-191.7-110.6c-4.8-2.8-4.8-7.3-0.1-10l125.2-72.8c4.7-2.7 12.5-2.7 17.3 0z"/><path class="f" d="m263.3 341.8l60.1-34.5c3.3-1.9 7.4-1.9 10.7 0.1l174.4 100.6c1.8 1 1.8 3.6 0 4.6l-60.2 34.5c-3.3 1.9-7.4 1.9-10.7 0l-174.3-100.6c-1.8-1-1.8-3.6 0-4.7z"/><path class="f" d="m276.3 401.2l26.1-14.6c2.5-1.4 5.6-1.4 8.2 0l50.7 29.3c1.4 0.9 1.4 3-0.1 3.8l-26 14.6c-2.6 1.5-5.7 1.5-8.2 0l-50.7-29.3c-1.5-0.8-1.5-3 0-3.8z"/><path class="b" d="m535.4 409.8q0 0.3-0.1 0.7-0.1 0.3-0.2 0.7-0.1 0.3-0.3 0.7-0.2 0.3-0.5 0.7-0.3 0.4-0.8 0.8-0.6 0.6-1.5 1.1-0.1 0.1-0.2 0.1l-125.1 72.8q-1.2 0.7-2.7 1.1-1.1 0.4-2.3 0.6-0.8 0.1-1.6 0.2-0.6 0.1-1.3 0.1-0.6 0-1.3 0-0.6 0-1.2 0-0.6-0.1-1.2-0.2-0.6-0.1-1.2-0.2-0.6-0.1-1.3-0.3-0.7-0.2-1.5-0.5-0.9-0.4-1.7-0.9l-191.7-110.6c-2.4-1.4-3.6-3.2-3.6-5.1v9.7c0 1.8 1.2 3.6 3.6 5l191.6 110.7q0.9 0.5 1.8 0.8 0.7 0.3 1.5 0.5 0.6 0.2 1.3 0.3 0.6 0.2 1.2 0.3 0.6 0 1.2 0.1 0.6 0 1.2 0.1 0.6 0 1.3 0 0.6-0.1 1.3-0.1 0.8-0.1 1.6-0.3 1.2-0.2 2.3-0.5 1.4-0.5 2.7-1.2l125.1-72.7q0.1-0.1 0.2-0.1 0.8-0.6 1.5-1.2 0.4-0.4 0.8-0.8 0.2-0.3 0.5-0.7 0.1-0.4 0.3-0.7 0.1-0.4 0.2-0.7 0-0.4 0.1-0.7 0-0.1 0-0.1v-9.7q0 0.1 0 0.2z"/><path class="d" d="m578.9 251.9q0-0.1-0.1-0.1 0-0.1 0-0.2 0-0.1 0-0.2 0-0.1 0-0.1 0-0.1 0-0.2-0.1-0.1-0.1-0.2 0-0.1 0-0.2 0-0.1-0.1-0.2 0 0 0-0.1 0-0.1-0.1-0.2 0-0.1 0-0.2-0.1-0.1-0.1-0.2 0 0-0.1-0.1 0-0.1 0-0.2-0.1-0.1-0.1-0.2-0.1 0-0.1-0.1 0-0.1-0.1-0.2-0.1-0.2-0.2-0.4-0.1-0.1-0.2-0.3-0.1-0.2-0.2-0.3-0.1-0.1-0.2-0.2-0.1-0.1-0.1-0.2-0.1-0.1-0.1-0.2-0.1 0-0.2-0.1 0-0.1-0.1-0.1-0.1-0.1-0.2-0.2 0-0.1-0.1-0.1-0.1-0.1-0.2-0.2 0 0-0.1-0.1-0.1 0-0.2-0.1 0 0-0.1-0.1-0.1-0.1-0.2-0.1 0 0-0.1-0.1 0 0 0 0l-207-119.5q0 0-0.1-0.1-0.1 0-0.1 0-0.1-0.1-0.2-0.1 0 0-0.1 0-0.1-0.1-0.2-0.1 0 0-0.1 0-0.1-0.1-0.1-0.1-0.1 0-0.2 0 0 0-0.1 0-0.1 0-0.2-0.1 0 0-0.1 0-0.1 0-0.2 0.1-0.1 0-0.2 0-0.1 0-0.2 0-0.2 0.1-0.3 0.2l-5.1 2.9q0.1 0 0.3-0.1 0.1 0 0.2-0.1 0.1 0 0.2 0 0.1 0 0.2 0 0.1 0 0.1 0 0.1 0 0.2 0 0.1 0 0.1 0 0.1 0.1 0.2 0.1 0 0 0.1 0 0.1 0 0.2 0.1 0 0 0.1 0 0.1 0 0.1 0.1 0.1 0 0.2 0 0 0.1 0.1 0.1 0.1 0 0.1 0.1l207 119.5q0 0 0 0 0.1 0 0.1 0.1 0.1 0 0.2 0.1 0.1 0 0.1 0.1 0.1 0 0.2 0.1 0.1 0 0.1 0.1 0.1 0.1 0.2 0.1 0.1 0.1 0.1 0.2 0.1 0 0.2 0.1 0.1 0.1 0.1 0.2 0.1 0 0.2 0.1 0 0.1 0.1 0.2 0.1 0 0.1 0.1 0.1 0.1 0.2 0.2 0.1 0.2 0.2 0.3 0.1 0.2 0.2 0.4 0.1 0.2 0.2 0.3 0.1 0.1 0.1 0.2 0.1 0.1 0.1 0.2 0 0.1 0.1 0.2 0 0.1 0 0.1 0.1 0.1 0.1 0.2 0 0.1 0.1 0.2 0 0.1 0 0.2 0.1 0 0.1 0.1 0 0.1 0 0.2 0.1 0.1 0.1 0.2 0 0.1 0 0.2 0.1 0.1 0.1 0.1 0 0.1 0 0.2 0 0.1 0 0.2 0 0.1 0 0.2 0 0 0.1 0.1 0 0.1 0 0.2 0 0.1 0 0.1 0 0.1 0 0.2 0 0.1-0.1 0.2 0 0 0 0.1 0 0.1 0 0.2 0 0 0 0l-29.6 153.8q0 0.1-0.1 0.1 0 0.1 0 0.2 0 0.1-0.1 0.2 0 0.1 0 0.2-0.1 0.1-0.2 0.2-0.2 0.4-0.6 0.6l5.1-3q0.4-0.2 0.6-0.6 0.1-0.1 0.1-0.2 0.1-0.1 0.1-0.2 0.1-0.1 0.1-0.2 0 0 0-0.1 0.1-0.1 0.1-0.2l29.6-153.7q0 0 0-0.1 0 0 0-0.1 0-0.1 0-0.2 0.1-0.1 0.1-0.2 0 0 0-0.1 0-0.1 0-0.2z"/><path class="a" d="m570.4 249.2c2.1 1.2 3.7 4.4 3.3 6.5l-29.6 153.8c-0.3 1.7-1.7 2.2-3.4 1.2l-206.9-119.4c-2.2-1.3-3.8-4.5-3.4-6.6l29.7-153.8c0.3-1.7 1.7-2.2 3.3-1.2z"/><path class="e" d="m339.6 285.7c0-0.1-0.2-0.4-0.3-0.7l27.8-144.2 197.4 113.9c0.1 0.1 0.3 0.4 0.4 0.7l-27.8 144.2z"/><path class="g" d="m320.9 316.8l6.8 3.9q0.1 0.1 0.3 0.1 0 0.1 0.2 0.1 0 0 0.1 0.1 0.1 0 0.2 0 0.1 0 0.2 0 0 0 0.1 0 0.1 0 0.2 0 0.1 0 0.2 0 0.1 0 0.2 0 0.2-0.1 0.3-0.1 0.2-0.1 0.4-0.2l3.9-2.2q0 0 0-0.1 0.1 0 0.2-0.1 0.1-0.1 0.1-0.1 0.1-0.1 0.1-0.1 0-0.1 0-0.1 0.1-0.1 0.1-0.1 0-0.1 0-0.1 0 0 0 0v-2.7q0 0 0 0 0 0 0 0.1 0 0 0 0.1-0.1 0-0.1 0.1 0 0-0.1 0.1 0 0-0.1 0.1-0.1 0.1-0.2 0.1 0 0 0 0l-3.9 2.3q-0.2 0.1-0.4 0.2-0.1 0-0.3 0.1-0.1 0-0.2 0-0.1 0-0.2 0-0.1 0-0.2 0-0.1 0-0.1 0-0.1 0-0.2 0-0.1 0-0.2-0.1-0.1 0-0.1 0-0.1 0-0.2-0.1-0.2 0-0.3-0.1l-6.8-3.9q-0.5-0.3-0.5-0.7v2.7q0 0.4 0.5 0.7z"/><path class="g" d="m332.4 320.3v2.7q0 0.4 0.5 0.7l6.8 4q0.1 0 0.3 0.1 0.1 0 0.2 0.1 0.1 0 0.2 0 0 0 0.1 0 0.1 0 0.2 0 0.1 0.1 0.1 0.1 0.1 0 0.2 0 0.1 0 0.2-0.1 0.1 0 0.2 0 0.2 0 0.3-0.1 0.2 0 0.4-0.1l3.9-2.3q0 0 0 0 0.2-0.1 0.3-0.2 0 0 0.1-0.1 0 0 0-0.1 0.1 0 0.1-0.1 0 0 0-0.1 0 0 0-0.1 0 0 0 0v-2.7q0 0 0 0 0 0.1 0 0.1 0 0.1 0 0.1 0 0.1-0.1 0.1 0 0.1 0 0.1-0.1 0.1-0.1 0.1-0.1 0.1-0.3 0.2 0 0 0 0l-3.9 2.2q-0.1 0.1-0.3 0.2-0.2 0.1-0.4 0.1-0.1 0-0.2 0-0.1 0-0.2 0-0.1 0-0.1 0-0.1 0-0.2 0-0.1 0-0.2 0-0.1 0-0.1 0-0.1 0-0.2-0.1-0.1 0-0.2 0-0.2-0.1-0.3-0.2l-6.8-3.9q-0.5-0.3-0.5-0.7z"/><path class="g" d="m344.4 327.3v2.7q0 0.4 0.5 0.7l6.8 3.9q0.2 0.1 0.3 0.1 0.1 0.1 0.2 0.1 0.1 0 0.2 0 0 0 0.1 0.1 0.1 0 0.2 0 0.1 0 0.1 0 0.1 0 0.2 0 0.1 0 0.2 0 0.1 0 0.2-0.1 0.2 0 0.3 0 0.2-0.1 0.4-0.2l3.9-2.3q0 0 0 0 0.2-0.1 0.3-0.1 0-0.1 0.1-0.2 0 0 0-0.1 0.1 0 0.1-0.1 0 0 0 0 0-0.1 0-0.1 0-0.1 0-0.1v-2.7q0 0 0 0 0 0.1 0 0.1 0 0.1 0 0.1 0 0.1-0.1 0.1 0 0.1 0 0.1-0.1 0.1-0.1 0.1-0.1 0.1-0.3 0.2 0 0 0 0l-3.9 2.3q-0.1 0.1-0.3 0.1-0.2 0.1-0.4 0.1-0.1 0-0.2 0.1-0.1 0-0.2 0-0.1 0-0.1 0-0.1 0-0.2 0-0.1 0-0.2-0.1-0.1 0-0.1 0-0.1 0-0.2 0-0.1-0.1-0.2-0.1-0.1 0-0.3-0.1l-6.8-3.9q-0.5-0.4-0.5-0.7z"/><path class="g" d="m356.4 334.2v2.7q0 0.4 0.5 0.7l6.8 3.9q0.2 0.1 0.3 0.2 0.1 0 0.2 0 0.1 0 0.2 0.1 0.1 0 0.1 0 0.1 0 0.2 0 0.1 0 0.2 0 0.1 0 0.1 0 0.1 0 0.2 0 0.1 0 0.2 0 0.2 0 0.4-0.1 0.2-0.1 0.3-0.2l3.9-2.2q0 0 0.1 0 0.1-0.1 0.2-0.2 0-0.1 0.1-0.1 0-0.1 0.1-0.1 0-0.1 0-0.1 0-0.1 0-0.1 0-0.1 0-0.1 0 0 0 0v-2.7q0 0 0 0 0 0 0 0.1 0 0 0 0.1 0 0 0 0.1-0.1 0-0.1 0.1-0.1 0-0.1 0.1-0.1 0.1-0.2 0.1 0 0.1-0.1 0.1l-3.8 2.2q-0.2 0.1-0.4 0.2-0.2 0-0.3 0.1-0.2 0-0.3 0-0.1 0-0.1 0-0.1 0-0.2 0-0.1 0-0.2 0-0.1 0-0.1 0-0.1 0-0.2 0-0.1-0.1-0.2-0.1-0.1 0-0.2-0.1-0.1 0-0.2-0.1l-6.9-3.9q-0.5-0.3-0.5-0.7z"/><path class="g" d="m368.4 341.1v2.7q0 0.4 0.5 0.7l6.9 4q0.1 0 0.2 0.1 0.1 0 0.2 0.1 0.1 0 0.2 0 0.1 0 0.1 0 0.1 0 0.2 0 0.1 0.1 0.2 0.1 0.1 0 0.1 0 0.1 0 0.2-0.1 0.1 0 0.2 0 0.2 0 0.4-0.1 0.2 0 0.3-0.1l3.9-2.3q0.1 0 0.1 0 0.1-0.1 0.2-0.2 0 0 0.1-0.1 0 0 0.1-0.1 0 0 0-0.1 0 0 0-0.1 0 0 0-0.1 0 0 0 0v-2.7q0 0 0 0 0 0.1 0 0.1 0 0.1 0 0.1 0 0 0 0.1-0.1 0-0.1 0.1-0.1 0.1-0.1 0.1-0.1 0.1-0.2 0.2 0 0-0.1 0l-3.8 2.2q-0.2 0.2-0.4 0.2-0.2 0.1-0.3 0.1-0.2 0-0.3 0-0.1 0-0.2 0 0 0-0.1 0-0.1 0-0.2 0-0.1 0-0.2 0 0 0-0.1 0-0.1 0-0.2-0.1-0.1 0-0.2 0-0.1-0.1-0.2-0.1l-6.8-4q-0.6-0.3-0.6-0.7z"/><path class="g" d="m380.5 348.1v2.7q0 0.4 0.5 0.7l6.8 3.9q0.1 0.1 0.2 0.1 0.1 0.1 0.2 0.1 0.1 0 0.2 0 0.1 0.1 0.2 0.1 0.1 0 0.1 0 0.1 0 0.2 0 0.1 0 0.2 0 0.1 0 0.2 0 0.1 0 0.2 0 0.1-0.1 0.3-0.1 0.2-0.1 0.4-0.2l3.9-2.3q0 0 0 0 0.1 0 0.2-0.1 0.1-0.1 0.1-0.1 0-0.1 0.1-0.1 0-0.1 0-0.1 0-0.1 0-0.1 0.1-0.1 0.1-0.1 0 0 0 0v-2.8q0 0 0 0.1 0 0 0 0-0.1 0.1-0.1 0.1 0 0.1 0 0.1 0 0.1-0.1 0.1 0 0.1-0.1 0.2-0.1 0-0.2 0.1 0 0 0 0l-3.9 2.3q-0.2 0.1-0.4 0.2-0.2 0-0.3 0-0.1 0.1-0.2 0.1-0.1 0-0.2 0-0.1 0-0.2 0-0.1 0-0.2 0 0 0-0.1 0-0.1-0.1-0.2-0.1-0.1 0-0.2 0-0.1-0.1-0.2-0.1-0.1 0-0.2-0.1l-6.8-3.9q-0.5-0.3-0.5-0.7z"/><path class="g" d="m392.5 355v2.7q0 0.4 0.5 0.7l6.8 3.9q0.1 0.1 0.2 0.2 0.1 0 0.2 0 0.1 0.1 0.2 0.1 0.1 0 0.2 0 0.1 0 0.1 0 0.1 0 0.2 0 0.1 0 0.2 0 0.1 0 0.2 0 0.1 0 0.2 0 0.1 0 0.3-0.1 0.2-0.1 0.4-0.2l3.9-2.2q0 0 0 0 0.1-0.1 0.2-0.2 0.1-0.1 0.1-0.1 0-0.1 0.1-0.1 0-0.1 0-0.1 0-0.1 0.1-0.1 0-0.1 0-0.1 0 0 0 0v-2.7q0 0 0 0 0 0 0 0.1-0.1 0-0.1 0.1 0 0 0 0.1 0 0-0.1 0.1 0 0-0.1 0.1-0.1 0.1-0.2 0.1 0 0.1 0 0.1l-3.9 2.2q-0.2 0.1-0.4 0.2-0.2 0-0.3 0.1-0.1 0-0.2 0-0.1 0-0.2 0-0.1 0-0.2 0-0.1 0-0.2 0 0 0-0.1 0-0.1 0-0.2 0-0.1-0.1-0.2-0.1-0.1 0-0.2-0.1-0.1 0-0.2-0.1l-6.8-3.9q-0.5-0.3-0.5-0.7z"/><path class="g" d="m404.5 361.9v2.8q0 0.3 0.5 0.6l6.8 4q0.1 0 0.2 0.1 0.1 0 0.2 0.1 0.1 0 0.2 0 0.1 0 0.2 0 0.1 0.1 0.2 0.1 0 0 0.1 0 0.1 0 0.2 0 0.1 0 0.2 0 0.1-0.1 0.2-0.1 0.2 0 0.3-0.1 0.2 0 0.4-0.1l3.9-2.3q0 0 0 0 0.1-0.1 0.2-0.2 0.1 0 0.1-0.1 0.1 0 0.1-0.1 0 0 0-0.1 0.1 0 0.1-0.1 0 0 0-0.1 0 0 0 0v-2.7q0 0 0 0 0 0.1 0 0.1 0 0.1 0 0.1-0.1 0.1-0.1 0.1 0 0.1-0.1 0.1 0 0.1-0.1 0.1-0.1 0.1-0.2 0.2 0 0 0 0l-3.9 2.3q-0.2 0.1-0.4 0.1-0.1 0.1-0.3 0.1-0.1 0-0.2 0-0.1 0-0.2 0-0.1 0.1-0.2 0.1-0.1-0.1-0.1-0.1-0.1 0-0.2 0-0.1 0-0.2 0-0.1 0-0.1 0-0.1-0.1-0.2-0.1-0.2-0.1-0.3-0.1l-6.8-4q-0.5-0.3-0.5-0.7z"/><path class="g" d="m416.5 368.9v2.7q0 0.4 0.5 0.7l6.8 3.9q0.1 0.1 0.2 0.1 0.1 0.1 0.3 0.1 0 0 0.1 0 0.1 0.1 0.2 0.1 0.1 0 0.2 0v-2.7q-0.1 0-0.2 0-0.1-0.1-0.2-0.1-0.1 0-0.1 0-0.1 0-0.2-0.1-0.2 0-0.3-0.1l-6.8-3.9q-0.5-0.3-0.5-0.7z"/><path class="g" d="m424.9 376.5q0.1 0 0.2 0 0.1 0 0.2 0 0.1 0 0.2 0 0.2-0.1 0.3-0.1 0.2-0.1 0.4-0.2l3.9-2.3q0 0 0 0 0.1 0 0.2-0.1 0.1-0.1 0.1-0.1 0.1-0.1 0.1-0.1 0-0.1 0-0.1 0.1-0.1 0.1-0.1 0-0.1 0-0.1 0 0 0 0v-2.8q0 0 0 0.1 0 0 0 0.1 0 0 0 0-0.1 0.1-0.1 0.1 0 0.1-0.1 0.1 0 0.1-0.1 0.2-0.1 0-0.2 0.1 0 0 0 0l-3.9 2.3q-0.2 0.1-0.4 0.2-0.1 0-0.3 0-0.1 0.1-0.2 0.1-0.1 0-0.2 0-0.1 0-0.2 0 0 0-0.1 0v2.7q0 0 0.1 0z"/><path class="g" d="m424.8 373.8z"/><path class="g" d="m428.5 375.8v2.7q0 0.4 0.5 0.7l6.8 3.9q0.1 0.1 0.3 0.2 0.1 0 0.2 0 0.1 0.1 0.2 0.1 0 0 0.1 0 0.1 0 0.2 0 0.1 0 0.1 0 0.1 0 0.2 0 0.1 0 0.2 0 0.1 0 0.2 0 0.2 0 0.3-0.1 0.2-0.1 0.4-0.2l3.9-2.2q0 0 0 0 0.2-0.1 0.3-0.2 0 0 0.1-0.1 0-0.1 0-0.1 0.1 0 0.1-0.1 0 0 0-0.1 0 0 0-0.1 0 0 0 0v-2.7q0 0 0 0 0 0 0 0.1 0 0 0 0.1 0 0-0.1 0.1 0 0 0 0.1-0.1 0-0.1 0.1-0.1 0.1-0.3 0.2 0 0 0 0l-3.9 2.2q-0.1 0.1-0.3 0.2-0.2 0-0.4 0.1-0.1 0-0.2 0-0.1 0-0.2 0-0.1 0-0.1 0-0.1 0-0.2 0-0.1 0-0.2 0-0.1 0-0.1 0-0.1-0.1-0.2-0.1-0.1 0-0.2 0-0.2-0.1-0.3-0.2l-6.8-3.9q-0.5-0.3-0.5-0.7z"/><path class="g" d="m440.5 382.7v2.8q0 0.3 0.5 0.7l6.8 3.9q0.1 0 0.3 0.1 0.1 0 0.2 0.1 0.1 0 0.2 0 0 0 0.1 0 0.1 0.1 0.2 0.1 0.1 0 0.2 0 0 0 0.1 0 0.1 0 0.2 0 0.1-0.1 0.2-0.1 0.2 0 0.3-0.1 0.2 0 0.4-0.1l3.9-2.3q0 0 0 0 0.2-0.1 0.3-0.2 0 0 0.1-0.1 0 0 0-0.1 0.1 0 0.1-0.1 0 0 0-0.1 0 0 0-0.1 0 0 0 0v-2.7q0 0 0 0 0 0.1 0 0.1 0 0.1 0 0.1 0 0.1-0.1 0.1 0 0.1 0 0.1-0.1 0.1-0.1 0.1-0.1 0.1-0.3 0.2 0 0 0 0l-3.9 2.3q-0.1 0.1-0.3 0.1-0.2 0.1-0.4 0.1-0.1 0-0.2 0-0.1 0-0.2 0.1-0.1 0-0.1 0-0.1-0.1-0.2-0.1-0.1 0-0.2 0-0.1 0-0.1 0-0.1 0-0.2 0-0.1-0.1-0.2-0.1-0.2-0.1-0.3-0.1l-6.8-4q-0.5-0.3-0.5-0.7z"/><path class="g" d="m452.5 389.7v2.7q0 0.4 0.5 0.7l6.8 3.9q0.2 0.1 0.3 0.1 0.1 0.1 0.2 0.1 0.1 0 0.2 0.1 0.1 0 0.1 0 0.1 0 0.2 0 0.1 0 0.2 0 0.1 0 0.1 0 0.1 0 0.2 0 0.1 0 0.2 0 0.2-0.1 0.4-0.1 0.2-0.1 0.3-0.2l3.9-2.2q0 0 0.1-0.1 0.1 0 0.2-0.1 0-0.1 0.1-0.1 0-0.1 0.1-0.1 0-0.1 0-0.1 0-0.1 0-0.1 0-0.1 0-0.1 0 0 0 0v-2.7q0 0 0 0 0 0 0 0.1 0 0 0 0.1 0 0 0 0.1-0.1 0-0.1 0.1-0.1 0-0.1 0.1-0.1 0.1-0.2 0.1 0 0-0.1 0l-3.8 2.3q-0.2 0.1-0.4 0.2-0.2 0-0.3 0-0.2 0.1-0.3 0.1-0.1 0-0.1 0-0.1 0-0.2 0-0.1 0-0.2 0-0.1 0-0.1 0-0.1 0-0.2-0.1-0.1 0-0.2 0-0.1 0-0.2-0.1-0.1 0-0.2-0.1l-6.9-3.9q-0.5-0.3-0.5-0.7z"/><path class="g" d="m465.1 397.3q-0.6-0.3-0.6-0.7v2.7q0 0.4 0.5 0.7l9.6 5.5q0.1 0.1 0.2 0.2l0.1-2.8q-0.2 0-0.3-0.1z"/><path class="g" d="m475.1 405.7q0 0.1 0.1 0.1 0.1 0 0.2 0 0.1 0 0.2 0 0 0 0.1 0 0.1 0 0.2 0 0.1 0 0.2 0 0.1 0 0.2 0 0.2 0 0.3-0.1 0.2-0.1 0.4-0.2l3.9-2.2q0 0 0 0 0.1-0.1 0.2-0.2 0.1-0.1 0.1-0.1 0.1-0.1 0.1-0.1 0-0.1 0.1-0.1 0-0.1 0-0.1 0-0.1 0-0.1 0 0 0 0v-2.7q0 0 0 0 0 0 0 0.1 0 0 0 0.1-0.1 0-0.1 0.1 0 0-0.1 0.1 0 0-0.1 0.1-0.1 0.1-0.2 0.1 0 0.1 0 0.1l-3.9 2.2q-0.2 0.1-0.4 0.2-0.1 0-0.3 0.1-0.1 0-0.2 0-0.1 0-0.2 0-0.1 0-0.2 0 0 0-0.1 0-0.1 0-0.2 0-0.1 0-0.2 0 0-0.1-0.1-0.1-0.1 0-0.2-0.1l-0.1 2.8q0.1 0 0.3 0z"/><path class="g" d="m474.9 402.9z"/><path class="g" d="m496.2 408.4q0 0.1 0 0.1 0 0.1 0 0.1 0 0.1-0.1 0.1 0 0.1 0 0.1-0.1 0.1-0.1 0.2-0.1 0-0.2 0.1-0.1 0-0.1 0l-3.9 2.3q-0.1 0.1-0.3 0.2-0.2 0-0.4 0-0.1 0.1-0.2 0.1-0.1 0-0.2 0 0 0-0.1 0-0.1 0-0.2 0-0.1 0-0.2-0.1 0 0-0.1 0-0.1 0-0.2 0-0.1-0.1-0.2-0.1-0.1 0-0.3-0.1l-9.6-5.6q-0.5-0.3-0.5-0.7v2.8q0 0.3 0.5 0.6l9.6 5.6q0.1 0.1 0.3 0.1 0.1 0.1 0.2 0.1 0.1 0 0.2 0 0 0.1 0.1 0.1 0.1 0 0.2 0 0.1 0 0.2 0 0 0 0.1 0 0.1 0 0.2 0 0.1 0 0.2-0.1 0.2 0 0.4 0 0.2-0.1 0.3-0.2l3.9-2.3q0 0 0 0 0.2 0 0.3-0.1 0-0.1 0.1-0.1 0-0.1 0-0.1 0.1-0.1 0.1-0.1 0-0.1 0-0.1 0-0.1 0-0.1 0 0 0-0.1v-2.7q0 0 0 0z"/><path class="g" d="m309.2 323.6l6.8 3.9q0.1 0.1 0.3 0.1 0.1 0.1 0.2 0.1 0 0 0.1 0.1 0.1 0 0.2 0 0.1 0 0.2 0 0 0 0.1 0 0.1 0 0.2 0 0.1 0 0.2 0 0.1 0 0.2 0 0.2-0.1 0.3-0.1 0.2-0.1 0.4-0.2l6.8-3.9q0 0 0 0 0.1-0.1 0.2-0.2 0.1 0 0.1-0.1 0 0 0.1-0.1 0 0 0-0.1 0 0 0-0.1 0.1 0 0.1-0.1 0 0 0 0v-2.7q0 0 0 0 0 0 0 0.1-0.1 0-0.1 0.1 0 0 0 0.1 0 0-0.1 0.1 0 0-0.1 0.1-0.1 0.1-0.2 0.2 0 0 0 0l-6.8 3.9q-0.2 0.1-0.4 0.2-0.1 0-0.3 0.1-0.1 0-0.2 0-0.1 0-0.2 0-0.1 0-0.2 0-0.1 0-0.1 0-0.1 0-0.2 0-0.1 0-0.2-0.1-0.1 0-0.1 0-0.1 0-0.2-0.1-0.2 0-0.3-0.1l-6.8-3.9q-0.5-0.3-0.5-0.7v2.7q0 0.4 0.5 0.7z"/><path class="g" d="m328.5 334.7q0.1 0 0.2 0 0 0 0.1 0 0.1 0 0.2 0 0.1 0 0.2 0.1 0 0 0.1 0 0.1-0.1 0.2-0.1 0.1 0 0.2 0 0.2 0 0.3-0.1 0.2 0 0.4-0.1l6.8-4q0 0 0 0 0.1-0.1 0.2-0.1 0.1-0.1 0.1-0.2 0.1 0 0.1-0.1 0 0 0 0 0.1-0.1 0.1-0.1 0-0.1 0-0.1 0 0 0-0.1v-2.7q0 0 0 0 0 0.1 0 0.1 0 0.1-0.1 0.1 0 0.1 0 0.1 0 0.1-0.1 0.1 0 0.1-0.1 0.1-0.1 0.1-0.2 0.2 0 0 0 0l-6.8 3.9q-0.1 0.1-0.3 0.2-0.2 0.1-0.4 0.1-0.1 0-0.2 0-0.1 0-0.2 0-0.1 0-0.1 0-0.1 0-0.2 0-0.1 0-0.2 0-0.1 0-0.1 0-0.1 0-0.2-0.1-0.1 0-0.2 0v2.7q0.1 0 0.2 0.1z"/><path class="g" d="m328 331.7l-6.8-3.9q-0.5-0.3-0.5-0.7v2.7q0 0.4 0.5 0.7l6.8 4q0.1 0 0.3 0.1v-2.7q-0.2-0.1-0.3-0.2z"/><path class="g" d="m328.3 331.9z"/><path class="g" d="m297.5 330.4l12.7 7.3q0.1 0.1 0.2 0.1 0.1 0.1 0.2 0.1 0.1 0 0.2 0.1 0.1 0 0.2 0 0 0 0.1 0 0.1 0 0.2 0 0.1 0 0.2 0 0 0 0.1 0 0.1 0 0.3 0 0.1-0.1 0.3-0.1 0.2-0.1 0.4-0.2l6.7-3.9q0 0 0 0 0.2-0.1 0.3-0.2 0 0 0.1-0.1 0 0 0-0.1 0.1 0 0.1-0.1 0 0 0-0.1 0 0 0-0.1 0 0 0 0v-2.7q0 0 0 0 0 0 0 0.1 0 0 0 0.1 0 0-0.1 0.1 0 0 0 0.1-0.1 0-0.1 0.1-0.1 0.1-0.3 0.2 0 0 0 0l-6.7 3.9q-0.2 0.1-0.4 0.2-0.2 0-0.3 0-0.1 0.1-0.3 0.1 0 0-0.1 0-0.1 0-0.2 0-0.1 0-0.2 0-0.1 0-0.1 0-0.1 0-0.2-0.1-0.1 0-0.2 0-0.1 0-0.2-0.1-0.1 0-0.2-0.1l-12.7-7.3q-0.5-0.3-0.5-0.7v2.7q0 0.4 0.5 0.7z"/><path class="g" d="m349.7 334.2q0 0 0 0.1-0.1 0-0.1 0.1 0 0-0.1 0.1 0 0-0.1 0.1-0.1 0.1-0.2 0.1 0 0 0 0l-6.8 4q-0.1 0.1-0.3 0.1-0.2 0.1-0.4 0.1-0.1 0-0.2 0.1-0.1 0-0.2 0-0.1 0-0.1 0-0.1 0-0.2 0-0.1 0-0.2-0.1-0.1 0-0.1 0-0.1 0-0.2 0-0.1-0.1-0.2-0.1-0.1 0-0.2-0.1l-6.9-4q-0.5-0.3-0.5-0.7v2.8q0 0.4 0.5 0.7l6.8 3.9q0.2 0.1 0.3 0.1 0.1 0.1 0.2 0.1 0.1 0 0.2 0 0 0 0.1 0.1 0.1 0 0.2 0 0.1 0 0.1 0 0.1 0 0.2 0 0.1 0 0.2 0 0.1 0 0.2-0.1 0.2 0 0.3 0 0.3-0.1 0.4-0.2l6.8-3.9q0 0 0 0 0.1-0.1 0.2-0.2 0.1-0.1 0.1-0.1 0.1-0.1 0.1-0.1 0-0.1 0-0.1 0.1-0.1 0.1-0.1 0-0.1 0-0.1 0 0 0 0v-2.7q0 0 0 0 0 0 0 0.1z"/><path class="g" d="m315.2 337.5v2.7q0 0.4 0.5 0.7l12.6 7.3q0.2 0.1 0.3 0.1 0.1 0.1 0.2 0.1 0.1 0 0.2 0 0 0 0.1 0.1 0.1 0 0.2 0 0.1 0 0.1 0 0.1 0 0.2 0 0.1 0 0.2 0 0.1 0 0.2-0.1 0.2 0 0.4 0 0.2-0.1 0.3-0.2l6.8-3.9q0 0 0-0.1 0.1 0 0.2-0.1 0.1-0.1 0.1-0.1 0.1-0.1 0.1-0.1 0-0.1 0-0.1 0.1-0.1 0.1-0.1 0-0.1 0-0.1 0 0 0 0v-2.7q0 0 0 0 0 0 0 0.1 0 0 0 0.1-0.1 0-0.1 0.1 0 0-0.1 0.1 0 0-0.1 0.1-0.1 0.1-0.2 0.1 0 0 0 0l-6.8 4q-0.1 0.1-0.3 0.1-0.2 0.1-0.4 0.1-0.1 0-0.2 0.1-0.1 0-0.2 0-0.1 0-0.1 0-0.1 0-0.2 0-0.1-0.1-0.2-0.1-0.1 0-0.1 0-0.1 0-0.2 0-0.1-0.1-0.2-0.1-0.1-0.1-0.2-0.1l-12.7-7.3q-0.5-0.3-0.5-0.7z"/><path class="g" d="m285.8 337.2l18.8 10.9q0.1 0 0.3 0.1v-2.7q-0.1-0.1-0.3-0.2l-18.8-10.8q-0.5-0.3-0.5-0.7v2.7q0 0.4 0.5 0.7z"/><path class="g" d="m305.1 348.2q0.1 0.1 0.2 0.1 0 0 0.1 0 0.1 0 0.2 0 0.1 0 0.2 0 0 0 0.1 0 0.1 0 0.2 0 0.1 0 0.2 0 0.2 0 0.4-0.1 0.2 0 0.3-0.1l6.8-4q0 0 0 0 0.1-0.1 0.2-0.1 0.1-0.1 0.1-0.2 0.1 0 0.1-0.1 0 0 0-0.1 0.1 0 0.1 0 0-0.1 0-0.1 0-0.1 0-0.1v-2.7q0 0 0 0 0 0.1 0 0.1 0 0.1 0 0.1-0.1 0.1-0.1 0.1 0 0.1-0.1 0.1 0 0.1-0.1 0.1-0.1 0.1-0.2 0.2 0 0 0 0l-6.8 3.9q-0.1 0.1-0.3 0.2-0.2 0.1-0.4 0.1-0.1 0-0.2 0-0.1 0-0.2 0 0 0-0.1 0-0.1 0-0.2 0-0.1 0-0.2 0 0 0-0.1 0-0.1 0-0.2-0.1-0.1 0-0.2 0v2.7q0.1 0 0.2 0z"/><path class="g" d="m304.9 345.5z"/><path class="g" d="m290.1 344q0.1-0.1 0.2-0.2 0.1 0 0.1-0.1 0.1-0.1 0.1-0.1 0-0.1 0-0.1 0 0 0.1-0.1 0 0 0-0.1 0 0 0 0v-2.7q0 0 0 0 0 0 0 0.1 0 0-0.1 0.1 0 0 0 0.1 0 0-0.1 0.1 0 0-0.1 0.1-0.1 0.1-0.2 0.2 0 0 0 0l-9.7 5.6q-0.1 0.1-0.3 0.1-0.2 0.1-0.4 0.1-0.1 0-0.2 0-0.1 0.1-0.2 0.1 0 0-0.1 0-0.1 0-0.2-0.1-0.1 0-0.2 0 0 0-0.1 0-0.1 0-0.2 0-0.1-0.1-0.2-0.1-0.1-0.1-0.2-0.1l-6.9-4q-0.5-0.3-0.5-0.7v2.8q0 0.3 0.5 0.7l6.9 3.9q0.1 0.1 0.2 0.1 0.1 0 0.2 0.1 0.1 0 0.2 0 0.1 0 0.1 0 0.1 0.1 0.2 0.1 0.1 0 0.2 0 0 0 0.1 0 0.1 0 0.2 0 0.1-0.1 0.2-0.1 0.2 0 0.4-0.1 0.2 0 0.3-0.1l9.7-5.6q0 0 0 0z"/><path class="g" d="m302.1 350.9q0.1-0.1 0.2-0.1 0.1-0.1 0.1-0.2 0.1 0 0.1-0.1 0 0 0-0.1 0.1 0 0.1-0.1 0 0 0 0 0-0.1 0-0.1v-2.7q0 0 0 0 0 0.1 0 0.1 0 0.1 0 0.1-0.1 0.1-0.1 0.1 0 0.1-0.1 0.1 0 0.1-0.1 0.1-0.1 0.1-0.2 0.2 0 0 0 0l-9.6 5.6q-0.2 0.1-0.4 0.2-0.2 0-0.3 0.1-0.1 0-0.2 0-0.1 0-0.2 0-0.1 0-0.2 0-0.1 0-0.2 0 0 0-0.1 0-0.1 0-0.2-0.1-0.1 0-0.2 0-0.1 0-0.2-0.1-0.1 0-0.2-0.1l-6.8-3.9q-0.5-0.3-0.5-0.7v2.7q0 0.4 0.5 0.7l6.8 3.9q0.1 0.1 0.2 0.1 0.1 0.1 0.2 0.1 0.1 0 0.2 0.1 0.1 0 0.2 0 0 0 0.1 0 0.1 0 0.2 0 0.1 0 0.2 0 0.1 0 0.2 0 0.1 0 0.2 0 0.1-0.1 0.3-0.1 0.2-0.1 0.4-0.2l9.6-5.6q0 0 0 0z"/><path class="g" d="m309.3 347.6v2.8q0 0.4 0.5 0.7l6.8 3.9q0.2 0.1 0.3 0.1 0.1 0.1 0.2 0.1 0.1 0 0.2 0 0 0 0.1 0.1 0.1 0 0.2 0 0.1 0 0.2 0 0 0 0.1 0 0.1 0 0.2 0 0.1 0 0.2-0.1 0.2 0 0.4 0 0.2-0.1 0.3-0.2l6.8-3.9q0 0 0-0.1 0.1 0 0.2-0.1 0.1-0.1 0.1-0.1 0.1-0.1 0.1-0.1 0-0.1 0.1-0.1 0-0.1 0-0.1 0-0.1 0-0.1 0 0 0 0v-2.8q0 0.1 0 0.1 0 0 0 0.1 0 0 0 0.1-0.1 0-0.1 0.1 0 0-0.1 0.1 0 0-0.1 0.1-0.1 0.1-0.2 0.1 0 0 0 0l-6.8 4q-0.1 0.1-0.3 0.1-0.2 0.1-0.4 0.1-0.1 0-0.2 0-0.1 0.1-0.2 0.1-0.1 0-0.1 0-0.1 0-0.2 0-0.1-0.1-0.2-0.1-0.1 0-0.1 0-0.1 0-0.2 0-0.1-0.1-0.2-0.1-0.1-0.1-0.2-0.1l-6.9-4q-0.5-0.3-0.5-0.7z"/><path class="g" d="m314.1 357.8q0.1 0 0.2-0.1 0.1-0.1 0.1-0.1 0.1-0.1 0.1-0.1 0-0.1 0.1-0.1 0-0.1 0-0.1 0-0.1 0-0.1 0 0 0 0v-2.8q0 0.1 0 0.1 0 0 0 0.1 0 0 0 0.1-0.1 0-0.1 0.1 0 0-0.1 0.1 0 0-0.1 0.1-0.1 0.1-0.2 0.1 0 0 0 0l-9.6 5.6q-0.2 0.1-0.4 0.2-0.2 0.1-0.3 0.1-0.1 0-0.2 0-0.1 0-0.2 0-0.1 0-0.2 0-0.1 0-0.2 0 0 0-0.1 0-0.1 0-0.2 0-0.1-0.1-0.2-0.1-0.1 0-0.2 0-0.1-0.1-0.2-0.2l-6.8-3.9q-0.5-0.3-0.5-0.7v2.7q0 0.4 0.5 0.7l6.8 4q0.1 0 0.2 0.1 0.1 0 0.2 0 0.1 0.1 0.2 0.1 0.1 0 0.2 0 0 0 0.1 0 0.1 0 0.2 0 0.1 0 0.2 0 0.1 0 0.2 0 0.1 0 0.2 0 0.1 0 0.3-0.1 0.2 0 0.4-0.1l9.6-5.6q0 0 0-0.1z"/><path class="g" d="m361.7 341.1q0 0.1 0 0.1 0 0.1-0.1 0.1 0 0.1 0 0.1-0.1 0.1-0.1 0.1-0.1 0.1-0.3 0.2 0 0 0 0l-6.7 3.9q-0.2 0.1-0.4 0.2-0.2 0-0.3 0.1-0.1 0-0.3 0-0.1 0-0.1 0-0.1 0-0.2 0-0.1 0-0.2 0-0.1 0-0.1 0-0.1 0-0.2 0-0.1-0.1-0.2-0.1-0.1 0-0.2-0.1-0.1 0-0.2-0.1l-6.8-3.9q-0.6-0.3-0.6-0.7v2.7q0 0.4 0.5 0.7l6.8 3.9q0.2 0.1 0.3 0.2 0.1 0 0.2 0 0.1 0 0.2 0.1 0.1 0 0.1 0 0.1 0 0.2 0 0.1 0 0.2 0 0.1 0 0.1 0 0.1 0 0.2 0 0.1 0 0.3 0 0.1-0.1 0.3-0.1 0.2-0.1 0.3-0.2l6.8-3.9q0 0 0 0 0.2-0.1 0.2-0.2 0.1 0 0.2-0.1 0 0 0-0.1 0 0 0.1-0.1 0 0 0-0.1 0 0 0-0.1 0 0 0 0v-2.7q0 0 0 0 0 0.1 0 0.1z"/><path class="g" d="m349.5 351.2q0.2-0.1 0.2-0.2 0.1 0 0.2-0.1 0 0 0-0.1 0 0 0.1-0.1 0 0 0-0.1 0 0 0-0.1 0 0 0 0v-2.7q0 0 0 0 0 0.1 0 0.1 0 0.1 0 0.1 0 0.1-0.1 0.1 0 0 0 0.1-0.1 0.1-0.1 0.1-0.1 0.1-0.3 0.2 0 0 0 0l-6.7 3.9q-0.2 0.1-0.4 0.2-0.2 0-0.3 0.1-0.1 0-0.3 0 0 0-0.1 0-0.1 0-0.2 0-0.1 0-0.2 0-0.1 0-0.1 0-0.1 0-0.2-0.1-0.1 0-0.2 0-0.1 0-0.2-0.1-0.1 0-0.2-0.1l-6.8-3.9q-0.6-0.3-0.6-0.7v2.7q0 0.4 0.5 0.7l6.8 3.9q0.2 0.1 0.3 0.2 0.1 0 0.2 0 0.1 0 0.2 0.1 0.1 0 0.1 0 0.1 0 0.2 0 0.1 0 0.2 0 0.1 0 0.2 0 0 0 0.1 0 0.1 0 0.3 0 0.1-0.1 0.3-0.1 0.2-0.1 0.4-0.2l6.7-3.9q0 0 0 0z"/><path class="g" d="m321.8 358l6.9 3.9q0.1 0.1 0.2 0.1 0.1 0.1 0.2 0.1 0.1 0 0.2 0.1 0.1 0 0.2 0 0 0 0.1 0 0.1 0 0.2 0 0.1 0 0.2 0 0 0 0.1 0 0.1 0 0.3 0 0.1-0.1 0.3-0.1 0.2-0.1 0.4-0.2l6.7-3.9q0 0 0 0 0.2-0.1 0.3-0.2 0 0 0.1-0.1 0 0 0-0.1 0.1 0 0.1-0.1 0 0 0-0.1 0 0 0-0.1 0 0 0 0v-2.7q0 0 0 0 0 0.1 0 0.1 0 0.1 0 0.1 0 0-0.1 0.1 0 0 0 0.1-0.1 0.1-0.1 0.1-0.1 0.1-0.3 0.2 0 0 0 0l-6.7 3.9q-0.2 0.1-0.4 0.2-0.2 0-0.3 0.1-0.1 0-0.3 0 0 0-0.1 0-0.1 0-0.2 0-0.1 0-0.2 0-0.1 0-0.1 0-0.1 0-0.2-0.1-0.1 0-0.2 0-0.1 0-0.2-0.1-0.1 0-0.2-0.1l-6.8-3.9q-0.5-0.3-0.5-0.7l-0.1 2.7q0 0.4 0.5 0.7z"/><path class="g" d="m326.1 364.8q0.2-0.1 0.3-0.2 0 0 0.1-0.1 0 0 0-0.1 0.1 0 0.1-0.1 0 0 0-0.1 0 0 0-0.1 0 0 0 0v-2.7q0 0 0 0 0 0.1 0 0.1 0 0.1 0 0.1 0 0-0.1 0.1 0 0 0 0.1-0.1 0.1-0.1 0.1-0.1 0.1-0.3 0.2 0 0 0 0l-9.6 5.6q-0.2 0.1-0.4 0.1-0.1 0.1-0.3 0.1-0.1 0-0.2 0.1-0.1 0-0.2 0-0.1 0-0.2 0-0.1 0-0.1 0-0.1 0-0.2-0.1-0.1 0-0.2 0-0.1 0-0.1 0-0.2-0.1-0.3-0.1-0.1-0.1-0.2-0.1l-6.8-4q-0.5-0.3-0.5-0.7v2.8q0 0.4 0.5 0.7l6.8 3.9q0.1 0.1 0.2 0.1 0.1 0.1 0.2 0.1 0.1 0 0.2 0 0.1 0 0.2 0.1 0.1 0 0.2 0 0 0 0.1 0 0.1 0 0.2 0 0.1 0 0.2 0 0.1 0 0.2-0.1 0.2 0 0.3 0 0.2-0.1 0.4-0.2l9.6-5.6q0 0 0 0z"/><path class="g" d="m373.7 348q0 0.1 0 0.1 0 0.1-0.1 0.1 0 0.1 0 0.1-0.1 0.1-0.1 0.1-0.1 0.1-0.3 0.2 0 0 0 0l-6.7 3.9q-0.2 0.1-0.4 0.2-0.2 0.1-0.3 0.1-0.2 0-0.3 0-0.1 0-0.1 0-0.1 0-0.2 0-0.1 0-0.2 0-0.1 0-0.1 0-0.1 0-0.2 0-0.1 0-0.2-0.1-0.1 0-0.2 0-0.1-0.1-0.2-0.1l-6.8-4q-0.6-0.3-0.6-0.7v2.7q0 0.4 0.5 0.7l6.9 4q0.1 0 0.2 0.1 0.1 0 0.2 0.1 0.1 0 0.2 0 0.1 0 0.1 0 0.1 0 0.2 0 0.1 0.1 0.2 0.1 0.1 0 0.1 0 0.1-0.1 0.2-0.1 0.1 0 0.2 0 0.2 0 0.4-0.1 0.2 0 0.4-0.1l6.7-4q0 0 0 0 0.2-0.1 0.2-0.1 0.1-0.1 0.2-0.2 0 0 0-0.1 0.1 0 0.1-0.1 0 0 0 0 0-0.1 0-0.1 0-0.1 0-0.1v-2.7q0 0 0 0 0 0.1 0 0.1z"/><path class="g" d="m385.7 355q0 0 0 0.1 0 0 0 0.1-0.1 0-0.1 0.1-0.1 0-0.1 0.1-0.1 0.1-0.2 0.1 0 0.1-0.1 0.1l-6.7 3.9q-0.2 0.1-0.4 0.2-0.2 0-0.3 0-0.1 0.1-0.2 0.1-0.1 0-0.2 0-0.1 0-0.2 0-0.1 0-0.2 0 0 0-0.1 0-0.1-0.1-0.2-0.1-0.1 0-0.2 0-0.1-0.1-0.2-0.1-0.1 0-0.2-0.1l-6.8-3.9q-0.5-0.3-0.5-0.7v2.7q0 0.4 0.5 0.7l6.8 3.9q0.1 0.1 0.2 0.1 0.1 0.1 0.2 0.1 0.1 0 0.2 0 0.1 0.1 0.2 0.1 0.1 0 0.1 0 0.1 0 0.2 0 0.1 0 0.2 0 0.1 0 0.2 0 0.1 0 0.2 0 0.1-0.1 0.3-0.1 0.2-0.1 0.4-0.2l6.7-3.9q0 0 0.1 0 0.1-0.1 0.2-0.2 0-0.1 0.1-0.1 0-0.1 0-0.1 0.1-0.1 0.1-0.1 0-0.1 0-0.1 0-0.1 0-0.1 0 0 0 0v-2.7q0 0 0 0 0 0 0 0.1z"/><path class="g" d="m345.5 358.1l6.9 4q0.1 0 0.2 0.1 0.1 0 0.2 0.1 0.1 0 0.2 0 0.1 0 0.1 0 0.1 0 0.2 0 0.1 0 0.2 0.1 0.1 0 0.1 0 0.1-0.1 0.2-0.1 0.1 0 0.3 0 0.1 0 0.3-0.1 0.2 0 0.4-0.1l6.7-4q0 0 0 0 0.2-0.1 0.3-0.1 0-0.1 0.1-0.2 0 0 0-0.1 0.1 0 0.1-0.1 0 0 0 0 0-0.1 0-0.1 0-0.1 0-0.1v-2.7q0 0 0 0 0 0.1 0 0.1 0 0.1 0 0.1 0 0.1-0.1 0.1 0 0.1 0 0.1-0.1 0.1-0.1 0.1-0.1 0.1-0.3 0.2 0 0 0 0l-6.7 3.9q-0.2 0.1-0.4 0.2-0.2 0.1-0.3 0.1-0.1 0-0.3 0-0.1 0-0.1 0-0.1 0-0.2 0-0.1 0-0.2 0-0.1 0-0.1 0-0.1 0-0.2 0-0.1 0-0.2-0.1-0.1 0-0.2 0-0.1-0.1-0.2-0.1l-6.8-4q-0.5-0.3-0.5-0.7l-0.1 2.7q0 0.4 0.5 0.7z"/><path class="g" d="m357.6 365.1l6.8 3.9q0.1 0.1 0.2 0.1 0.1 0.1 0.2 0.1 0.1 0 0.2 0 0.1 0.1 0.2 0.1 0.1 0 0.1 0 0.1 0 0.2 0 0.1 0 0.2 0 0.1 0 0.2 0 0.1 0 0.2-0.1 0.1 0 0.3 0 0.2-0.1 0.4-0.2l6.7-3.9q0 0 0.1 0 0.1-0.1 0.2-0.2 0-0.1 0.1-0.1 0-0.1 0-0.1 0.1-0.1 0.1-0.1 0-0.1 0-0.1 0-0.1 0-0.1 0 0 0 0v-2.7q0 0 0 0 0 0 0 0.1 0 0 0 0.1 0 0 0 0.1-0.1 0-0.1 0.1-0.1 0-0.1 0.1-0.1 0.1-0.2 0.1 0 0.1-0.1 0.1l-6.7 3.9q-0.2 0.1-0.4 0.2-0.1 0-0.3 0-0.1 0.1-0.2 0.1-0.1 0-0.2 0-0.1 0-0.2 0-0.1 0-0.2 0 0 0-0.1-0.1-0.1 0-0.2 0-0.1 0-0.2 0-0.1-0.1-0.2-0.1-0.1 0-0.2-0.1l-6.8-3.9q-0.5-0.3-0.5-0.7v2.7q0 0.4 0.5 0.7z"/><path class="g" d="m397.7 361.9q0 0.1 0 0.1 0 0.1 0 0.1-0.1 0.1-0.1 0.1-0.1 0.1-0.1 0.1-0.1 0.1-0.2 0.2 0 0-0.1 0l-6.7 3.9q-0.2 0.1-0.4 0.2-0.1 0-0.3 0.1-0.1 0-0.2 0-0.1 0-0.2 0-0.1 0-0.2 0-0.1 0-0.2 0 0 0-0.1 0-0.1 0-0.2 0-0.1-0.1-0.2-0.1-0.1 0-0.2-0.1-0.1 0-0.2-0.1l-6.8-3.9q-0.5-0.3-0.5-0.7v2.7q0 0.4 0.5 0.7l6.8 3.9q0.1 0.1 0.2 0.2 0.1 0 0.2 0 0.1 0 0.2 0.1 0.1 0 0.2 0 0.1 0 0.1 0 0.1 0 0.2 0 0.1 0 0.2 0 0.1 0 0.2 0 0.1 0 0.2 0 0.1 0 0.3-0.1 0.2-0.1 0.4-0.2l6.7-3.9q0 0 0.1 0 0.1-0.1 0.2-0.2 0 0 0.1-0.1 0 0 0-0.1 0.1 0 0.1-0.1 0 0 0-0.1 0 0 0-0.1 0 0 0 0v-2.7q0 0 0 0 0 0.1 0 0.1z"/><path class="g" d="m369.6 372l6.8 3.9q0.1 0.1 0.2 0.2 0.1 0 0.2 0 0.1 0 0.2 0.1 0.1 0 0.2 0 0.1 0 0.1 0 0.1 0 0.2 0 0.1 0 0.2 0 0.1 0 0.2 0 0.1 0 0.2 0 0.1-0.1 0.3-0.1 0.2-0.1 0.4-0.2l6.7-3.9q0 0 0.1 0 0.1-0.1 0.2-0.2 0 0 0.1-0.1 0 0 0.1-0.1 0 0 0-0.1 0 0 0-0.1 0 0 0-0.1 0 0 0 0v-2.7q0 0 0 0 0 0.1 0 0.1 0 0.1 0 0.1 0 0.1 0 0.1-0.1 0.1-0.1 0.1-0.1 0.1-0.1 0.1-0.1 0.1-0.2 0.2 0 0-0.1 0l-6.7 3.9q-0.2 0.1-0.4 0.2-0.1 0-0.3 0.1-0.1 0-0.2 0-0.1 0-0.2 0-0.1 0-0.2 0-0.1 0-0.2 0 0 0-0.1 0-0.1 0-0.2-0.1-0.1 0-0.2 0-0.1 0-0.2-0.1-0.1 0-0.2-0.1l-6.8-3.9q-0.5-0.3-0.5-0.7v2.7q0 0.4 0.5 0.7z"/><path class="g" d="m333.9 364.9l6.8 4q0.1 0 0.2 0.1 0.1 0 0.2 0.1 0.1 0 0.2 0 0.1 0 0.1 0 0.1 0 0.2 0 0.1 0 0.2 0 0.1 0.1 0.2 0 0 0 0.1 0 0.1 0 0.3 0 0.1 0 0.3-0.1 0.2 0 0.4-0.1l6.7-4q0 0 0 0 0.2-0.1 0.3-0.1 0-0.1 0.1-0.2 0 0 0-0.1 0.1 0 0.1-0.1 0 0 0-0.1 0 0 0 0 0-0.1 0-0.1v-2.7q0 0 0 0 0 0.1 0 0.1 0 0.1 0 0.1 0 0.1-0.1 0.1 0 0.1 0 0.1-0.1 0.1-0.1 0.1-0.1 0.1-0.3 0.2 0 0 0 0l-6.7 3.9q-0.2 0.1-0.4 0.2-0.2 0.1-0.3 0.1-0.1 0-0.3 0 0 0-0.1 0-0.1 0-0.2 0-0.1 0-0.2 0-0.1 0-0.1 0-0.1 0-0.2 0-0.1 0-0.2-0.1-0.1 0-0.2 0-0.1-0.1-0.2-0.1l-6.8-4q-0.5-0.3-0.5-0.7l-0.1 2.7q0 0.4 0.6 0.7z"/><path class="g" d="m345.9 371.9l6.8 3.9q0.1 0.1 0.2 0.1 0.1 0.1 0.2 0.1 0.1 0 0.2 0 0.1 0 0.2 0.1 0.1 0 0.1 0 0.1 0 0.2 0 0.1 0 0.2 0 0.1 0 0.2 0 0.1 0 0.2-0.1 0.1 0 0.3 0 0.2-0.1 0.4-0.2l6.7-3.9q0 0 0.1 0 0.1-0.1 0.2-0.2 0-0.1 0.1-0.1 0-0.1 0.1-0.1 0-0.1 0-0.1 0-0.1 0-0.1 0-0.1 0-0.1 0 0 0 0v-2.7q0 0 0 0 0 0 0 0.1 0 0 0 0.1 0 0 0 0.1-0.1 0-0.1 0.1-0.1 0-0.1 0.1-0.1 0.1-0.2 0.1 0 0-0.1 0.1l-6.7 3.9q-0.2 0.1-0.4 0.1-0.1 0.1-0.3 0.1-0.1 0-0.2 0.1-0.1 0-0.2 0-0.1 0-0.2 0-0.1 0-0.2 0 0 0-0.1-0.1-0.1 0-0.2 0-0.1 0-0.2 0-0.1-0.1-0.2-0.1-0.1 0-0.2-0.1l-6.8-3.9q-0.5-0.4-0.5-0.7v2.7q0 0.4 0.5 0.7z"/><path class="g" d="m357.9 378.8l6.8 3.9q0.1 0.1 0.2 0.1 0.1 0.1 0.2 0.1 0.1 0 0.2 0.1 0.1 0 0.2 0 0.1 0 0.1 0 0.1 0 0.2 0 0.1 0 0.2 0 0.1 0 0.2 0 0.1 0 0.2 0 0.2-0.1 0.3-0.1 0.2-0.1 0.4-0.2l6.7-3.9q0.1 0 0.1 0 0.1-0.1 0.2-0.2 0 0 0.1-0.1 0 0 0.1-0.1 0 0 0-0.1 0 0 0-0.1 0 0 0-0.1 0 0 0 0v-2.7q0 0 0 0 0 0.1 0 0.1 0 0.1 0 0.1 0 0 0 0.1-0.1 0-0.1 0.1-0.1 0.1-0.1 0.1-0.1 0.1-0.2 0.2 0 0-0.1 0l-6.7 3.9q-0.2 0.1-0.4 0.2-0.1 0-0.3 0.1-0.1 0-0.2 0-0.1 0-0.2 0-0.1 0-0.2 0-0.1 0-0.1 0-0.1 0-0.2 0-0.1 0-0.2-0.1-0.1 0-0.2 0-0.1 0-0.2-0.1-0.1 0-0.2-0.1l-6.8-3.9q-0.5-0.3-0.5-0.7v2.7q0 0.4 0.5 0.7z"/><path class="g" d="m409.8 368.9q-0.1 0-0.1 0 0 0.1 0 0.1-0.1 0.1-0.1 0.1 0 0.1-0.1 0.2-0.1 0-0.2 0.1 0 0 0 0l-6.8 4q-0.2 0.1-0.4 0.1-0.1 0.1-0.3 0.1-0.1 0-0.2 0-0.1 0-0.2 0-0.1 0.1-0.2 0 0 0-0.1 0-0.1 0-0.2 0-0.1 0-0.2 0-0.1 0-0.1-0.1-0.1 0-0.2 0-0.2-0.1-0.3-0.1l-6.8-4q-0.5-0.3-0.5-0.7v2.8q0 0.3 0.5 0.6l6.8 4q0.1 0 0.2 0.1 0.1 0 0.3 0.1 0 0 0.1 0 0.1 0 0.2 0 0.1 0 0.2 0.1 0 0 0.1 0 0.1 0 0.2 0 0.1 0 0.2 0 0.1-0.1 0.2-0.1 0.2 0 0.3-0.1 0.2 0 0.4-0.1l6.8-4q0 0 0 0 0.1 0 0.2-0.1 0.1-0.1 0.1-0.1 0-0.1 0.1-0.1 0-0.1 0-0.1 0-0.1 0-0.1 0.1-0.1 0.1-0.1 0 0 0 0v-2.8q0 0 0 0.1 0 0 0 0.1z"/><path class="g" d="m381.6 378.9l6.8 4q0.1 0 0.2 0.1l0.1-2.7q-0.2-0.1-0.3-0.1l-6.8-4q-0.5-0.3-0.5-0.7v2.7q0 0.4 0.5 0.7z"/><path class="g" d="m388.9 383.1q0 0 0.1 0 0.1 0 0.2 0 0.1 0 0.2 0.1 0 0 0.1 0 0.1 0 0.2 0 0.1 0 0.2-0.1 0.1 0 0.2 0 0.2 0 0.3-0.1 0.2 0 0.4-0.1l6.8-4q0 0 0 0 0.1 0 0.2-0.1 0.1-0.1 0.1-0.1 0-0.1 0.1-0.1 0-0.1 0-0.1 0-0.1 0-0.1 0.1-0.1 0.1-0.1 0 0 0 0v-2.8q0 0 0 0.1 0 0 0 0-0.1 0.1-0.1 0.1 0 0.1 0 0.1 0 0.1-0.1 0.1 0 0.1-0.1 0.2-0.1 0-0.2 0.1 0 0 0 0l-6.8 4q-0.2 0.1-0.4 0.1-0.1 0.1-0.3 0.1-0.1 0-0.2 0-0.1 0-0.2 0-0.1 0-0.2 0 0 0-0.1 0-0.1 0-0.2 0-0.1 0-0.2 0 0 0-0.1-0.1-0.1 0-0.2 0l-0.1 2.7q0.1 0 0.3 0.1z"/><path class="g" d="m388.7 380.3z"/><path class="g" d="m369.9 385.7l6.8 4q0.1 0 0.3 0.1 0.1 0 0.2 0.1 0 0 0.1 0 0.1 0 0.2 0 0.1 0 0.2 0.1 0 0 0.1 0 0.1 0 0.2 0 0.1 0 0.2-0.1 0.1 0 0.2 0 0.2 0 0.3-0.1 0.2 0 0.4-0.1l6.8-4q0 0 0 0 0.1 0 0.2-0.1 0.1-0.1 0.1-0.1 0-0.1 0.1-0.1 0-0.1 0-0.1 0-0.1 0-0.1 0.1-0.1 0.1-0.1 0 0 0 0v-2.8q0 0 0 0.1 0 0 0 0-0.1 0.1-0.1 0.1 0 0.1 0 0.1 0 0.1-0.1 0.1 0 0.1-0.1 0.2-0.1 0-0.2 0.1 0 0 0 0l-6.8 4q-0.2 0.1-0.4 0.1-0.1 0.1-0.3 0.1-0.1 0-0.2 0-0.1 0-0.2 0-0.1 0-0.2 0 0 0-0.1 0-0.1 0-0.2 0-0.1 0-0.2 0 0 0-0.1-0.1-0.1 0-0.2 0-0.2-0.1-0.3-0.1l-6.8-4q-0.5-0.3-0.5-0.7v2.7q0 0.4 0.5 0.7z"/><path class="g" d="m374.2 392.5q0.1 0 0.2-0.1 0.1-0.1 0.1-0.1 0.1-0.1 0.1-0.1 0-0.1 0-0.1 0-0.1 0.1-0.1 0-0.1 0-0.1 0 0 0-0.1v-2.7q0 0 0 0 0 0.1 0 0.1-0.1 0.1-0.1 0.1 0 0.1 0 0.1 0 0.1-0.1 0.1 0 0.1-0.1 0.2-0.1 0-0.2 0.1 0 0 0 0l-9.7 5.6q-0.1 0.1-0.3 0.2-0.2 0-0.4 0.1-0.1 0-0.2 0-0.1 0-0.2 0 0 0-0.1 0-0.1 0-0.2 0-0.1 0-0.2 0 0 0-0.1 0-0.1-0.1-0.2-0.1-0.1 0-0.2-0.1-0.1 0-0.3-0.1l-42.8-24.7q-0.5-0.3-0.5-0.7v2.7q0 0.4 0.5 0.7l42.8 24.7q0.2 0.1 0.3 0.2 0.1 0 0.2 0 0.1 0 0.2 0.1 0.1 0 0.1 0 0.1 0 0.2 0 0.1 0 0.2 0 0.1 0 0.1 0 0.1 0 0.2 0 0.1 0 0.2 0 0.2 0 0.4-0.1 0.2-0.1 0.3-0.2l9.7-5.6q0 0 0 0z"/><path class="g" d="m412.9 383.3q0.1 0 0.2 0 0 0 0.1 0 0.1 0 0.2 0 0.1 0 0.2 0 0.1 0 0.2 0 0.2-0.1 0.3-0.1 0.2-0.1 0.4-0.2l6.8-3.9q0 0 0 0 0.1-0.1 0.2-0.2 0.1-0.1 0.1-0.1 0-0.1 0.1-0.1 0-0.1 0-0.1 0-0.1 0-0.1 0.1-0.1 0.1-0.1 0 0 0 0v-2.7q0 0 0 0 0 0 0 0.1-0.1 0-0.1 0.1 0 0 0 0.1 0 0-0.1 0.1 0 0-0.1 0.1-0.1 0.1-0.2 0.1 0 0.1 0 0.1l-6.8 3.9q-0.2 0.1-0.4 0.2-0.1 0-0.3 0-0.1 0.1-0.2 0.1-0.1 0-0.2 0-0.1 0-0.2 0 0 0-0.1 0-0.1 0-0.2 0-0.1-0.1-0.2-0.1v2.7q0.1 0.1 0.2 0.1z"/><path class="g" d=""/><path class="g" d="m412.6 380.5q-0.1-0.1-0.2-0.1-0.2 0-0.3-0.1l-6.8-3.9q-0.5-0.3-0.5-0.7v2.7q0 0.4 0.5 0.7l6.8 3.9q0.1 0.1 0.2 0.1 0.1 0.1 0.3 0.1 0 0 0.1 0v-2.7q0 0-0.1 0z"/><path class="g" d="m393.6 385.9l6.8 3.9q0.1 0.1 0.3 0.1 0.1 0.1 0.2 0.1 0 0 0.1 0 0.1 0.1 0.2 0.1v-2.8q-0.1 0-0.2 0 0 0-0.1 0-0.1-0.1-0.2-0.1-0.2 0-0.3-0.1l-6.8-3.9q-0.5-0.3-0.5-0.7v2.7q0 0.4 0.5 0.7z"/><path class="g" d="m401.4 390.1q0 0 0.1 0 0.1 0 0.2 0 0.1 0 0.2 0 0.1 0 0.2-0.1 0.2 0 0.3 0 0.2-0.1 0.4-0.2l6.8-3.9q0 0 0 0 0.1-0.1 0.2-0.2 0.1-0.1 0.1-0.1 0-0.1 0.1-0.1 0-0.1 0-0.1 0-0.1 0-0.1 0.1-0.1 0.1-0.1 0 0 0 0v-2.7q0 0 0 0 0 0 0 0.1-0.1 0-0.1 0.1 0 0 0 0.1 0 0-0.1 0.1 0 0-0.1 0.1-0.1 0.1-0.2 0.1 0 0.1 0 0.1l-6.8 3.9q-0.2 0.1-0.4 0.2-0.1 0-0.3 0-0.1 0.1-0.2 0.1-0.1 0-0.2 0-0.1 0-0.2 0 0 0-0.1 0-0.1 0-0.2-0.1v2.8q0.1 0 0.2 0z"/><path class="g" d="m401.2 387.3z"/><path class="g" d="m381.9 392.7l6.8 3.9q0.1 0.1 0.3 0.1 0.1 0.1 0.2 0.1 0 0 0.1 0v-2.7q0 0-0.1 0-0.1-0.1-0.2-0.1-0.2 0-0.3-0.1l-6.8-3.9q-0.5-0.4-0.5-0.7v2.7q0 0.4 0.5 0.7z"/><path class="g" d="m389.5 396.9q0.1 0 0.2 0 0.1 0 0.1 0 0.1 0 0.2 0 0.1 0 0.2 0 0.1 0 0.2-0.1 0.2 0 0.3 0 0.2-0.1 0.4-0.2l6.8-3.9q0 0 0 0 0.1-0.1 0.2-0.2 0.1-0.1 0.1-0.1 0.1-0.1 0.1-0.1 0-0.1 0-0.1 0-0.1 0.1-0.1 0-0.1 0-0.1 0 0 0 0v-2.7q0 0 0 0 0 0 0 0.1-0.1 0-0.1 0.1 0 0 0 0.1 0 0-0.1 0.1 0 0-0.1 0.1-0.1 0.1-0.2 0.1 0 0.1 0 0.1l-6.8 3.9q-0.2 0.1-0.4 0.2-0.1 0-0.3 0-0.1 0-0.2 0.1-0.1 0-0.2 0-0.1 0-0.2 0 0 0-0.1 0-0.1 0-0.2-0.1-0.1 0-0.2 0v2.7q0.1 0.1 0.2 0.1z"/><path class="g" d=""/><path class="g" d="m386.2 399.5q0.1-0.1 0.2-0.2 0.1-0.1 0.1-0.1 0.1-0.1 0.1-0.1 0-0.1 0-0.1 0-0.1 0.1-0.1 0-0.1 0-0.1 0 0 0 0v-2.7q0 0 0 0 0 0 0 0.1 0 0-0.1 0.1 0 0 0 0.1 0 0-0.1 0.1 0 0-0.1 0.1-0.1 0.1-0.2 0.1 0 0 0 0.1l-9.7 5.5q-0.1 0.1-0.3 0.2-0.2 0.1-0.3 0.1-0.2 0-0.3 0-0.1 0-0.1 0-0.1 0-0.2 0-0.1 0-0.2 0-0.1 0-0.2 0 0 0-0.1 0-0.1 0-0.2-0.1-0.1 0-0.2 0-0.1-0.1-0.3-0.2l-6.8-3.9q-0.5-0.3-0.5-0.7v2.7q0 0.4 0.5 0.7l6.8 4q0.2 0 0.3 0.1 0.1 0 0.2 0.1 0.1 0 0.2 0 0.1 0 0.1 0 0.1 0 0.2 0 0.1 0.1 0.2 0.1 0.1 0 0.1 0 0.1-0.1 0.2-0.1 0.1 0 0.2 0 0.2 0 0.4-0.1 0.2 0 0.3-0.1l9.7-5.6q0 0 0 0z"/><path class="g" d="m433.8 382.7q0 0.1-0.1 0.1 0 0.1 0 0.1 0 0.1-0.1 0.1 0 0.1-0.1 0.1-0.1 0.1-0.2 0.2 0 0 0 0l-6.8 3.9q-0.1 0.1-0.3 0.2-0.2 0-0.4 0.1-0.1 0-0.2 0-0.1 0-0.2 0-0.1 0-0.1 0-0.1 0-0.2 0-0.1 0-0.2 0-0.1 0-0.1 0-0.1-0.1-0.2-0.1-0.1 0-0.2-0.1-0.2 0-0.3-0.1l-6.8-3.9q-0.5-0.3-0.5-0.7v2.7q0 0.4 0.5 0.7l6.8 3.9q0.1 0.1 0.3 0.2 0.1 0 0.2 0 0.1 0.1 0.2 0.1 0 0 0.1 0 0.1 0 0.2 0 0.1 0 0.2 0 0 0 0.1 0 0.1 0 0.2 0 0.1 0 0.2 0 0.2 0 0.3-0.1 0.2-0.1 0.4-0.2l6.8-3.9q0 0 0 0 0.1-0.1 0.2-0.2 0.1 0 0.1-0.1 0.1 0 0.1-0.1 0 0 0-0.1 0.1 0 0.1-0.1 0 0 0-0.1 0 0 0 0v-2.7q0 0 0 0 0 0.1 0 0.1z"/><path class="g" d="m405.6 392.8l6.8 3.9q0.1 0.1 0.3 0.2 0.1 0 0.2 0 0.1 0.1 0.2 0.1 0 0 0.1 0 0.1 0 0.2 0 0.1 0 0.2 0 0 0 0.1 0 0.1 0 0.2 0 0.1 0 0.2 0 0.2 0 0.3-0.1 0.3-0.1 0.4-0.2l6.8-3.9q0 0 0 0 0.1-0.1 0.2-0.2 0.1 0 0.1-0.1 0.1 0 0.1-0.1 0 0 0-0.1 0.1 0 0.1-0.1 0 0 0-0.1 0 0 0 0v-2.7q0 0 0 0 0 0.1 0 0.1 0 0.1 0 0.1-0.1 0.1-0.1 0.1 0 0.1-0.1 0.1 0 0.1-0.1 0.1-0.1 0.1-0.2 0.2 0 0 0 0l-6.8 3.9q-0.1 0.1-0.3 0.2-0.2 0-0.4 0.1-0.1 0-0.2 0-0.1 0-0.2 0-0.1 0-0.1 0-0.1 0-0.2 0-0.1 0-0.2 0-0.1 0-0.1 0-0.1-0.1-0.2-0.1-0.1 0-0.2-0.1-0.2 0-0.3-0.1l-6.8-3.9q-0.5-0.3-0.5-0.7v2.7q0 0.4 0.5 0.7z"/><path class="g" d="m393.9 399.6l6.8 3.9q0.1 0.1 0.3 0.2 0.1 0 0.2 0 0.1 0.1 0.2 0.1 0 0 0.1 0 0.1 0 0.2 0 0.1 0 0.2 0 0 0 0.1 0 0.1 0 0.2 0 0.1 0 0.2 0 0.2 0 0.4-0.1 0.2-0.1 0.3-0.2l6.8-3.9q0 0 0 0 0.1-0.1 0.2-0.2 0.1 0 0.1-0.1 0.1 0 0.1-0.1 0 0 0-0.1 0.1 0 0.1-0.1 0 0 0-0.1 0 0 0 0v-2.7q0 0 0 0 0 0.1 0 0.1 0 0.1 0 0.1-0.1 0.1-0.1 0.1 0 0.1-0.1 0.1 0 0.1-0.1 0.1-0.1 0.1-0.2 0.2 0 0 0 0l-6.8 3.9q-0.1 0.1-0.3 0.2-0.2 0-0.4 0.1-0.1 0-0.2 0-0.1 0-0.2 0 0 0-0.1 0-0.1 0-0.2 0-0.1 0-0.2 0 0 0-0.1 0-0.1-0.1-0.2-0.1-0.1 0-0.2-0.1-0.1 0-0.3-0.1l-6.8-3.9q-0.5-0.3-0.5-0.7v2.7q0 0.4 0.5 0.7z"/><path class="g" d="m398.2 406.4q0.1-0.1 0.2-0.2 0.1 0 0.1-0.1 0.1 0 0.1-0.1 0 0 0-0.1 0.1 0 0.1-0.1 0 0 0-0.1 0 0 0 0v-2.7q0 0 0 0 0 0.1 0 0.1 0 0.1 0 0.1-0.1 0.1-0.1 0.1 0 0.1-0.1 0.1 0 0.1-0.1 0.1-0.1 0.1-0.2 0.2 0 0 0 0l-9.6 5.6q-0.2 0.1-0.4 0.2-0.2 0-0.3 0-0.1 0.1-0.2 0.1-0.1 0-0.2 0-0.1 0-0.2 0-0.1 0-0.2 0 0 0-0.1 0-0.1-0.1-0.2-0.1-0.1 0-0.2 0-0.1-0.1-0.2-0.1-0.1 0-0.2-0.1l-6.9-3.9q-0.4-0.3-0.4-0.7v2.7q0 0.4 0.4 0.7l6.9 3.9q0.1 0.1 0.2 0.1 0.1 0.1 0.2 0.1 0.1 0 0.2 0 0.1 0.1 0.2 0.1 0 0 0.1 0 0.1 0 0.2 0 0.1 0 0.2 0 0.1 0 0.2 0 0.1 0 0.2 0 0.1-0.1 0.3-0.1 0.2-0.1 0.4-0.2l9.6-5.6q0 0 0 0z"/><path class="g" d="m436.6 397.1q0.1 0 0.2 0 0 0 0.1 0 0.1 0 0.2 0.1 0.1 0 0.2 0 0 0 0.1 0 0.1 0 0.2 0 0.1-0.1 0.2-0.1 0.2 0 0.3-0.1 0.3 0 0.4-0.1l6.8-4q0 0 0 0 0.1 0 0.2-0.1 0.1-0.1 0.1-0.1 0.1-0.1 0.1-0.1 0-0.1 0-0.1 0.1-0.1 0.1-0.1 0-0.1 0-0.1 0 0 0 0v-2.8q0 0 0 0.1 0 0 0 0.1 0 0 0 0-0.1 0.1-0.1 0.1 0 0.1-0.1 0.1 0 0.1-0.1 0.2-0.1 0-0.2 0.1 0 0 0 0l-6.8 4q-0.1 0.1-0.3 0.1-0.2 0.1-0.4 0.1-0.1 0-0.2 0-0.1 0-0.2 0-0.1 0.1-0.1 0-0.1 0-0.2 0-0.1 0-0.2 0-0.1 0-0.1 0-0.1 0-0.2-0.1-0.1 0-0.2 0v2.7q0.1 0 0.2 0.1z"/><path class="g" d=""/><path class="g" d="m436.1 394.2l-6.8-4q-0.5-0.3-0.5-0.7v2.7q0 0.4 0.5 0.7l6.8 4q0.1 0 0.3 0.1v-2.7q-0.2-0.1-0.3-0.1z"/><path class="g" d="m417.6 399.7l6.8 4q0.1 0 0.3 0.1 0.1 0 0.2 0.1 0.1 0 0.2 0 0 0 0.1 0 0.1 0 0.2 0.1 0.1 0 0.2 0 0 0 0.1 0 0.1 0 0.2-0.1 0.1 0 0.2 0 0.2 0 0.4-0.1 0.2 0 0.3-0.1l6.8-4q0 0 0 0 0.1 0 0.2-0.1 0.1-0.1 0.1-0.1 0.1-0.1 0.1-0.1 0-0.1 0-0.1 0.1-0.1 0.1-0.1 0-0.1 0-0.1 0 0 0 0v-2.8q0 0 0 0.1 0 0 0 0.1 0 0 0 0-0.1 0.1-0.1 0.1 0 0.1-0.1 0.1 0 0.1-0.1 0.2-0.1 0-0.2 0.1 0 0 0 0l-6.8 4q-0.1 0.1-0.3 0.1-0.2 0.1-0.4 0.1-0.1 0-0.2 0-0.1 0-0.2 0 0 0-0.1 0-0.1 0-0.2 0-0.1 0-0.2 0 0 0-0.1 0-0.1 0-0.2-0.1-0.1 0-0.2 0-0.1-0.1-0.3-0.1l-6.8-4q-0.5-0.3-0.5-0.7v2.7q0 0.4 0.5 0.7z"/><path class="g" d="m405.9 406.5l6.8 4q0.1 0 0.3 0.1v-2.7q-0.1-0.1-0.3-0.1l-6.8-4q-0.5-0.3-0.5-0.7v2.7q0 0.4 0.5 0.7z"/><path class="g" d="m413.2 410.7q0.1 0 0.2 0 0 0 0.1 0 0.1 0 0.2 0.1 0.1 0 0.2 0 0 0 0.1 0 0.1 0 0.2-0.1 0.1 0 0.2 0 0.2 0 0.4-0.1 0.2 0 0.3-0.1l6.8-4q0 0 0 0 0.1 0 0.2-0.1 0.1-0.1 0.1-0.1 0.1-0.1 0.1-0.1 0-0.1 0-0.1 0.1-0.1 0.1-0.1 0-0.1 0-0.1 0 0 0 0v-2.8q0 0 0 0.1 0 0 0 0 0 0.1 0 0.1-0.1 0.1-0.1 0.1 0 0.1-0.1 0.1 0 0.1-0.1 0.2-0.1 0-0.2 0.1 0 0 0 0l-6.8 4q-0.1 0.1-0.3 0.1-0.2 0.1-0.4 0.1-0.1 0-0.2 0-0.1 0-0.2 0 0 0-0.1 0-0.1 0-0.2 0-0.1 0-0.2 0 0 0-0.1 0-0.1 0-0.2-0.1-0.1 0-0.2 0v2.7q0.1 0 0.2 0.1z"/><path class="g" d=""/><path class="g" d="m410.2 413.3q0.1 0 0.2-0.1 0.1-0.1 0.1-0.1 0.1-0.1 0.1-0.1 0-0.1 0.1-0.1 0-0.1 0-0.1 0-0.1 0-0.1 0 0 0 0v-2.8q0 0 0 0 0 0.1 0 0.1 0 0.1 0 0.1-0.1 0.1-0.1 0.1 0 0.1-0.1 0.1 0 0.1-0.1 0.2-0.1 0-0.2 0.1 0 0 0 0l-9.6 5.6q-0.2 0.1-0.4 0.2-0.2 0-0.3 0.1-0.1 0-0.2 0-0.1 0-0.2 0-0.1 0-0.2 0-0.1 0-0.2 0 0 0-0.1 0-0.1 0-0.2 0-0.1-0.1-0.2-0.1-0.1 0-0.2-0.1-0.1 0-0.2-0.1l-6.8-3.9q-0.5-0.3-0.5-0.7v2.7q0 0.4 0.5 0.7l6.8 3.9q0.1 0.1 0.2 0.2 0.1 0 0.2 0 0.1 0 0.2 0.1 0.1 0 0.2 0 0 0 0.1 0 0.1 0 0.2 0 0.1 0 0.2 0 0.1 0 0.2 0 0.1 0 0.2 0 0.1 0 0.3-0.1 0.2-0.1 0.4-0.2l9.6-5.6q0 0 0 0z"/><path class="g" d="m449.4 404.1q0.1 0 0.2 0 0.1 0 0.3 0 0.1-0.1 0.3-0.1 0.2-0.1 0.3-0.2l6.8-3.9q0 0 0 0 0.2-0.1 0.2-0.2 0.1 0 0.2-0.1 0 0 0-0.1 0 0 0.1-0.1 0 0 0-0.1 0 0 0-0.1 0 0 0 0v-2.7q0 0 0 0 0 0 0 0.1 0 0 0 0.1 0 0-0.1 0.1 0 0 0 0.1-0.1 0-0.1 0.1-0.1 0.1-0.3 0.2 0 0 0 0l-6.7 3.9q-0.2 0.1-0.4 0.2-0.2 0-0.3 0-0.1 0.1-0.3 0.1 0 0-0.1 0-0.1 0-0.2 0v2.7q0.1 0 0.1 0z"/><path class="g" d=""/><path class="g" d="m449.1 401.4q-0.1 0-0.1 0-0.1 0-0.2-0.1-0.1 0-0.2 0-0.1 0-0.2-0.1-0.1 0-0.2-0.1l-6.9-3.9q-0.5-0.3-0.5-0.7v2.7q0 0.4 0.5 0.7l6.8 3.9q0.2 0.1 0.3 0.1 0.1 0.1 0.2 0.1 0.1 0 0.2 0.1 0.1 0 0.1 0 0.1 0 0.2 0 0.1 0 0.2 0v-2.7q-0.1 0-0.2 0z"/><path class="g" d="m436.7 410.7q0.1 0.1 0.2 0.1 0.1 0 0.2 0 0.1 0.1 0.2 0.1 0 0 0.1 0 0.1 0 0.2 0 0.1 0 0.2 0 0 0 0.1 0 0.1 0 0.3 0 0.1-0.1 0.3-0.1 0.2-0.1 0.4-0.2l6.7-3.9q0 0 0 0 0.2-0.1 0.2-0.2 0.1 0 0.2-0.1 0-0.1 0-0.1 0.1 0 0.1-0.1 0 0 0-0.1 0 0 0-0.1 0 0 0 0v-2.7q0 0 0 0 0 0 0 0.1 0 0 0 0.1 0 0-0.1 0.1 0 0 0 0.1-0.1 0-0.1 0.1-0.1 0.1-0.3 0.2 0 0 0 0l-6.7 3.9q-0.2 0.1-0.4 0.2-0.2 0-0.3 0-0.1 0.1-0.3 0.1 0 0-0.1 0-0.1 0-0.2 0-0.1 0-0.2 0-0.1 0-0.1 0-0.1-0.1-0.2-0.1-0.1 0-0.2 0-0.1 0-0.2-0.1-0.1 0-0.2-0.1l-6.9-3.9q-0.5-0.3-0.5-0.7v2.7q0 0.4 0.5 0.7l6.9 3.9q0.1 0.1 0.2 0.1z"/><path class="g" d="m433.9 413.5q0.2-0.1 0.3-0.2 0 0 0.1-0.1 0-0.1 0-0.1 0.1-0.1 0.1-0.1 0 0 0-0.1 0 0 0-0.1 0 0 0 0v-2.7q0 0 0 0 0 0 0 0.1 0 0 0 0.1 0 0-0.1 0.1 0 0 0 0.1-0.1 0-0.1 0.1-0.1 0.1-0.3 0.2 0 0 0 0l-6.7 3.9q-0.2 0.1-0.4 0.2-0.2 0-0.3 0-0.1 0.1-0.3 0.1 0 0-0.1 0-0.1 0-0.2 0-0.1 0-0.2 0-0.1 0-0.1 0-0.1-0.1-0.2-0.1v2.7q0.1 0.1 0.2 0.1 0 0 0.1 0 0.1 0 0.2 0 0.1 0 0.2 0 0 0 0.1 0 0.2 0 0.3 0 0.1-0.1 0.3-0.1 0.2-0.1 0.4-0.2l6.7-3.9q0 0 0 0z"/><path class="g" d="m425.4 414.9z"/><path class="g" d="m425.2 414.9q-0.1 0-0.2-0.1-0.1 0-0.2-0.1l-6.9-3.9q-0.5-0.3-0.4-0.7l-0.1 2.7q0 0.4 0.5 0.7l6.9 3.9q0.1 0.1 0.2 0.1 0.1 0.1 0.2 0.1 0.1 0 0.2 0v-2.7q-0.1 0-0.2 0z"/><path class="g" d="m417.5 425.4q0-0.1 0-0.1 0-0.1 0-0.1 0 0 0 0v-2.8q0 0 0 0.1 0 0 0 0 0 0.1 0 0.1 0 0.1-0.1 0.1 0 0.1 0 0.1-0.1 0.1-0.1 0.2-0.1 0-0.2 0.1-0.1 0-0.1 0l-2.2 1.3q-0.2 0.1-0.4 0.2-0.1 0-0.3 0.1-0.1 0-0.2 0-0.1 0-0.2 0-0.1 0-0.2 0-0.1 0-0.1 0-0.1 0-0.2 0-0.1 0-0.2 0-0.1-0.1-0.2-0.1-0.1 0-0.2-0.1-0.1 0-0.2-0.1l-7.7-4.4q-0.5-0.3-0.5-0.7v2.7q0 0.4 0.5 0.7l7.7 4.4q0.1 0.1 0.2 0.2 0.1 0 0.2 0 0.1 0.1 0.2 0.1 0.1 0 0.2 0 0.1 0 0.2 0 0 0 0.1 0 0.1 0 0.2 0 0.1 0 0.2 0 0.1 0 0.2 0 0.2 0 0.3-0.1 0.2-0.1 0.4-0.2l2.2-1.3q0 0 0 0 0.2 0 0.3-0.1 0-0.1 0.1-0.1 0-0.1 0-0.1 0.1-0.1 0.1-0.1z"/><path class="g" d="m463.2 412.5q0.1 0 0.2 0 0 0.1 0.1 0.1 0.1 0 0.2 0 0.1 0 0.2 0 0 0 0.1 0 0.1 0 0.2 0 0.1 0 0.2 0 0.1 0 0.2 0 0.2 0 0.3-0.1 0.2-0.1 0.4-0.2l6.8-3.9q0 0 0 0 0.1-0.1 0.2-0.2 0.1 0 0.1-0.1 0 0 0.1-0.1 0 0 0-0.1 0 0 0-0.1 0.1 0 0.1-0.1 0 0 0 0v-2.7q0 0 0 0 0 0.1 0 0.1-0.1 0.1-0.1 0.1 0 0.1 0 0.1 0 0.1-0.1 0.1 0 0.1-0.1 0.1-0.1 0.1-0.2 0.2 0 0 0 0l-6.8 3.9q-0.2 0.1-0.4 0.2-0.1 0-0.3 0.1-0.1 0-0.2 0-0.1 0-0.2 0-0.1 0-0.2 0 0 0-0.1 0-0.1 0-0.2 0-0.1 0-0.2 0 0-0.1-0.1-0.1-0.1 0-0.2-0.1-0.2 0-0.3-0.1l-9.5-5.5q-0.6-0.3-0.5-0.7l-0.1 2.7q0 0.4 0.5 0.7l9.6 5.5q0.1 0.1 0.3 0.2z"/><path class="g" d="m441.4 413.5l6.8 3.9q0.1 0.1 0.3 0.1 0.1 0 0.2 0.1 0 0 0.1 0 0.1 0 0.2 0 0.1 0.1 0.2 0.1 0 0 0.1 0 0.1 0 0.2 0 0.1 0 0.2 0 0.1-0.1 0.2-0.1 0.2 0 0.3-0.1 0.2 0 0.4-0.1l6.8-4q0 0 0 0 0.1 0 0.2-0.1 0.1-0.1 0.1-0.1 0.1-0.1 0.1-0.1 0-0.1 0-0.1 0-0.1 0.1-0.1 0-0.1 0-0.1 0 0 0 0v-2.8q0 0.1 0 0.1 0 0 0 0.1 0 0-0.1 0.1 0 0 0 0 0 0.1-0.1 0.1 0 0.1-0.1 0.2-0.1 0-0.2 0.1 0 0 0 0l-6.8 4q-0.2 0.1-0.4 0.1-0.1 0.1-0.3 0.1-0.1 0-0.2 0-0.1 0-0.2 0.1-0.1 0-0.2 0 0 0-0.1-0.1-0.1 0-0.2 0-0.1 0-0.2 0 0 0-0.1 0-0.1-0.1-0.2-0.1-0.2-0.1-0.3-0.1l-6.8-4c-0.3-0.2-0.5-0.4-0.5-0.7v2.7c0 0.3 0.2 0.6 0.5 0.8z"/><path class="g" d="m487.4 413.7q0 0 0 0.1-0.1 0-0.1 0.1 0 0-0.1 0.1 0 0-0.1 0.1-0.1 0.1-0.2 0.1 0 0 0 0.1l-6.8 3.9q-0.1 0.1-0.3 0.1-0.2 0.1-0.4 0.1-0.1 0-0.2 0.1-0.1 0-0.2 0 0 0-0.1 0-0.1 0-0.2 0-0.1 0-0.2-0.1 0 0-0.1 0-0.1 0-0.2 0-0.1-0.1-0.2-0.1-0.1 0-0.3-0.1l-9.6-5.6q-0.5-0.3-0.5-0.7v2.8q0 0.3 0.5 0.6l9.6 5.6q0.2 0.1 0.3 0.1 0.1 0.1 0.2 0.1 0.1 0 0.2 0 0 0 0.1 0.1 0.1 0 0.2 0 0.1 0 0.2 0 0 0 0.1 0 0.1 0 0.2 0 0.1 0 0.2-0.1 0.2 0 0.4 0 0.2-0.1 0.3-0.2l6.8-3.9q0 0 0 0 0.1-0.1 0.2-0.2 0.1-0.1 0.1-0.1 0.1-0.1 0.1-0.1 0-0.1 0.1-0.1 0-0.1 0-0.1 0-0.1 0-0.1 0 0 0 0v-2.7q0 0 0 0 0 0 0 0.1z"/><path class="g" d="m475.7 420.5q0 0 0 0.1-0.1 0-0.1 0.1 0 0 0 0.1-0.1 0-0.2 0.1 0 0.1-0.2 0.1 0 0 0 0.1l-6.8 3.9q-0.1 0.1-0.3 0.1-0.2 0.1-0.4 0.1-0.1 0-0.2 0.1-0.1 0-0.2 0 0 0-0.1 0-0.1 0-0.2 0-0.1 0-0.2-0.1 0 0-0.1 0-0.1 0-0.2 0-0.1-0.1-0.2-0.1-0.1-0.1-0.3-0.1l-12.4-7.2q-0.5-0.3-0.5-0.7v2.7q0 0.4 0.5 0.7l12.4 7.2q0.2 0.1 0.3 0.1 0.1 0.1 0.2 0.1 0.1 0 0.2 0 0.1 0 0.1 0.1 0.1 0 0.2 0 0.1 0 0.2 0 0.1 0 0.1 0 0.1 0 0.2 0 0.1 0 0.2-0.1 0.2 0 0.4 0 0.2-0.1 0.3-0.2l6.8-3.9q0 0 0 0 0.1-0.1 0.2-0.2 0.1-0.1 0.1-0.1 0.1-0.1 0.1-0.1 0-0.1 0.1-0.1 0-0.1 0-0.1 0-0.1 0-0.1 0 0 0 0v-2.7q0 0 0 0 0 0 0 0.1z"/><path class="g" d="m464 427.3q0 0 0 0.1-0.1 0-0.1 0.1 0 0 0 0.1-0.1 0-0.2 0.1 0 0.1-0.2 0.1 0 0 0 0.1l-6.8 3.9q-0.1 0.1-0.3 0.1-0.2 0.1-0.3 0.1-0.2 0-0.3 0.1-0.1 0-0.2 0 0 0-0.1 0-0.1 0-0.2 0-0.1 0-0.2-0.1 0 0-0.1 0-0.1 0-0.2 0-0.1-0.1-0.2-0.1-0.1-0.1-0.3-0.1l-24.3-14.1q-0.5-0.3-0.5-0.7l-0.1 2.7q0 0.4 0.6 0.7l24.3 14.1q0.2 0.1 0.3 0.1 0.1 0.1 0.2 0.1 0.1 0 0.2 0 0.1 0 0.1 0.1 0.1 0 0.2 0 0.1 0 0.2 0 0.1 0 0.1 0 0.1 0 0.2 0 0.1 0 0.2-0.1 0.2 0 0.4 0 0.2-0.1 0.3-0.2l6.8-3.9q0 0 0 0 0.1-0.1 0.2-0.2 0.1-0.1 0.1-0.1 0.1-0.1 0.1-0.1 0-0.1 0.1-0.1 0-0.1 0-0.1 0-0.1 0-0.1 0 0 0 0v-2.7q0 0 0 0 0 0 0 0.1z"/><path class="g" d="m424.8 422.6v2.7q0 0.4 0.5 0.7l7.7 4.5q0.1 0 0.3 0.1 0.1 0 0.2 0.1 0 0 0.1 0 0.1 0 0.2 0 0.1 0 0.2 0 0 0.1 0.1 0.1 0.1 0 0.2 0 0.1 0 0.2-0.1 0.1 0 0.2 0 0.2 0 0.3-0.1 0.2 0 0.4-0.1l2.2-1.3q0 0 0 0 0.2-0.1 0.3-0.2 0-0.1 0.1-0.1 0-0.1 0-0.1 0.1-0.1 0.1-0.1 0-0.1 0-0.1 0-0.1 0-0.1 0 0 0 0v-2.7q0 0 0 0 0 0 0 0.1 0 0 0 0.1 0 0-0.1 0.1 0 0 0 0.1-0.1 0-0.1 0.1-0.1 0.1-0.2 0.1-0.1 0.1-0.1 0.1l-2.2 1.3q-0.2 0.1-0.4 0.1-0.1 0.1-0.3 0.1-0.1 0-0.2 0-0.1 0-0.2 0-0.1 0-0.2 0-0.1 0-0.1 0-0.1 0-0.2 0-0.1 0-0.2 0-0.1 0-0.1-0.1-0.1 0-0.2 0-0.2-0.1-0.3-0.1l-7.7-4.5q-0.5-0.3-0.5-0.7z"/><path class="g" d="m430.7 433q0-0.1 0-0.1 0-0.1 0-0.1 0 0 0 0v-2.7q0 0 0 0 0 0 0 0.1 0 0 0 0.1 0 0-0.1 0.1 0 0 0 0.1-0.1 0-0.1 0.1-0.1 0.1-0.2 0.1 0 0-0.1 0.1l-2.2 1.3q-0.2 0.1-0.4 0.1-0.1 0.1-0.3 0.1-0.1 0-0.2 0-0.1 0-0.2 0-0.1 0-0.2 0-0.1 0-0.1 0-0.1 0-0.2 0-0.1 0-0.2 0-0.1 0-0.1-0.1-0.1 0-0.2 0-0.2-0.1-0.3-0.1l-7.7-4.5q-0.5-0.3-0.5-0.7v2.7q0 0.4 0.5 0.7l7.7 4.5q0.1 0 0.2 0.1 0.1 0 0.3 0.1 0 0 0.1 0 0.1 0 0.2 0 0.1 0 0.2 0.1 0 0 0.1 0 0.1 0 0.2 0 0.1 0 0.2-0.1 0.1 0 0.2 0 0.2 0 0.3-0.1 0.2 0 0.4-0.1l2.2-1.3q0 0 0.1 0 0.1-0.1 0.2-0.2 0-0.1 0.1-0.1 0-0.1 0-0.1 0.1-0.1 0.1-0.1z"/><path class="g" d="m443.9 437.8q0 0.1 0 0.1 0 0.1 0 0.1-0.1 0.1-0.1 0.1 0 0.1-0.1 0.1-0.1 0.1-0.2 0.2 0 0 0 0l-2.3 1.3q-0.1 0.1-0.3 0.2-0.2 0-0.4 0-0.1 0.1-0.2 0.1-0.1 0-0.2 0-0.1 0-0.1 0-0.1 0-0.2 0-0.1 0-0.2 0-0.1-0.1-0.1-0.1-0.1 0-0.2 0-0.1-0.1-0.2-0.1-0.2 0-0.3-0.1l-7.7-4.5q-0.5-0.3-0.5-0.7v2.8q0 0.3 0.5 0.6l7.7 4.5q0.1 0.1 0.3 0.1 0.1 0.1 0.2 0.1 0.1 0 0.2 0 0 0.1 0.1 0.1 0.1 0 0.2 0 0.1 0 0.1 0 0.1 0 0.2 0 0.1 0 0.2 0 0.1 0 0.2 0 0.2-0.1 0.3-0.1 0.2-0.1 0.4-0.2l2.3-1.3q0 0 0 0 0.1-0.1 0.2-0.2 0.1 0 0.1-0.1 0 0 0.1-0.1 0 0 0-0.1 0 0 0-0.1 0 0 0.1-0.1 0 0 0 0v-2.7q0 0 0 0 0 0.1-0.1 0.1z"/><path class="e" d="m334 314.4c0.7 0.3 0.7 1 0 1.3l-3.9 2.3c-0.7 0.4-1.7 0.4-2.4 0l-6.8-3.9c-0.7-0.4-0.7-1 0-1.4l3.9-2.3c0.6-0.4 1.7-0.4 2.4 0z"/><path class="e" d="m346 321.3c0.7 0.4 0.7 1 0 1.4l-3.9 2.2c-0.6 0.4-1.7 0.4-2.4 0l-6.8-3.9c-0.6-0.4-0.7-1 0-1.4l3.9-2.2c0.7-0.4 1.7-0.4 2.4 0z"/><path class="e" d="m358 328.2c0.7 0.4 0.7 1 0 1.4l-3.9 2.3c-0.6 0.4-1.7 0.4-2.4 0l-6.8-3.9c-0.6-0.4-0.6-1.1 0-1.4l3.9-2.3c0.7-0.4 1.7-0.4 2.4 0z"/><path class="e" d="m370 335.2c0.7 0.4 0.7 1 0 1.4l-3.8 2.2c-0.7 0.4-1.8 0.4-2.4 0l-6.9-3.9c-0.6-0.4-0.6-1 0-1.4l3.9-2.3c0.7-0.3 1.8-0.3 2.4 0z"/><path class="e" d="m382.1 342.1c0.6 0.4 0.6 1-0.1 1.4l-3.8 2.2c-0.7 0.4-1.8 0.4-2.4 0.1l-6.8-4c-0.7-0.4-0.7-1-0.1-1.4l3.9-2.2c0.7-0.4 1.8-0.4 2.4 0z"/><path class="e" d="m394.1 349c0.6 0.4 0.6 1 0 1.4l-3.9 2.3c-0.7 0.4-1.8 0.4-2.4 0l-6.8-3.9c-0.7-0.4-0.7-1 0-1.4l3.9-2.3c0.6-0.4 1.7-0.4 2.4 0z"/><path class="e" d="m406.1 356c0.6 0.4 0.6 1 0 1.4l-3.9 2.2c-0.7 0.4-1.8 0.4-2.4 0l-6.8-3.9c-0.7-0.4-0.7-1 0-1.4l3.9-2.3c0.6-0.3 1.7-0.3 2.4 0z"/><path class="e" d="m418.1 362.9c0.7 0.4 0.7 1 0 1.4l-3.9 2.3c-0.7 0.3-1.7 0.3-2.4 0l-6.8-4c-0.7-0.4-0.7-1 0-1.4l3.9-2.2c0.6-0.4 1.7-0.4 2.4 0z"/><path class="e" d="m430.1 369.8c0.7 0.4 0.7 1 0 1.4l-3.9 2.3c-0.7 0.4-1.7 0.4-2.4 0l-6.8-3.9c-0.7-0.4-0.7-1 0-1.4l3.9-2.3c0.7-0.4 1.7-0.4 2.4 0z"/><path class="e" d="m442.1 376.8c0.7 0.4 0.7 1 0 1.4l-3.9 2.2c-0.6 0.4-1.7 0.4-2.4 0l-6.8-3.9c-0.6-0.4-0.6-1 0-1.4l3.9-2.2c0.7-0.4 1.7-0.4 2.4-0.1z"/><path class="e" d="m454.1 383.7c0.7 0.4 0.7 1 0 1.4l-3.9 2.3c-0.6 0.3-1.7 0.3-2.4 0l-6.8-4c-0.6-0.4-0.6-1 0-1.4l3.9-2.2c0.7-0.4 1.7-0.4 2.4 0z"/><path class="e" d="m466.1 390.7c0.7 0.3 0.7 1 0 1.3l-3.8 2.3c-0.7 0.4-1.8 0.4-2.4 0l-6.9-3.9c-0.6-0.4-0.6-1 0-1.4l3.9-2.3c0.7-0.4 1.8-0.4 2.4 0z"/><path class="e" d="m480.9 399.2c0.7 0.4 0.7 1 0 1.4l-3.9 2.2c-0.7 0.4-1.7 0.4-2.4 0l-9.5-5.5c-0.7-0.4-0.7-1-0.1-1.4l3.9-2.2c0.7-0.4 1.8-0.4 2.4 0z"/><path class="e" d="m495.7 407.7c0.7 0.4 0.7 1 0 1.4l-3.9 2.3c-0.6 0.4-1.7 0.4-2.4 0l-9.6-5.6c-0.6-0.4-0.6-1 0-1.4l3.9-2.2c0.7-0.4 1.7-0.4 2.4 0z"/><path class="e" d="m325.2 319.5c0.6 0.4 0.6 1 0 1.4l-6.8 3.9c-0.7 0.4-1.7 0.4-2.4 0l-6.8-3.9c-0.7-0.4-0.7-1 0-1.4l6.8-3.9c0.6-0.4 1.7-0.4 2.4 0z"/><path class="e" d="m337.2 326.4c0.7 0.4 0.7 1 0 1.4l-6.8 3.9c-0.6 0.4-1.7 0.4-2.4 0l-6.8-3.9c-0.6-0.4-0.6-1 0-1.4l6.8-3.9c0.6-0.4 1.7-0.4 2.4 0z"/><path class="e" d="m306.7 322.4l12.6 7.3c0.7 0.4 0.7 1 0 1.4l-6.7 3.9c-0.7 0.4-1.8 0.4-2.4 0l-12.7-7.3c-0.7-0.4-0.7-1 0-1.4l6.8-3.9c0.6-0.4 1.7-0.4 2.4 0z"/><path class="e" d="m349.2 333.4c0.7 0.3 0.7 1 0 1.3l-6.8 4c-0.6 0.4-1.7 0.4-2.3 0l-6.9-4c-0.6-0.3-0.6-1 0-1.3l6.8-4c0.6-0.4 1.7-0.4 2.4 0z"/><path class="e" d="m337.5 340.2c0.7 0.3 0.7 1 0 1.3l-6.8 4c-0.6 0.4-1.7 0.4-2.3 0l-12.7-7.3c-0.7-0.4-0.7-1 0-1.4l6.7-3.9c0.7-0.4 1.7-0.4 2.4 0z"/><path class="e" d="m313.8 340c0.7 0.4 0.7 1 0 1.4l-6.8 3.9c-0.6 0.4-1.7 0.4-2.4 0l-18.8-10.8c-0.7-0.4-0.7-1 0-1.4l6.8-3.9c0.6-0.4 1.7-0.4 2.4 0z"/><path class="e" d="m290.1 339.9c0.6 0.4 0.6 1 0 1.4l-9.7 5.6c-0.6 0.4-1.7 0.4-2.3 0l-6.9-4c-0.6-0.3-0.6-1 0-1.4l9.7-5.5c0.6-0.4 1.7-0.4 2.4 0z"/><path class="e" d="m302.1 346.8c0.7 0.4 0.7 1 0 1.4l-9.6 5.6c-0.7 0.4-1.8 0.4-2.4 0l-6.8-3.9c-0.7-0.4-0.7-1 0-1.4l9.6-5.6c0.7-0.4 1.7-0.4 2.4 0z"/><path class="e" d="m325.8 347c0.7 0.3 0.7 1 0 1.3l-6.8 4c-0.6 0.4-1.7 0.4-2.3 0l-6.9-4c-0.6-0.3-0.6-1 0-1.3l6.8-4c0.7-0.4 1.7-0.4 2.4 0z"/><path class="e" d="m314.1 353.8c0.7 0.3 0.7 1 0 1.3l-9.6 5.6c-0.7 0.4-1.8 0.4-2.4 0l-6.8-3.9c-0.7-0.4-0.7-1 0-1.4l9.6-5.6c0.7-0.4 1.7-0.4 2.4 0z"/><path class="e" d="m361.2 340.3c0.7 0.4 0.7 1 0 1.4l-6.7 3.9c-0.7 0.4-1.8 0.4-2.4 0l-6.8-3.9c-0.7-0.4-0.7-1-0.1-1.4l6.8-3.9c0.7-0.4 1.7-0.4 2.4 0z"/><path class="e" d="m349.5 347.1c0.7 0.4 0.7 1 0 1.4l-6.7 3.9c-0.7 0.4-1.8 0.4-2.4 0l-6.8-3.9c-0.7-0.4-0.7-1-0.1-1.4l6.8-3.9c0.7-0.4 1.7-0.4 2.4 0z"/><path class="e" d="m337.8 353.9c0.7 0.4 0.7 1 0 1.4l-6.7 3.9c-0.7 0.4-1.8 0.4-2.4 0l-6.8-3.9c-0.7-0.4-0.7-1-0.1-1.4l6.8-3.9c0.7-0.4 1.7-0.4 2.4 0z"/><path class="e" d="m326.1 360.7c0.7 0.4 0.7 1 0 1.4l-9.6 5.6c-0.7 0.4-1.7 0.4-2.4 0l-6.8-4c-0.7-0.3-0.7-1 0-1.3l9.6-5.6c0.7-0.4 1.7-0.4 2.4 0z"/><path class="e" d="m373.2 347.2c0.7 0.4 0.7 1 0 1.4l-6.7 3.9c-0.7 0.4-1.8 0.4-2.4 0.1l-6.8-4c-0.7-0.4-0.7-1-0.1-1.4l6.8-3.9c0.7-0.4 1.7-0.4 2.4 0z"/><path class="e" d="m385.2 354.2c0.7 0.4 0.7 1 0 1.4l-6.7 3.9c-0.7 0.4-1.8 0.4-2.4 0l-6.8-3.9c-0.7-0.4-0.7-1 0-1.4l6.7-4c0.7-0.3 1.8-0.3 2.4 0z"/><path class="e" d="m361.5 354c0.7 0.4 0.7 1 0 1.4l-6.7 3.9c-0.7 0.4-1.8 0.4-2.4 0.1l-6.8-4c-0.7-0.4-0.7-1-0.1-1.4l6.8-3.9c0.7-0.4 1.7-0.4 2.4 0z"/><path class="e" d="m373.5 361c0.7 0.4 0.7 1 0 1.4l-6.7 3.9c-0.7 0.4-1.7 0.4-2.4 0l-6.8-3.9c-0.7-0.4-0.7-1 0-1.4l6.7-4c0.7-0.3 1.8-0.3 2.4 0z"/><path class="e" d="m397.2 361.1c0.7 0.4 0.7 1 0 1.4l-6.7 3.9c-0.7 0.4-1.7 0.4-2.4 0l-6.8-3.9c-0.7-0.4-0.7-1 0-1.4l6.7-3.9c0.7-0.4 1.8-0.4 2.4 0z"/><path class="e" d="m385.5 367.9c0.7 0.4 0.7 1 0 1.4l-6.7 3.9c-0.7 0.4-1.7 0.4-2.4 0l-6.8-3.9c-0.7-0.4-0.7-1 0-1.4l6.7-3.9c0.7-0.4 1.8-0.4 2.4 0z"/><path class="e" d="m349.8 360.8c0.7 0.4 0.7 1 0 1.4l-6.7 3.9c-0.7 0.4-1.8 0.4-2.4 0.1l-6.8-4c-0.7-0.4-0.7-1 0-1.4l6.7-3.9c0.7-0.4 1.7-0.4 2.4 0z"/><path class="e" d="m361.8 367.8c0.7 0.4 0.7 1 0 1.4l-6.7 3.9c-0.7 0.4-1.7 0.4-2.4 0l-6.8-3.9c-0.7-0.4-0.7-1 0-1.4l6.7-4c0.7-0.3 1.8-0.3 2.4 0z"/><path class="e" d="m373.8 374.7c0.7 0.4 0.7 1 0 1.4l-6.7 3.9c-0.7 0.4-1.7 0.4-2.4 0l-6.8-3.9c-0.7-0.4-0.7-1 0-1.4l6.7-3.9c0.7-0.4 1.8-0.4 2.4 0z"/><path class="e" d="m409.3 368c0.6 0.4 0.6 1 0 1.4l-6.8 4c-0.7 0.3-1.7 0.3-2.4 0l-6.8-4c-0.7-0.4-0.7-1 0-1.4l6.8-3.9c0.6-0.4 1.7-0.4 2.3 0z"/><path class="e" d="m397.6 374.8c0.6 0.4 0.6 1 0 1.4l-6.8 4c-0.7 0.3-1.7 0.3-2.4 0l-6.8-4c-0.7-0.4-0.7-1 0-1.4l6.8-3.9c0.6-0.4 1.7-0.4 2.3 0z"/><path class="e" d="m385.9 381.6c0.6 0.4 0.6 1 0 1.4l-6.8 4c-0.7 0.3-1.7 0.3-2.4 0l-6.8-4c-0.7-0.4-0.7-1 0-1.4l6.8-3.9c0.6-0.4 1.7-0.4 2.3 0z"/><path class="e" d="m374.2 388.4c0.6 0.4 0.6 1 0 1.4l-9.7 5.6c-0.6 0.4-1.7 0.4-2.4 0l-42.8-24.7c-0.7-0.4-0.7-1 0-1.4l9.6-5.6c0.7-0.4 1.7-0.4 2.4 0z"/><path class="e" d="m421.3 375c0.6 0.4 0.6 1 0 1.4l-6.8 3.9c-0.7 0.4-1.7 0.4-2.4 0l-6.8-3.9c-0.7-0.4-0.7-1 0-1.4l6.8-4c0.6-0.3 1.7-0.3 2.4 0z"/><path class="e" d="m409.6 381.8c0.6 0.4 0.6 1 0 1.4l-6.8 3.9c-0.7 0.4-1.7 0.4-2.4 0l-6.8-3.9c-0.7-0.4-0.7-1 0-1.4l6.8-4c0.6-0.3 1.7-0.3 2.4 0z"/><path class="e" d="m397.9 388.6c0.6 0.4 0.6 1 0 1.4l-6.8 3.9c-0.7 0.4-1.7 0.4-2.4 0l-6.8-3.9c-0.7-0.4-0.7-1 0-1.4l6.8-4c0.6-0.3 1.7-0.3 2.4 0z"/><path class="e" d="m386.2 395.4c0.6 0.3 0.6 1 0 1.4l-9.7 5.5c-0.6 0.4-1.7 0.4-2.4 0l-6.8-3.9c-0.6-0.4-0.6-1 0-1.4l9.7-5.6c0.6-0.4 1.7-0.4 2.4 0z"/><path class="e" d="m433.3 381.9c0.7 0.4 0.7 1 0 1.4l-6.8 3.9c-0.6 0.4-1.7 0.4-2.4 0l-6.8-3.9c-0.6-0.4-0.6-1 0-1.4l6.8-3.9c0.6-0.4 1.7-0.4 2.4 0z"/><path class="e" d="m421.6 388.7c0.7 0.4 0.7 1 0 1.4l-6.8 3.9c-0.6 0.4-1.7 0.4-2.4 0l-6.8-3.9c-0.6-0.4-0.6-1 0-1.4l6.8-3.9c0.6-0.4 1.7-0.4 2.4 0z"/><path class="e" d="m409.9 395.5c0.7 0.4 0.7 1 0 1.4l-6.8 3.9c-0.6 0.4-1.7 0.4-2.4 0l-6.8-3.9c-0.6-0.4-0.6-1 0-1.4l6.8-3.9c0.6-0.4 1.7-0.4 2.4 0z"/><path class="e" d="m398.2 402.3c0.7 0.4 0.7 1 0 1.4l-9.6 5.6c-0.7 0.4-1.8 0.4-2.4 0l-6.9-3.9c-0.6-0.4-0.6-1 0.1-1.4l9.6-5.6c0.7-0.4 1.7-0.4 2.4 0z"/><path class="e" d="m445.3 388.8c0.7 0.4 0.7 1 0 1.4l-6.8 4c-0.6 0.3-1.7 0.3-2.4 0l-6.8-4c-0.6-0.4-0.6-1 0-1.4l6.8-3.9c0.6-0.4 1.7-0.4 2.4 0z"/><path class="e" d="m433.6 395.6c0.7 0.4 0.7 1 0 1.4l-6.8 4c-0.6 0.3-1.7 0.3-2.4 0l-6.8-4c-0.6-0.4-0.6-1 0-1.4l6.8-3.9c0.6-0.4 1.7-0.4 2.4 0z"/><path class="e" d="m421.9 402.4c0.7 0.4 0.7 1 0 1.4l-6.8 4c-0.6 0.3-1.7 0.3-2.4 0l-6.8-4c-0.6-0.4-0.6-1 0-1.4l6.8-3.9c0.7-0.4 1.7-0.4 2.4 0z"/><path class="e" d="m410.2 409.2c0.7 0.4 0.7 1 0 1.4l-9.6 5.6c-0.7 0.4-1.8 0.4-2.4 0l-6.8-3.9c-0.7-0.4-0.7-1 0-1.4l9.6-5.6c0.7-0.4 1.7-0.4 2.4 0z"/><path class="e" d="m457.3 395.8c0.7 0.4 0.7 1 0 1.4l-6.7 3.9c-0.7 0.4-1.8 0.4-2.4 0l-6.9-3.9c-0.6-0.4-0.6-1 0-1.4l6.8-3.9c0.7-0.4 1.7-0.4 2.4-0.1z"/><path class="e" d="m445.6 402.6c0.7 0.4 0.7 1 0 1.4l-6.7 3.9c-0.7 0.4-1.8 0.4-2.4 0l-6.9-3.9c-0.6-0.4-0.6-1 0-1.4l6.8-3.9c0.7-0.4 1.7-0.4 2.4-0.1z"/><path class="e" d="m433.9 409.4c0.7 0.4 0.7 1 0 1.4l-6.7 3.9c-0.7 0.4-1.8 0.4-2.4 0l-6.9-3.9c-0.6-0.4-0.6-1 0-1.4l6.8-4c0.7-0.3 1.7-0.3 2.4 0z"/><path class="e" d="m417 421.7c0.7 0.4 0.7 1.1 0 1.4l-2.2 1.3c-0.7 0.4-1.7 0.4-2.4 0l-7.7-4.4c-0.7-0.4-0.7-1 0-1.4l2.2-1.3c0.7-0.4 1.7-0.4 2.4 0z"/><path class="e" d="m472.1 404.3c0.6 0.4 0.6 1 0 1.4l-6.8 3.9c-0.7 0.4-1.7 0.4-2.4 0l-9.5-5.5c-0.7-0.4-0.7-1-0.1-1.4l6.8-3.9c0.7-0.4 1.7-0.4 2.4 0z"/><path class="e" d="m457.4 409.4c0.6 0.3 0.6 0.9 0 1.3l-6.8 4c-0.7 0.3-1.7 0.3-2.4 0l-6.8-4c-0.6-0.3-0.7-1 0-1.4l6.8-3.9c0.6-0.4 1.7-0.4 2.4 0z"/><path class="e" d="m486.9 412.9c0.7 0.4 0.7 1 0 1.4l-6.8 3.9c-0.6 0.4-1.7 0.4-2.4 0l-9.6-5.6c-0.6-0.4-0.6-1 0-1.4l6.8-3.9c0.6-0.4 1.7-0.4 2.4 0z"/><path class="e" d="m462.8 412.5l12.4 7.2c0.7 0.3 0.7 1 0 1.4l-6.8 3.9c-0.6 0.4-1.7 0.4-2.4 0l-12.4-7.2c-0.7-0.4-0.7-1 0-1.4l6.8-4c0.6-0.3 1.7-0.3 2.4 0.1z"/><path class="e" d="m463.5 426.5c0.7 0.3 0.7 1 0 1.4l-6.8 3.9c-0.6 0.4-1.7 0.4-2.4 0l-24.3-14.1c-0.7-0.4-0.7-1 0-1.4l6.7-3.9c0.7-0.4 1.7-0.4 2.4 0z"/><path class="e" d="m437.6 425.1c0.7 0.4 0.7 1 0 1.4l-2.2 1.3c-0.7 0.3-1.7 0.3-2.4 0l-7.7-4.5c-0.7-0.4-0.7-1 0-1.4l2.2-1.3c0.7-0.4 1.7-0.4 2.4 0z"/><path class="e" d="m430.3 429.4c0.6 0.3 0.6 1-0.1 1.4l-2.2 1.3c-0.7 0.3-1.7 0.3-2.4 0l-7.7-4.5c-0.7-0.4-0.7-1 0-1.4l2.2-1.3c0.7-0.4 1.7-0.4 2.4 0z"/><path class="e" d="m443.5 437c0.6 0.4 0.6 1 0 1.4l-2.3 1.3c-0.6 0.4-1.7 0.4-2.4 0l-7.7-4.5c-0.7-0.4-0.7-1 0-1.4l2.2-1.3c0.7-0.3 1.8-0.3 2.4 0z"/><path class="f" d="m424 268.2l-55.3-33.7-1.2 6.2 55.3 33.6z"/><path class="f" d="m366.6 218.8l-3.8-2.4-1.2 6.2 3.8 2.3z"/><path class="d" d="m369 205.7l-3.8-2.3-1.2 6.2 3.8 2.3z"/><path class="f" d="m371.4 192.7l-3.8-2.3-1.1 6.2 3.8 2.3z"/><path class="d" d="m420.1 251.3l-49-29.8-1.1 6.2 49 29.8z"/><path class="d" d="m438.8 248.2l-65.2-39.7-1.2 6.2 65.2 39.7z"/><path class="f" d="m436.7 232.5l-60.7-37-1.2 6.1 60.8 37z"/><path class="a" d="m419.7 203l-41.4-25.2-1 5.4 41.4 25.2z"/><path class="f" d="m384.2 258.9l-17.2-11.1-0.8 4.3 17.2 11.1z"/><path class="c" d="m195.2 226.7l90.6-52.3 0.3 118.3-90.6 52.3z"/><path class="e" d="m253.6 219.6c5-2.8 9-0.5 9 5.2 0 5.7-4 12.6-8.9 15.5-5 2.8-9 0.5-9-5.2 0-5.7 4-12.6 8.9-15.5z"/><path class="e" d="m228 252.9l25.5 9.9 11.9-17.8 12.9 10.1v5.9l-74.6 43.1v-7.2z"/><path fill-rule="evenodd" class="a" d="m203.5 232.2l74.6-43 0.2 65.9-12.9-10.1-11.9 17.8-25.5-9.9-24.3 44zm50.2 8.1c4.9-2.9 8.9-9.8 8.9-15.5 0-5.7-4-8-9-5.1-5 2.8-8.9 9.7-8.9 15.4 0 5.7 4 8 9 5.2z"/><path class="d" d="m195.2 226.7l-18.1-10.5 90.7-52.3 18 10.5z"/><path class="b" d="m195.5 345l-18-10.5-0.4-118.3 18.1 10.5z"/><path class="h" d="m117.1 443.5l17.8-10.3 4.1-2.3-17.8 10.3z"/><path class="b" d="m151.5 473.1l17.7-10.3v6.6l-17.7 10.3z"/><path class="b" d="m112.8 412.7l17.7-10.3 5.8 3.3-17.8 10.3z"/><path class="b" d="m133.4 419.9l17.8-10.3q-1.7 0.9-2.8 2.7l-17.8 10.3q1.1-1.8 2.8-2.7z"/><path class="b" d="m130.6 422.6l17.8-10.3q-0.3 0.5-0.6 1.1l-17.8 10.3q0.3-0.6 0.6-1.1z"/><path class="b" d="m130 423.7l17.8-10.3q-0.2 0.4-0.4 0.9l-17.8 10.3q0.2-0.5 0.4-0.9z"/><path class="b" d="m129.6 424.6l17.8-10.3q-0.2 0.4-0.3 0.8l-17.7 10.3q0.1-0.4 0.2-0.8z"/><path class="b" d="m129.4 425.4l17.7-10.3q-0.1 0.4-0.2 0.8l-17.7 10.4q0.1-0.5 0.2-0.9z"/><path class="b" d="m129.2 426.3l17.7-10.4q-0.1 0.4-0.2 0.8l-17.7 10.3q0.1-0.4 0.2-0.7z"/><path class="b" d="m129 427l17.7-10.3q0 0.4-0.1 0.8l-17.7 10.3q0-0.4 0.1-0.8z"/><path class="b" d="m128.9 427.8l17.7-10.3q0 0.4 0 0.7l-17.8 10.3q0-0.3 0.1-0.7z"/><path class="b" d="m128.8 428.5l17.8-10.3q-0.1 0.4-0.1 0.8l-17.7 10.3q0-0.4 0-0.8z"/><path class="b" d="m128.8 429.3l17.7-10.3q0 0.4 0 0.7l-17.8 10.3q0-0.3 0.1-0.7z"/><path class="b" d="m128.7 430l17.8-10.3q0 0.1 0 0.1 0 0.3 0 0.7l-17.7 10.3q-0.1-0.4-0.1-0.7 0 0 0-0.1z"/><path class="b" d="m128.8 430.8l17.7-10.3q0 0.4 0 0.7l-17.7 10.3q0-0.3 0-0.7z"/><path class="b" d="m128.8 431.5l17.7-10.3q0.1 0.4 0.1 0.8l-17.7 10.3q-0.1-0.4-0.1-0.8z"/><path class="b" d="m128.9 432.3l17.7-10.3q0 0.4 0.1 0.8l-17.8 10.3q0-0.4 0-0.8z"/><path class="b" d="m128.9 433.1l17.8-10.3q0 0.4 0.1 0.8l-17.7 10.3q-0.1-0.4-0.2-0.8z"/><path class="b" d="m129.1 433.9l17.7-10.3q0.1 0.4 0.1 0.8l-17.7 10.3q-0.1-0.4-0.1-0.8z"/><path class="b" d="m129.2 434.7l17.7-10.3q0.1 0.4 0.2 0.8l-17.7 10.3q-0.1-0.4-0.2-0.8z"/><path class="b" d="m129.4 435.5l17.7-10.3q0.1 0.4 0.2 0.9l-17.7 10.3q-0.1-0.4-0.2-0.9z"/><path class="b" d="m129.6 436.4l17.7-10.3q0.1 0.4 0.2 0.8l-17.7 10.3q-0.1-0.4-0.2-0.8z"/><path class="b" d="m129.8 437.2l17.7-10.3q0.1 0.4 0.3 0.9l-17.8 10.3q-0.1-0.4-0.2-0.9z"/><path class="b" d="m130 438.1l17.8-10.3q0.1 0.4 0.2 0.8l-17.7 10.3q-0.1-0.4-0.3-0.8z"/><path class="b" d="m130.3 438.9l17.7-10.3q0.2 0.4 0.3 0.8l-17.7 10.3q-0.2-0.4-0.3-0.8z"/><path class="b" d="m130.6 439.7l17.7-10.3q0.2 0.4 0.3 0.8l-17.7 10.3q-0.2-0.4-0.3-0.8z"/><path class="b" d="m130.9 440.5l17.7-10.3q0.2 0.4 0.3 0.7l-17.7 10.4q-0.2-0.4-0.3-0.8z"/><path class="b" d="m131.2 441.3l17.7-10.4q0.2 0.4 0.3 0.8l-17.7 10.3q-0.2-0.4-0.3-0.7z"/><path class="b" d="m131.5 442l17.7-10.3q0.2 0.4 0.4 0.8l-17.7 10.3q-0.2-0.4-0.4-0.8z"/><path class="b" d="m131.9 442.8l17.7-10.3q0.2 0.4 0.4 0.8l-17.8 10.3q-0.2-0.4-0.3-0.8z"/><path class="b" d="m132.2 443.6l17.8-10.3q0.2 0.4 0.5 0.9l-17.8 10.3q-0.2-0.4-0.5-0.9z"/><path class="b" d="m132.7 444.5l17.8-10.3q0.3 0.6 0.6 1.2 0.1 0 0.1 0.1l-17.7 10.3q-0.1 0-0.1-0.1-0.4-0.6-0.7-1.2z"/><path class="b" d="m133.5 445.8l17.7-10.3q0.7 1.2 1.4 2.2l-17.7 10.4q-0.8-1.1-1.4-2.3z"/><path class="b" d="m134.9 448.1l17.7-10.4q0.4 0.7 0.9 1.3l-17.7 10.3q-0.5-0.6-0.9-1.2z"/><path class="b" d="m135.8 449.3l17.7-10.3q0.3 0.5 0.7 0.9l-17.8 10.3q-0.3-0.4-0.6-0.9z"/><path class="b" d="m136.4 450.2l17.8-10.3q0.3 0.4 0.6 0.7l-17.8 10.4q-0.3-0.4-0.6-0.8z"/><path class="b" d="m137 451l17.8-10.4q0.3 0.4 0.6 0.7l-17.8 10.4q-0.3-0.4-0.6-0.7z"/><path class="b" d="m137.6 451.7l17.8-10.4q0.3 0.4 0.6 0.7l-17.7 10.3q-0.4-0.3-0.7-0.6z"/><path class="b" d="m138.3 452.3l17.7-10.3q0.3 0.4 0.6 0.7l-17.7 10.3q-0.3-0.3-0.6-0.7z"/><path class="b" d="m138.9 453l17.7-10.3q0.4 0.4 0.7 0.7l-17.7 10.3q-0.4-0.3-0.7-0.7z"/><path class="b" d="m139.6 453.7l17.7-10.3q0.4 0.3 0.7 0.6l-17.7 10.4q-0.4-0.4-0.7-0.7z"/><path class="b" d="m140.3 454.4l17.7-10.4q0.4 0.4 0.7 0.7l-17.7 10.3q-0.4-0.3-0.7-0.6z"/><path class="b" d="m141 455l17.7-10.3q0.4 0.3 0.8 0.5l-17.8 10.4q-0.3-0.3-0.7-0.6z"/><path class="b" d="m141.7 455.6l17.8-10.4q0.3 0.3 0.7 0.6l-17.8 10.3q-0.3-0.3-0.7-0.5z"/><path class="b" d="m142.4 456.1l17.8-10.3q0.3 0.2 0.6 0.5l-17.7 10.3q-0.4-0.3-0.7-0.5z"/><path class="b" d="m143.1 456.6l17.7-10.3q0.4 0.2 0.7 0.4l-17.7 10.3q-0.4-0.2-0.7-0.4z"/><path class="b" d="m143.8 457l17.7-10.3q0.3 0.2 0.7 0.4l-17.8 10.3q-0.3-0.2-0.6-0.4z"/><path class="b" d="m144.4 457.4l17.8-10.3q0 0.1 0.1 0.1 0.3 0.1 0.5 0.3l-17.7 10.3q-0.3-0.2-0.5-0.3-0.1 0-0.2-0.1z"/><path class="b" d="m145.1 457.8l17.7-10.3q0.3 0.1 0.7 0.3l-17.8 10.3q-0.3-0.1-0.6-0.3z"/><path class="b" d="m145.7 458.1l17.8-10.3q0.3 0.2 0.6 0.3l-17.8 10.3q-0.3-0.1-0.6-0.3z"/><path class="b" d="m146.3 458.4l17.8-10.3q0.3 0.1 0.6 0.3l-17.7 10.3q-0.3-0.1-0.7-0.3z"/><path class="b" d="m147 458.7l17.7-10.3q0.3 0.1 0.7 0.2l-17.8 10.3q-0.3-0.1-0.6-0.2z"/><path class="b" d="m147.6 458.9l17.8-10.3q0.3 0.1 0.6 0.2l-17.7 10.3q-0.4-0.1-0.7-0.2z"/><path class="b" d="m148.3 459.1l17.7-10.3q0.3 0.1 0.7 0.2l-17.8 10.3q-0.3-0.1-0.6-0.2z"/><path class="b" d="m148.9 459.3l17.8-10.3q0.3 0.1 0.6 0.2l-17.7 10.3q-0.3-0.1-0.7-0.2z"/><path class="b" d="m149.6 459.5l17.7-10.3q0.4 0 0.7 0.1l-17.7 10.3q-0.4-0.1-0.7-0.1z"/><path class="b" d="m150.3 459.6l17.7-10.3q0.4 0 0.7 0l-17.7 10.4q-0.4-0.1-0.7-0.1z"/><path class="b" d="m151 459.7l17.7-10.4q0.4 0.1 0.8 0.1l-17.8 10.3q-0.3 0-0.7 0z"/><path class="b" d="m151.7 459.7l17.8-10.3q0.4 0 0.8-0.1l-17.8 10.3q-0.4 0.1-0.8 0.1z"/><path class="b" d="m152.5 459.6l17.8-10.3q0.5 0 0.9-0.1l-17.7 10.3q-0.5 0.1-1 0.1z"/><path class="b" d="m153.5 459.5l17.7-10.3q0.6-0.1 1.1-0.3l-17.7 10.3q-0.6 0.2-1.1 0.3z"/><path class="b" d="m154.6 459.2l17.7-10.3q0.7-0.2 1.3-0.6l-17.8 10.3q-0.6 0.4-1.2 0.6z"/><path class="b" d="m167.9 468.1l17.8-10.3 4.1 7.1-17.8 10.3z"/><path class="b" d="m127.1 397.4l17.7-10.3 4.1 7-17.7 10.3z"/><path class="h" d="m117.2 403l17.8-10.3 9.8-5.6-17.7 10.3z"/><path class="h" d="m170.7 462.1l17.7-10.3q0 0.2-0.1 0.5l-17.7 10.3q0-0.2 0.1-0.5z"/><path class="h" d="m170.6 462.6l17.7-10.3q-0.2 0.7-0.5 1.4l-17.7 10.3q0.2-0.7 0.5-1.4z"/><path class="h" d="m170.1 464l17.7-10.3q-0.3 0.8-0.6 1.6l-17.8 10.3q0.4-0.8 0.7-1.6z"/><path class="h" d="m169.4 465.6l17.8-10.3q-0.5 0.9-1 1.8l-17.8 10.3q0.6-0.8 1-1.8z"/><path class="h" d="m168.4 467.4l17.8-10.3q-0.3 0.4-0.5 0.7l-17.8 10.3q0.3-0.3 0.5-0.7z"/><path class="h" d="m131.2 404.4l17.7-10.3q0 0 0 0l-17.7 10.3q0 0 0 0z"/><path class="h" d="m131.2 404.4l17.7-10.3q0.7 0 1.4 0l-17.8 10.3q-0.7 0-1.3 0z"/><path class="h" d="m132.5 404.4l17.8-10.3q0.6 0 1.2 0l-17.7 10.3q-0.6 0-1.3 0z"/><path class="h" d="m133.8 404.4l17.7-10.3q0.6 0 1.2 0.1l-17.7 10.3q-0.6 0-1.2-0.1z"/><path class="h" d="m135 404.5l17.7-10.3q0.6 0.1 1.2 0.2l-17.7 10.3q-0.6-0.1-1.2-0.2z"/><path class="h" d="m136.2 404.7l17.7-10.3q0.6 0.1 1.2 0.3l-17.8 10.3q-0.6-0.2-1.1-0.3z"/><path class="h" d="m137.3 405l17.8-10.3q0.2 0 0.4 0.1l-17.7 10.3q-0.3-0.1-0.5-0.1z"/><path class="h" d="m168 437l17.8-10.3q0 0.1 0 0.1l-17.7 10.3q-0.1 0-0.1-0.1z"/><path class="h" d="m168.1 437.1l17.7-10.3q0.2 0.6 0.5 1.3l-17.8 10.3q-0.2-0.7-0.4-1.3z"/><path class="h" d="m168.5 438.4l17.8-10.3q0.2 0.6 0.4 1.3l-17.7 10.3q-0.2-0.7-0.5-1.3z"/><path class="h" d="m169 439.7l17.7-10.3q0.3 0.7 0.5 1.4l-17.8 10.3q-0.2-0.7-0.4-1.4z"/><path class="h" d="m169.4 441.1l17.8-10.3q0.2 0.7 0.4 1.4l-17.7 10.3q-0.2-0.7-0.5-1.4z"/><path class="h" d="m169.9 442.5l17.7-10.3q0.2 0.7 0.4 1.5l-17.8 10.3q-0.1-0.8-0.3-1.5z"/><path class="h" d="m170.2 444l17.8-10.3q0.2 0.7 0.3 1.4l-17.7 10.3q-0.2-0.7-0.4-1.4z"/><path class="h" d="m170.6 445.4l17.7-10.3q0.1 0.4 0.2 0.8l-17.8 10.3q0-0.4-0.1-0.8z"/><path class="h" d="m151.7 413.1l17.7-10.3q0.2 0.2 0.3 0.3l-17.7 10.3q-0.2-0.1-0.3-0.3z"/><path class="h" d="m152 413.4l17.7-10.3q0.7 0.6 1.3 1.2l-17.8 10.3q-0.6-0.6-1.2-1.2z"/><path class="h" d="m153.2 414.6l17.8-10.3q0.6 0.5 1.1 1.1l-17.7 10.3q-0.6-0.6-1.2-1.1z"/><path class="h" d="m154.4 415.7l17.7-10.3q0.6 0.6 1.1 1.2l-17.7 10.3q-0.6-0.6-1.1-1.2z"/><path class="h" d="m155.5 416.9l17.7-10.3q0.6 0.5 1.1 1.1l-17.8 10.3q-0.5-0.6-1-1.1z"/><path class="h" d="m156.5 418l17.8-10.3q0.5 0.6 1 1.2l-17.8 10.3q-0.5-0.6-1-1.2z"/><path class="h" d="m157.5 419.2l17.8-10.3q0.3 0.4 0.7 0.9l-17.8 10.3q-0.3-0.5-0.7-0.9z"/><path class="h" d="m176.5 449.5l17.8-10.3-0.1 16-17.7 10.3z"/><path class="b" d="m170.7 446.2l17.8-10.3 5.8 3.3-17.8 10.3z"/><path class="h" d="m137.8 398.5l17.7-10.3 13.9 8-17.7 10.3z"/><path class="b" d="m151.7 406.5l17.7-10.3v6.6l-17.7 10.3z"/><path class="h" d="m162.3 417.7l17.8-10.3 9.8 17-17.8 10.3z"/><path class="h" d="m158.2 420.1l17.8-10.3 4.1-2.4-17.8 10.3z"/><path fill-rule="evenodd" class="c" d="m176.5 465.5l-5.8-3.4q-0.9 3.5-2.8 6l4.1 7.1-9.9 5.6-4-7c-2.1 0.1-4.3-0.1-6.6-0.7v6.6l-13.9-8v-6.6c-2.3-2.1-4.5-4.4-6.6-7l-4.1 2.3-9.8-16.9 4.1-2.3c-1.2-3.1-2.1-6.2-2.7-9.2l-5.8-3.3 0.1-16 5.7 3.3c0.7-2.2 1.6-4.3 2.8-6l-4.1-7 9.9-5.6 4.1 7q3.1-0.2 6.6 0.7v-6.6l13.9 8v6.6c2.3 2.1 4.5 4.4 6.5 7l4.1-2.4 9.8 17-4.1 2.3c1.2 3.1 2.1 6.2 2.7 9.2l5.8 3.3zm-20.6-6.8c3-1.7 4.6-5.4 4.7-10.2 0-4.9-1.7-10.5-4.7-15.6-2.9-5.2-7-9.4-11.2-11.9-4.2-2.4-8.2-2.8-11.2-1.1-3 1.7-4.7 5.4-4.7 10.2 0 4.9 1.6 10.5 4.6 15.6 3 5.2 7 9.4 11.2 11.8 4.2 2.5 8.3 2.9 11.3 1.2z"/><path class="h" d="m109.2 358.3l10.5-6 2.4-1.4-10.4 6.1z"/><path class="b" d="m129.5 375.8l10.5-6.1v4l-10.5 6z"/><path class="b" d="m106.7 340.2l10.5-6.1 3.4 1.9-10.5 6.1z"/><path class="b" d="m118.9 344.4l10.5-6.1q-1 0.6-1.7 1.6l-10.5 6.1q0.7-1 1.7-1.6z"/><path class="b" d="m117.2 346l10.5-6.1q-0.2 0.3-0.3 0.6l-10.5 6.1q0.1-0.3 0.3-0.6z"/><path class="b" d="m116.9 346.6l10.5-6.1q-0.2 0.3-0.3 0.6l-10.5 6.1q0.1-0.3 0.3-0.6z"/><path class="b" d="m116.6 347.2l10.5-6.1q-0.1 0.2-0.1 0.5l-10.5 6.1q0-0.3 0.1-0.5z"/><path class="b" d="m116.5 347.7l10.5-6.1q-0.1 0.2-0.2 0.5l-10.4 6.1q0-0.3 0.1-0.5z"/><path class="b" d="m116.4 348.2l10.4-6.1q0 0.2-0.1 0.4l-10.4 6.1q0-0.2 0.1-0.4z"/><path class="b" d="m116.3 348.6l10.4-6.1q0 0.2 0 0.5l-10.5 6.1q0-0.3 0.1-0.5z"/><path class="b" d="m116.2 349.1l10.5-6.1q-0.1 0.2-0.1 0.4l-10.5 6.1q0.1-0.2 0.1-0.4z"/><path class="b" d="m116.1 349.5l10.5-6.1q0 0.2 0 0.5l-10.5 6.1q0-0.3 0-0.5z"/><path class="b" d="m116.1 350l10.5-6.1q0 0.2 0 0.4l-10.5 6.1q0-0.2 0-0.4z"/><path class="b" d="m116.1 350.4l10.5-6.1q0 0 0 0 0 0.2 0 0.4l-10.5 6.1q0-0.2 0-0.4 0 0 0 0z"/><path class="b" d="m116.1 350.8l10.5-6.1q0 0.3 0 0.5l-10.5 6.1q0-0.2 0-0.5z"/><path class="b" d="m116.1 351.3l10.5-6.1q0 0.2 0.1 0.4l-10.5 6.1q-0.1-0.2-0.1-0.4z"/><path class="b" d="m116.2 351.7l10.5-6.1q0 0.3 0 0.5l-10.5 6.1q0-0.2 0-0.5z"/><path class="b" d="m116.2 352.2l10.5-6.1q0 0.2 0.1 0.5l-10.5 6.1q0-0.3-0.1-0.5z"/><path class="b" d="m116.3 352.7l10.5-6.1q0 0.2 0.1 0.5l-10.5 6q-0.1-0.2-0.1-0.4z"/><path class="b" d="m116.4 353.1l10.5-6q0 0.2 0.1 0.4l-10.5 6.1q-0.1-0.2-0.1-0.5z"/><path class="b" d="m116.5 353.6l10.5-6.1q0 0.3 0.1 0.5l-10.5 6.1q-0.1-0.2-0.1-0.5z"/><path class="b" d="m116.6 354.1l10.5-6.1q0 0.3 0.1 0.5l-10.5 6.1q-0.1-0.2-0.1-0.5z"/><path class="b" d="m116.7 354.6l10.5-6.1q0.1 0.3 0.2 0.5l-10.5 6.1q-0.1-0.2-0.2-0.5z"/><path class="b" d="m116.9 355.1l10.5-6.1q0 0.3 0.1 0.5l-10.5 6.1q-0.1-0.2-0.1-0.5z"/><path class="b" d="m117 355.6l10.5-6.1q0.1 0.3 0.2 0.5l-10.5 6.1q-0.1-0.2-0.2-0.5z"/><path class="b" d="m117.2 356.1l10.5-6.1q0.1 0.2 0.1 0.5l-10.4 6.1q-0.1-0.3-0.2-0.5z"/><path class="b" d="m117.4 356.6l10.4-6.1q0.1 0.2 0.2 0.4l-10.5 6.1q0-0.2-0.1-0.4z"/><path class="b" d="m117.5 357l10.5-6.1q0.1 0.3 0.2 0.5l-10.5 6.1q-0.1-0.3-0.2-0.5z"/><path class="b" d="m117.7 357.5l10.5-6.1q0.1 0.2 0.2 0.4l-10.5 6.1q-0.1-0.2-0.2-0.4z"/><path class="b" d="m117.9 357.9l10.5-6.1q0.1 0.3 0.3 0.5l-10.5 6.1q-0.1-0.2-0.3-0.5z"/><path class="b" d="m118.2 358.4l10.5-6.1q0.1 0.3 0.2 0.6l-10.4 6q-0.2-0.2-0.3-0.5z"/><path class="b" d="m118.5 358.9l10.4-6q0.2 0.3 0.4 0.6 0 0.1 0.1 0.1l-10.5 6.1q0 0-0.1-0.1-0.2-0.3-0.3-0.7z"/><path class="b" d="m118.9 359.7l10.5-6.1q0.4 0.7 0.8 1.3l-10.5 6.1q-0.4-0.6-0.8-1.3z"/><path class="b" d="m119.7 361l10.5-6.1q0.3 0.4 0.5 0.8l-10.4 6.1q-0.3-0.4-0.6-0.8z"/><path class="b" d="m120.3 361.8l10.4-6.1q0.2 0.3 0.4 0.5l-10.5 6.1q-0.2-0.2-0.3-0.5z"/><path class="b" d="m120.6 362.3l10.5-6.1q0.2 0.2 0.4 0.5l-10.5 6q-0.2-0.2-0.4-0.4z"/><path class="b" d="m121 362.7l10.5-6q0.2 0.2 0.3 0.4l-10.4 6.1q-0.2-0.2-0.4-0.5z"/><path class="b" d="m121.4 363.2l10.4-6.1q0.2 0.2 0.4 0.4l-10.5 6.1q-0.2-0.2-0.3-0.4z"/><path class="b" d="m121.7 363.6l10.5-6.1q0.2 0.2 0.4 0.4l-10.5 6.1q-0.2-0.2-0.4-0.4z"/><path class="b" d="m122.1 364l10.5-6.1q0.2 0.2 0.4 0.4l-10.5 6.1q-0.2-0.2-0.4-0.4z"/><path class="b" d="m122.5 364.4l10.5-6.1q0.2 0.2 0.4 0.4l-10.5 6.1q-0.2-0.2-0.4-0.4z"/><path class="b" d="m122.9 364.8l10.5-6.1q0.2 0.2 0.4 0.3l-10.5 6.1q-0.2-0.2-0.4-0.3z"/><path class="b" d="m123.3 365.1l10.5-6.1q0.2 0.2 0.5 0.4l-10.5 6.1q-0.2-0.2-0.5-0.4z"/><path class="b" d="m123.8 365.5l10.5-6.1q0.2 0.1 0.4 0.3l-10.5 6.1q-0.2-0.2-0.4-0.3z"/><path class="b" d="m124.2 365.8l10.5-6.1q0.2 0.1 0.4 0.3l-10.5 6.1q-0.2-0.2-0.4-0.3z"/><path class="b" d="m124.6 366.1l10.5-6.1q0.2 0.1 0.4 0.2l-10.5 6.1q-0.2-0.1-0.4-0.2z"/><path class="b" d="m125 366.3l10.5-6.1q0.2 0.2 0.4 0.3l-10.5 6.1q-0.2-0.1-0.4-0.3z"/><path class="b" d="m125.4 366.6l10.5-6.1q0 0 0 0 0.2 0.1 0.3 0.2l-10.4 6.1q-0.2-0.1-0.3-0.2-0.1 0-0.1 0z"/><path class="b" d="m125.8 366.8l10.4-6.1q0.2 0.1 0.4 0.2l-10.5 6.1q-0.2-0.1-0.3-0.2z"/><path class="b" d="m126.1 367l10.5-6.1q0.2 0.1 0.4 0.2l-10.5 6.1q-0.2-0.1-0.4-0.2z"/><path class="b" d="m126.5 367.2l10.5-6.1q0.2 0.1 0.4 0.1l-10.5 6.1q-0.2-0.1-0.4-0.1z"/><path class="b" d="m126.9 367.3l10.5-6.1q0.2 0.1 0.3 0.2l-10.4 6.1q-0.2-0.1-0.4-0.2z"/><path class="b" d="m127.3 367.5l10.4-6.1q0.2 0 0.4 0.1l-10.5 6.1q-0.1-0.1-0.3-0.1z"/><path class="b" d="m127.6 367.6l10.5-6.1q0.2 0.1 0.4 0.1l-10.5 6.1q-0.2-0.1-0.4-0.1z"/><path class="b" d="m128 367.7l10.5-6.1q0.2 0 0.4 0.1l-10.5 6.1q-0.2-0.1-0.4-0.1z"/><path class="b" d="m128.4 367.8l10.5-6.1q0.2 0 0.4 0.1l-10.5 6q-0.2 0-0.4 0z"/><path class="b" d="m128.8 367.8l10.5-6q0.2 0 0.4 0l-10.5 6.1q-0.2 0-0.4-0.1z"/><path class="b" d="m129.2 367.9l10.5-6.1q0.3 0 0.5 0l-10.5 6.1q-0.2 0-0.5 0z"/><path class="b" d="m129.7 367.9l10.5-6.1q0.2 0 0.5 0l-10.5 6.1q-0.3 0-0.5 0z"/><path class="b" d="m130.2 367.9l10.5-6.1q0.2 0 0.5-0.1l-10.5 6.1q-0.3 0.1-0.5 0.1z"/><path class="b" d="m130.7 367.8l10.5-6.1q0.3-0.1 0.6-0.2l-10.4 6.1q-0.4 0.1-0.7 0.2z"/><path class="b" d="m131.4 367.6l10.4-6.1q0.4-0.1 0.8-0.3l-10.5 6.1q-0.4 0.2-0.7 0.3z"/><path class="b" d="m139.3 372.9l10.5-6.1 2.4 4.2-10.5 6.1z"/><path class="b" d="m115.1 331.1l10.5-6.1 2.4 4.2-10.5 6.1z"/><path class="h" d="m109.3 334.4l10.5-6.1 5.8-3.3-10.5 6.1z"/><path class="h" d="m140.9 369.4l10.5-6.1q-0.1 0.1-0.1 0.2l-10.5 6.1q0.1-0.1 0.1-0.2z"/><path class="h" d="m140.8 369.6l10.5-6.1q-0.1 0.5-0.3 0.9l-10.5 6.1q0.2-0.4 0.3-0.9z"/><path class="h" d="m140.5 370.5l10.5-6.1q-0.2 0.5-0.4 0.9l-10.5 6.1q0.3-0.4 0.4-0.9z"/><path class="h" d="m140.1 371.4l10.5-6.1q-0.2 0.6-0.6 1.1l-10.4 6.1q0.3-0.5 0.5-1.1z"/><path class="h" d="m139.6 372.5l10.4-6.1q-0.1 0.2-0.2 0.4l-10.5 6.1q0.1-0.2 0.3-0.4z"/><path class="h" d="m117.5 335.3l10.5-6.1q0 0 0 0l-10.5 6.1q0 0 0 0z"/><path class="h" d="m117.5 335.3l10.5-6.1q0.4-0.1 0.8-0.1l-10.5 6.1q-0.4 0-0.8 0.1z"/><path class="h" d="m118.3 335.2l10.5-6.1q0.4 0 0.8 0.1l-10.5 6q-0.4 0-0.8 0z"/><path class="h" d="m119.1 335.2l10.5-6q0.3 0 0.7 0l-10.5 6.1q-0.4 0-0.7-0.1z"/><path class="h" d="m119.8 335.3l10.5-6.1q0.3 0.1 0.7 0.1l-10.5 6.1q-0.4 0-0.7-0.1z"/><path class="h" d="m120.5 335.4l10.5-6.1q0.3 0.1 0.7 0.2l-10.5 6.1q-0.4-0.1-0.7-0.2z"/><path class="h" d="m121.2 335.6l10.5-6.1q0.1 0 0.2 0.1l-10.5 6.1q-0.1-0.1-0.2-0.1z"/><path class="h" d="m139.3 354.5l10.5-6.1q0 0 0 0.1l-10.5 6.1q0-0.1 0-0.1z"/><path class="h" d="m139.3 354.6l10.5-6.1q0.2 0.3 0.3 0.7l-10.5 6.1q-0.1-0.4-0.3-0.7z"/><path class="h" d="m139.6 355.3l10.5-6.1q0.1 0.4 0.3 0.8l-10.5 6.1q-0.1-0.4-0.3-0.8z"/><path class="h" d="m139.9 356.1l10.5-6.1q0.1 0.4 0.2 0.8l-10.4 6.1q-0.2-0.4-0.3-0.8z"/><path class="h" d="m140.2 356.9l10.4-6.1q0.2 0.4 0.3 0.9l-10.5 6.1q-0.1-0.5-0.2-0.9z"/><path class="h" d="m140.4 357.8l10.5-6.1q0.1 0.4 0.2 0.8l-10.5 6.1q-0.1-0.4-0.2-0.8z"/><path class="h" d="m140.6 358.6l10.5-6.1q0.1 0.5 0.2 0.9l-10.5 6.1q-0.1-0.4-0.2-0.9z"/><path class="h" d="m140.8 359.5l10.5-6.1q0.1 0.2 0.1 0.4l-10.5 6.1q0-0.2-0.1-0.4z"/><path class="h" d="m129.6 340.4l10.5-6.1q0.1 0.1 0.2 0.2l-10.5 6.1q-0.1-0.1-0.2-0.2z"/><path class="h" d="m129.8 340.6l10.5-6.1q0.4 0.3 0.8 0.7l-10.5 6q-0.4-0.3-0.8-0.6z"/><path class="h" d="m130.6 341.2l10.5-6q0.3 0.3 0.6 0.6l-10.4 6.1q-0.4-0.3-0.7-0.7z"/><path class="h" d="m131.3 341.9l10.4-6.1q0.4 0.4 0.7 0.7l-10.5 6.1q-0.3-0.3-0.6-0.7z"/><path class="h" d="m131.9 342.6l10.5-6.1q0.3 0.3 0.6 0.7l-10.5 6.1q-0.3-0.4-0.6-0.7z"/><path class="h" d="m132.5 343.3l10.5-6.1q0.3 0.3 0.6 0.7l-10.5 6.1q-0.3-0.4-0.6-0.7z"/><path class="h" d="m133.1 344l10.5-6.1q0.2 0.2 0.4 0.5l-10.5 6.1q-0.2-0.3-0.4-0.5z"/><path class="h" d="m144.3 361.9l10.5-6.1v9.4l-10.5 6.1z"/><path class="b" d="m140.9 359.9l10.5-6.1 3.4 2-10.5 6.1z"/><path class="h" d="m121.4 331.7l10.5-6.1 8.2 4.8-10.4 6.1z"/><path class="b" d="m129.7 336.5l10.4-6.1v3.9l-10.5 6.1z"/><path class="h" d="m135.9 343.1l10.5-6.1 5.8 10.1-10.5 6z"/><path class="h" d="m133.5 344.5l10.5-6.1 2.4-1.4-10.5 6.1z"/><path fill-rule="evenodd" class="c" d="m144.3 371.3l-3.4-1.9q-0.6 2-1.6 3.5l2.4 4.2-5.9 3.3-2.4-4.2q-1.8 0.2-3.9-0.4v3.9l-8.2-4.7v-3.9q-2-1.8-3.9-4.1l-2.4 1.4-5.8-10.1 2.5-1.3q-1.1-2.8-1.6-5.4l-3.4-2v-9.4l3.4 1.9q0.5-2 1.6-3.5l-2.4-4.2 5.8-3.3 2.4 4.2q1.9-0.2 3.9 0.4v-4l8.3 4.8-0.1 3.9q2.1 1.8 3.9 4.1l2.4-1.4 5.8 10-2.4 1.4q1.1 2.7 1.6 5.4l3.4 2zm-12.2-4c1.8-1 2.8-3.2 2.8-6.1 0-2.8-1-6.2-2.7-9.2-1.8-3-4.2-5.5-6.7-7-2.4-1.4-4.8-1.7-6.6-0.7-1.8 1.1-2.8 3.2-2.8 6.1 0 2.8 1 6.2 2.8 9.2 1.7 3 4.1 5.6 6.6 7 2.5 1.4 4.9 1.7 6.6 0.7z"/><path class="h" d="m496.4 445.6l-20.6-11.9-14.1 8.2 20.6 11.9 20.7 12 14.1-8.2z"/><g clip-path="url(#cp1)"><path class="b" d="m537.3 488.7q-0.2-0.2-0.6-0.5-0.3-0.2-0.7-0.6-0.4-0.4-0.9-0.8-0.4-0.4-0.9-0.9-0.5-0.5-1-1-0.4-0.5-0.9-1.1-0.5-0.6-1.1-1.2-0.5-0.6-1-1.3-0.7-0.8-1.3-1.7-0.9-1.2-1.8-2.6-1.4-2-2.9-4.5-0.9-1.6-1.8-3.3-0.6-1.2-1.3-2.4-0.5-1.1-1-2.2-0.5-1.1-1-2.2-0.5-1.1-1-2.3-0.5-1.2-1-2.5 0 0 0 0l-14.1 8.2q0 0 0 0 0.5 1.2 1 2.5 0.5 1.1 1 2.3 0.5 1.1 1 2.2 0.5 1.1 1.1 2.2 0.6 1.2 1.2 2.4 0.9 1.7 1.8 3.2 1.5 2.5 2.9 4.6 0.9 1.4 1.8 2.6 0.7 0.9 1.3 1.7 0.5 0.7 1 1.3 0.6 0.6 1.1 1.2 0.5 0.6 0.9 1.1 0.6 0.5 1 1 0.5 0.5 0.9 0.9 0.5 0.4 0.9 0.8 0.4 0.4 0.7 0.6 0.4 0.3 0.6 0.5 0.3 0.2 0.4 0.3l14-8.2q0-0.1-0.3-0.3z"/><path class="b" d="m503 465.8l14.1-8.2c8.8 22.8 20 31 20.5 31.4l-14 8.2c-0.6-0.5-11.7-8.7-20.6-31.4z"/></g><path class="c" d="m523.6 497.2c8.1 55.8-22.1 67-41.6 67.8-19.4-23.2-49.4-69.2-41-115.5 0.6 0.3 11.7 4.9 20.7-7.6l20.6 11.9 20.7 12c8.9 22.7 20 30.9 20.6 31.4z"/><path class="h" d="m467.1 441.1q-0.4 0.2-0.9 0.3-0.4 0.2-0.8 0.3-0.1 0-0.3 0.1-0.6 0.1-1.2 0.3 0 0 0 0 0 0 0 0-0.8 0.1-1.5 0.2-0.2 0-0.4 0-0.5 0-0.9 0.1-0.2 0-0.4 0-0.4 0-0.9-0.1-0.1 0-0.2 0-0.5 0-1-0.1-0.1 0-0.2 0-0.4-0.1-0.7-0.1-0.1-0.1-0.3-0.1-0.2 0-0.5-0.1-0.1 0-0.2-0.1-0.2 0-0.4-0.1-0.1 0-0.3 0-0.2-0.1-0.3-0.2-0.1 0-0.1 0-0.3-0.1-0.4-0.1-0.1-0.1-0.1-0.1 0 0 0 0l-14.1 8.2q0 0 0.1 0 0 0.1 0 0.1 0.1 0 0.4 0.1 0 0 0 0 0 0 0.1 0 0.2 0.1 0.4 0.1 0 0.1 0.1 0.1 0 0 0.1 0 0.2 0.1 0.4 0.1 0.1 0 0.1 0.1 0.1 0 0.2 0 0.2 0 0.4 0.1 0.1 0 0.3 0 0 0.1 0 0.1 0.3 0 0.7 0.1 0.1 0 0.2 0 0 0 0 0 0.5 0.1 1 0.1 0 0 0.1 0 0 0 0.1 0 0.5 0 0.9 0 0.1 0.1 0.2 0.1 0.1-0.1 0.2-0.1 0.4 0 0.9 0 0.1 0 0.3 0 0 0 0.1 0 0.7-0.1 1.5-0.2 0-0.1 0-0.1 0 0 0 0 0 0 0 0 0.6-0.1 1.2-0.2 0.2-0.1 0.4-0.1 0.3-0.1 0.6-0.2 0.1-0.1 0.1-0.1 0.5-0.2 0.9-0.4 0.3-0.1 0.5-0.2 0.7-0.3 1.4-0.7l14.1-8.2q-0.7 0.4-1.4 0.8-0.2 0.1-0.5 0.2z"/><path class="h" d="m539 507.2q0-0.1 0-0.2 0-0.4 0-0.7 0-1.2 0-2.3 0-0.3 0-0.6 0-0.3-0.1-0.6 0-1.1-0.1-2.3 0-0.4 0-0.7 0-0.3 0-0.5-0.1-1.4-0.3-2.9 0-0.2 0-0.5 0-0.1 0-0.2-0.2-1.8-0.5-3.7 0-0.2 0-0.3-0.2-1.3-0.4-2.7l-14 8.2q0.2 1.5 0.4 3 0.2 1.9 0.4 3.7 0 0.4 0 0.7 0.2 1.5 0.3 2.9 0 0.6 0 1.2 0.1 1.1 0.1 2.3 0.1 0.6 0.1 1.1 0 1.2 0 2.4 0 0.4 0 0.9 0 1.6-0.1 3.1 0 0.2 0 0.3 0 1.4-0.1 2.7-0.1 0.5-0.1 1-0.1 1-0.2 2-0.1 0.5-0.1 0.9-0.2 1.5-0.5 2.8 0 0.1 0 0.1-0.2 1.5-0.5 2.9-0.1 0.3-0.2 0.7-0.4 1.5-0.8 3 0 0 0 0-0.5 1.7-1.1 3.2 0 0.2-0.1 0.4-0.7 1.8-1.5 3.5 0 0.1-0.1 0.2-0.5 1.1-1.1 2.1-0.1 0.2-0.3 0.5-0.4 0.8-0.9 1.6-0.1 0.2-0.3 0.4-0.6 0.9-1.2 1.8-0.1 0.2-0.2 0.3-0.6 0.7-1.1 1.4-0.2 0.2-0.4 0.4-0.6 0.8-1.3 1.5 0 0 0 0.1-0.7 0.7-1.5 1.4-0.2 0.2-0.4 0.4-0.5 0.5-1.1 1-0.2 0.1-0.4 0.3-0.7 0.6-1.5 1.2-0.1 0.1-0.3 0.2-0.6 0.5-1.3 0.9-0.2 0.1-0.4 0.3-0.8 0.5-1.6 1l14.1-8.2q0.8-0.5 1.6-1 0.2-0.2 0.4-0.3 0.7-0.4 1.3-0.9 0.1-0.1 0.3-0.2 0.8-0.6 1.5-1.2 0.2-0.1 0.4-0.3 0.6-0.5 1.1-1 0.2-0.2 0.4-0.4 0.8-0.7 1.5-1.4 0 0 0-0.1 0.7-0.7 1.3-1.5 0.2-0.2 0.4-0.4 0.5-0.7 1-1.4 0.2-0.1 0.3-0.3 0.6-0.9 1.2-1.8 0.1 0 0.1-0.1 0.1-0.2 0.2-0.3 0.5-0.8 0.9-1.6 0.2-0.2 0.3-0.5 0.6-1 1.1-2.1 0 0 0-0.1 0.1 0 0.1-0.1 0.8-1.7 1.5-3.5 0-0.1 0-0.1 0.1-0.2 0.1-0.3 0.6-1.5 1.1-3.2 0 0 0 0 0 0 0 0 0.4-1.5 0.8-3 0-0.2 0.1-0.4 0-0.2 0-0.3 0.4-1.4 0.6-2.8 0-0.1 0-0.1 0 0 0-0.1 0.3-1.3 0.4-2.8 0.1-0.1 0.1-0.3 0-0.3 0.1-0.6 0.1-1 0.2-2 0-0.3 0-0.6 0-0.2 0-0.4 0.2-1.3 0.2-2.6 0-0.2 0-0.3 0-0.1 0-0.1 0.1-1.5 0.1-3.1z"/><path fill-rule="evenodd" class="e" d="m495.4 502v15.2c0 8.4-6 11.8-13.3 7.6-7.3-4.2-13.2-14.4-13.1-22.8v-15.2l2.6 1.5v-7.2c0.1-5 3.7-7.1 8.1-4.5l5.2 3c4.4 2.5 8 8.7 7.9 13.8v7.1zm-21.4-12.3l16.4 9.5v-7.2c0.1-3.6-2.5-7.9-5.6-9.7l-5.1-3c-3.2-1.8-5.7-0.4-5.7 3.2zm11.6 16.6c0.1-2.2-1.5-4.8-3.4-5.9-1.9-1.1-3.4-0.2-3.4 1.9-0.1 1.7 0.8 3.6 2 4.9v4.7c0 0.9 0.6 1.9 1.4 2.4 0.7 0.4 1.3 0.1 1.3-0.8v-4.7c1.3 0.1 2.1-0.8 2.1-2.5z"/><path class="b" d="m285.8 162.8l10.6-6.2 6.9-7.6-10.6 6.2z"/><path class="h" d="m340.2 119.9q0-0.3-0.1-0.5 0-0.2 0-0.5 0-0.2 0-0.5-0.1-0.2-0.1-0.4-0.1-0.3-0.1-0.5 0-0.3-0.1-0.5-0.1-0.3-0.1-0.5-0.1-0.3-0.2-0.6 0-0.2-0.1-0.5-0.1-0.2-0.2-0.5 0-0.2-0.1-0.5-0.1-0.2-0.2-0.4-0.1-0.3-0.2-0.5-0.1-0.2-0.2-0.5-0.1-0.2-0.2-0.4-0.1-0.3-0.3-0.5-0.1-0.3-0.3-0.6-0.2-0.5-0.4-0.9-0.4-0.6-0.8-1.1-0.3-0.5-0.6-0.9-0.2-0.3-0.4-0.6-0.2-0.2-0.4-0.4-0.2-0.3-0.4-0.5-0.1-0.2-0.3-0.4-0.2-0.2-0.4-0.4-0.2-0.2-0.4-0.4-0.2-0.2-0.5-0.4-0.2-0.2-0.4-0.4-0.2-0.2-0.4-0.3-0.2-0.2-0.4-0.4-0.3-0.1-0.5-0.3-0.2-0.1-0.4-0.2-0.2-0.2-0.4-0.3 0 0-0.1 0l-67.9-38.5q-0.1-0.1-0.3-0.2-0.2-0.1-0.4-0.2-0.2-0.1-0.4-0.2-0.2-0.1-0.4-0.1-0.2-0.1-0.4-0.2-0.2-0.1-0.4-0.1-0.2-0.1-0.4-0.1-0.2-0.1-0.3-0.1-0.3 0-0.5-0.1-0.2 0-0.4 0-0.2 0-0.5 0-0.2 0-0.5 0-0.2 0-0.5 0.1-0.4 0-0.7 0.2-0.4 0.1-0.8 0.3l-10.6 6.2q0.4-0.2 0.8-0.4 0.3-0.1 0.7-0.2 0.2 0 0.5 0 0.3-0.1 0.5-0.1 0.3 0 0.5 0 0.2 0.1 0.4 0.1 0.2 0 0.4 0.1 0.2 0 0.4 0 0.2 0.1 0.4 0.2 0.2 0 0.4 0.1 0.2 0.1 0.4 0.1 0.2 0.1 0.4 0.2 0.2 0.1 0.4 0.2 0.2 0.1 0.4 0.2 0.2 0.1 0.3 0.2l67.9 38.4q0.1 0.1 0.1 0.1 0.2 0.1 0.4 0.2 0.2 0.2 0.4 0.3 0.2 0.2 0.4 0.3 0.3 0.2 0.5 0.3 0.2 0.2 0.4 0.4 0.2 0.2 0.4 0.4 0.2 0.2 0.5 0.4 0.2 0.2 0.4 0.4 0.2 0.2 0.4 0.4 0.1 0.2 0.3 0.4 0.2 0.2 0.4 0.4 0.2 0.3 0.4 0.5 0.2 0.3 0.4 0.6 0.3 0.4 0.6 0.8 0.4 0.6 0.7 1.2 0.3 0.4 0.5 0.8 0.2 0.3 0.3 0.6 0.2 0.3 0.3 0.5 0.1 0.3 0.2 0.5 0.1 0.2 0.2 0.5 0.1 0.2 0.2 0.4 0.1 0.3 0.2 0.5 0 0.3 0.1 0.5 0.1 0.2 0.2 0.5 0.1 0.3 0.1 0.5 0.1 0.3 0.2 0.5 0 0.3 0.1 0.5 0 0.3 0.1 0.5 0 0.3 0.1 0.5 0 0.3 0 0.5 0.1 0.2 0.1 0.5 0 0.2 0 0.5 0.1 0.2 0.1 0.4 0 0.2 0 0.5l-0.1 38.2q0 0 0 0 0 0.3-0.1 0.5 0 0.2 0 0.5 0 0.2 0 0.4-0.1 0.3-0.1 0.5 0 0.2-0.1 0.5-0.1 0.2-0.1 0.4-0.1 0.3-0.2 0.6-0.1 0.2-0.2 0.5-0.2 0.4-0.4 0.7-0.7 1-1.7 1.6l10.6-6.2q1-0.5 1.7-1.6 0.2-0.3 0.4-0.7 0.1-0.2 0.2-0.5 0.1-0.3 0.2-0.5 0.1-0.3 0.1-0.5 0.1-0.2 0.1-0.5 0-0.2 0.1-0.4 0-0.3 0-0.5 0-0.2 0.1-0.5 0-0.2 0-0.4 0 0 0-0.1l0.1-38.2q0-0.2 0-0.4z"/><path class="c" d="m319.9 109.7c5.4 3.1 9.7 10.6 9.7 16.8l-0.1 38.2c-0.1 6.1-4.4 8.6-9.8 5.5l-27-15-6.9 7.6-7.1-15.7-26.9-15.3c-5.3-3.1-9.6-10.6-9.6-16.8l0.1-38.2c0-6.1 4.3-8.6 9.7-5.5z"/><text style="transform:matrix(1.092,.615,0,1.253,267.732,117.41)" ><tspan x="0" y="0" class="i">:</tspan><tspan  y="0" class="i">)
</tspan></text><path class="a" d="m580.9 358.3c-2-1.1-3.6-0.2-3.6 2.1l-0.3 105c0 2.3 1.6 5.1 3.6 6.3l116.6 67.2c2 1.2 3.6 0.3 3.6-2l0.3-105c0-2.3-1.6-5.1-3.6-6.3z"/><path class="b" d="m580.3 358q-0.1 0-0.2-0.1-0.1 0-0.2 0-0.1 0-0.1 0-0.1 0-0.2-0.1-0.1 0-0.1 0-0.1 0-0.3 0 0 0 0 0-0.2 0-0.3 0.1 0 0 0 0-0.2 0-0.2 0-0.1 0-0.1 0.1-0.1 0-0.2 0.1l6.9-4.1q0 0 0 0 0.1 0 0.2-0.1 0 0 0.1 0 0 0 0 0 0.1 0 0.1 0 0.1-0.1 0.1-0.1 0 0 0.1 0 0 0 0 0 0.1 0 0.2 0 0 0 0 0 0.1 0 0.1 0 0.1 0 0.2 0 0 0 0 0 0.1 0 0.1 0 0.1 0 0.1 0 0.1 0 0.1 0 0.1 0 0.2 0.1 0 0 0.1 0 0 0 0 0 0.2 0 0.3 0.1 0 0 0.1 0 0 0 0 0 0.3 0.1 0.5 0.3l116.6 67.3q0.3 0.2 0.6 0.4 0.1 0.1 0.2 0.2 0.2 0.2 0.4 0.3 0 0.1 0.1 0.2 0.1 0 0.1 0.1 0.1 0.1 0.2 0.1 0.1 0.2 0.3 0.4 0 0.1 0.1 0.1 0 0.1 0 0.1 0.1 0.1 0.1 0.1 0.1 0.2 0.2 0.3 0.1 0.2 0.2 0.3 0 0 0 0.1 0 0 0 0 0.1 0.1 0.2 0.2 0 0.2 0.1 0.3 0.1 0.2 0.2 0.3 0 0 0 0 0 0.1 0 0.1 0 0.1 0.1 0.3 0.1 0.2 0.1 0.3 0 0.1 0.1 0.2 0 0 0 0.1 0 0 0 0.1 0.1 0.2 0.1 0.4 0.1 0.1 0.1 0.3 0 0 0 0.1 0 0.1 0 0.1 0.1 0.4 0.1 0.7l-0.3 105c0 1.2-0.4 2-1.1 2.4l-6.9 4c0.6-0.4 1-1.2 1-2.3l0.3-105q0-0.4-0.1-0.9 0 0 0-0.1 0-0.4-0.2-0.8 0 0 0 0-0.1-0.5-0.3-0.9 0 0 0 0-0.2-0.5-0.4-0.9 0 0-0.1 0-0.2-0.4-0.5-0.8 0 0 0 0-0.3-0.4-0.5-0.7-0.1 0-0.2-0.1-0.2-0.2-0.4-0.4-0.1-0.1-0.2-0.2-0.4-0.3-0.7-0.5l-116.6-67.3q-0.2-0.1-0.4-0.2-0.1 0-0.2-0.1z"/><path class="c" d="m580.8 352.5c-2-1.1-3.6-0.2-3.7 2.1v7.2l123.8 71.5 0.1-7.2c0-2.3-1.6-5.1-3.7-6.3z"/><path class="d" d="m707.9 421.3q0 0 0-0.1-0.1-0.1-0.1-0.1 0-0.2 0-0.3-0.1-0.2-0.1-0.4 0-0.1 0-0.1-0.1-0.1-0.1-0.1 0-0.1 0-0.2-0.1-0.1-0.1-0.3-0.1-0.2-0.2-0.3 0 0 0 0 0-0.1 0-0.1-0.1-0.1-0.1-0.2-0.1-0.2-0.2-0.4 0-0.1-0.1-0.2 0 0 0 0 0 0 0-0.1-0.1-0.1-0.2-0.3-0.1-0.1-0.2-0.3-0.1 0-0.1-0.1-0.1 0-0.1-0.1 0 0-0.1-0.1-0.1-0.2-0.3-0.4-0.1 0-0.1-0.1-0.1-0.1-0.1-0.1-0.1-0.1-0.2-0.2-0.1-0.1-0.3-0.3-0.1-0.1-0.2-0.2-0.3-0.2-0.7-0.4l-116.5-67.3q-0.3-0.2-0.6-0.3 0 0-0.1 0-0.1-0.1-0.1-0.1-0.1 0-0.2 0-0.1-0.1-0.3-0.1-0.1 0-0.1 0-0.1 0-0.1 0 0 0-0.1 0-0.1 0-0.2 0-0.1 0-0.2 0-0.1 0-0.1 0 0 0 0 0-0.1 0-0.1 0.1-0.1 0-0.2 0-0.1 0.1-0.2 0.1 0 0 0 0l-7 4.1q0.2-0.2 0.5-0.2 0 0 0.1 0 0.2-0.1 0.5-0.1 0.1 0 0.1 0 0.3 0.1 0.6 0.2 0.1 0 0.1 0 0.3 0.1 0.7 0.3l116.5 67.3q0.4 0.2 0.7 0.5 0.1 0.1 0.2 0.2 0.3 0.2 0.5 0.4 0.1 0.1 0.1 0.1 0.3 0.3 0.5 0.7 0.1 0 0.1 0 0.3 0.4 0.5 0.8 0 0 0 0 0.3 0.4 0.4 0.9 0 0 0.1 0 0.1 0.4 0.3 0.9 0 0 0 0 0.1 0.4 0.2 0.8 0 0.1 0 0.2 0.1 0.4 0.1 0.8l-0.1 7.2 7-4v-7.3q0-0.3 0-0.7z"/><path class="e" d="m676.1 411c-1.2-0.7-2.3-0.2-2.3 1.3 0 1.4 1.1 3.2 2.3 3.9 1.3 0.7 2.3 0.2 2.3-1.3 0-1.4-1-3.2-2.3-3.9z"/><path class="e" d="m683.9 415.5c-1.2-0.7-2.2-0.1-2.2 1.3 0 1.4 1 3.2 2.2 3.9 1.3 0.8 2.3 0.2 2.3-1.3 0-1.4-1-3.2-2.3-3.9z"/><path class="e" d="m691.8 420c-1.3-0.7-2.3-0.1-2.3 1.3 0 1.5 1 3.2 2.2 3.9 1.3 0.8 2.3 0.2 2.3-1.3 0-1.4-1-3.2-2.2-3.9z"/><path class="e" d="m658 459.1c0 13.6-11.1 19.7-24.8 13.4-13.7-6.2-24.8-22.4-24.8-36.1 0-13.7 11.1-19.7 24.8-13.4 13.7 6.2 24.8 22.4 24.8 36.1z"/><path class="c" d="m628.1 436.6v19l16.4-2z"/><path class="j" d="m446.8 281.8c0.3-1.1 2.2-3.1 2.7-3.7 0.4-0.5 1.9-2 1.9-2.6 0-0.6 0.2-1.5-0.1-1.7-0.3-0.1-1.4 0.9-1.4 0.9 0 0-1-2.5-0.7-3.9 0.3-1.3 1.4-3.7 0.8-3.9-0.6-0.1-2.5 0.7-3.1 1.1-0.6 0.4-2.5 1.9-2.9 2.8-0.4 0.8-0.6 4.3-0.7 5.5 0 1.2-0.9 4.7-0.9 4.7z"/><path class="k" d="m442.4 313c-1.1 4.9-6.1 12.4-9.6 10.2-0.7-0.4-2.2-6-2.4-7.2-0.9-6.5 2.7-14.3 3.6-17.5 1.2-4 8-19.1 8-19.1 0 0 3.8 1 4.8 2.4 0 0-4.2 14.6-5 17.8-0.8 3.2 0.6 13.4 0.6 13.4z"/><path class="h" d="m489.9 261.2q0-0.1 0-0.2 0-0.1 0-0.2 0-0.1 0-0.2-0.1-0.1-0.1-0.2 0-0.1 0-0.2 0-0.2-0.1-0.3 0-0.1 0-0.2-0.1-0.1-0.1-0.2 0-0.2-0.1-0.3 0-0.1 0-0.2-0.1-0.1-0.1-0.2 0-0.1-0.1-0.2 0-0.2-0.1-0.3 0-0.1-0.1-0.2 0-0.1-0.1-0.2 0-0.1-0.1-0.2 0-0.2-0.1-0.3-0.1-0.2-0.2-0.4-0.2-0.2-0.4-0.5-0.1-0.2-0.2-0.4-0.1-0.1-0.2-0.3-0.1-0.1-0.2-0.2-0.1-0.1-0.2-0.2-0.1-0.1-0.2-0.2 0-0.1-0.1-0.2-0.1 0-0.2-0.1-0.1-0.1-0.2-0.2-0.1-0.1-0.2-0.2-0.1-0.1-0.2-0.2-0.1 0-0.2-0.1-0.1-0.1-0.2-0.1-0.1-0.1-0.2-0.2-0.1 0-0.2-0.1 0 0 0 0l-31.1-17.6q0 0-0.1-0.1-0.1 0-0.2-0.1-0.1 0-0.2-0.1-0.1 0-0.2 0 0-0.1-0.1-0.1-0.1 0-0.2-0.1-0.1 0-0.2 0-0.1 0-0.2-0.1-0.1 0-0.2 0-0.1 0-0.2 0-0.1 0-0.2 0-0.1 0-0.2 0-0.1 0-0.3 0-0.1 0.1-0.3 0.1-0.2 0.1-0.3 0.2l-4.9 2.8q0.2-0.1 0.4-0.2 0.1 0 0.3 0 0.1-0.1 0.2-0.1 0.2 0 0.3 0 0.1 0 0.2 0 0.1 0 0.2 0 0.1 0 0.2 0.1 0.1 0 0.2 0 0 0 0.1 0.1 0.1 0 0.2 0 0.1 0 0.2 0.1 0.1 0 0.2 0.1 0.1 0 0.1 0 0.1 0.1 0.2 0.1 0.1 0.1 0.2 0.1l31 17.6q0.1 0 0.1 0 0.1 0.1 0.2 0.2 0.1 0 0.2 0.1 0 0 0.1 0.1 0.1 0.1 0.2 0.2 0.1 0 0.2 0.1 0.1 0.1 0.2 0.2 0.1 0.1 0.2 0.2 0.1 0.1 0.2 0.2 0.1 0.1 0.2 0.2 0.1 0 0.2 0.1 0.1 0.1 0.1 0.2 0.1 0.2 0.2 0.3 0.1 0.1 0.2 0.2 0.1 0.2 0.3 0.4 0.2 0.3 0.3 0.5 0.1 0.2 0.2 0.4 0.1 0.2 0.2 0.3 0 0.1 0.1 0.2 0 0.1 0.1 0.2 0 0.2 0.1 0.3 0 0.1 0.1 0.2 0 0.1 0 0.2 0.1 0.1 0.1 0.2 0.1 0.1 0.1 0.2 0 0.2 0.1 0.3 0 0.1 0 0.2 0.1 0.1 0.1 0.2 0 0.2 0 0.3 0 0.1 0.1 0.2 0 0.1 0 0.2 0 0.1 0 0.2 0 0.1 0 0.3 0 0.1 0 0.2 0.1 0.1 0.1 0.2l-0.1 32.7q0 0 0 0 0 0.1 0 0.2 0 0.1 0 0.2 0 0.1 0 0.2-0.1 0.1-0.1 0.2 0 0.2 0 0.3 0 0.1-0.1 0.2 0 0.1 0 0.2-0.1 0.2-0.2 0.3 0 0.1-0.1 0.3-0.3 0.5-0.8 0.7l4.9-2.8q0.4-0.3 0.7-0.7 0.1-0.2 0.2-0.3 0.1-0.2 0.1-0.3 0-0.1 0.1-0.2 0-0.1 0-0.3 0.1-0.1 0.1-0.2 0-0.1 0-0.2 0-0.1 0-0.2 0-0.1 0-0.2 0.1-0.1 0.1-0.2 0 0 0 0v-32.8q0-0.1 0-0.2z"/><path class="c" d="m480.6 256.6c2.5 1.4 4.5 4.9 4.5 7.7l-0.1 32.7c0 2.8-2 3.9-4.4 2.5l-31.1-17.6c-2.5-1.4-4.4-4.8-4.4-7.6v-32.7c0-2.9 2-4 4.5-2.6z"/><text style="transform:matrix(1.092,.615,0,1.253,444.311,265.816)" ><tspan x="0" y="0" class="l">&lt;/&gt;
</tspan></text><path class="j" d="m478.8 290.6c0.7-0.8 1.4-3.6 1.6-4.2 0.2-0.7 0.7-2.8 1.1-3.1 0.5-0.4 1.2-1.1 1.4-0.8 0.3 0.2 0.1 1.6 0.1 1.6 0 0 2.6-0.6 3.6-1.6 1-0.9 2.4-3.2 2.8-2.8 0.4 0.5 0.8 2.4 0.8 3.2 0 0.7-0.2 3.2-0.7 3.9-0.4 0.8-3.2 3-4.2 3.7-1 0.7-3.4 3.4-3.4 3.4z"/><path class="b" d="m448.2 422.6c0 0-0.1 3.1-0.1 4.1 0 1.1 0.3 2.3 0.7 2.4 1.8 0.9 3.2 0.4 3.6 0.4 0.3-0.1 3.9-1.1 5.4-3.1 1.5-1.9 0.2-2.7-1.4-2.7-1.7 0-4.2-2.1-4.2-2.1z"/><path class="b" d="m436.1 415.3c0 0 0 3.9 0 4.9 0 1.1 0.3 2.3 0.6 2.4 1.6 0.8 3.3 0.5 3.6 0.4 0.4-0.1 2.3-2.3 3.8-4.3 1.5-1.9 0.5-3-1.2-3-1.7 0-2.8-0.6-2.8-0.6z"/><path class="j" d="m450.2 292.6c0.5 0.1 1.4 3.8 1.8 5.6 0.3 1.8 0.5 4.3 0.7 5 0.3 0.6-0.2 1.8-0.2 2.3 0 0.6 0.4 2.8-1.1 3.5-1.4 0.7-2.8 0.2-2.9 0.6-0.1 0.4-0.8 5.1-0.8 5.1l-7.2-1.1c0 0 0.1-2.4-0.3-3.9-0.3-1.6-1.5-6.6-1.5-6.6z"/><path class="m" d="m436.8 294.4c0 0 0.7-2.7 4.1-3.9 3.4-1.2 10-0.4 11.1 0.1 1 0.4 0.7 4-0.9 5.8-1.6 1.8-1.9 4.2-1.7 5.1v1.1l-1 0.1c0 0-0.3-1.6-1-2.3-1-1-2.7-0.2-2.5 1 0.2 1.2 0.8 1.5 1.3 1.9 0.6 0.4 1.1 0.5 1.1 0.5 0 0-1.9 2.7-2.1 3.3-0.2 0.6-0.6 2.7-0.6 2.7l-4.2 0.6c0 0-1.7-4-3.2-5.7-1.6-1.7-2.6-4.7-2.4-6.8 0.2-2.1 2-3.5 2-3.5z"/><path class="m" d="m443 354.1c-3.8 3.8-4.3 11.2-1 18.7 2.3 5.2 3.4 6.9 3.7 17.4 0.4 10.6 2.3 21.8 2.2 32.9-0.1 1.3 4 1.8 6.5-0.2 0 0 1.1-25.2 1.8-31.8 0.6-6.6 1.7-15.1 1.7-22.2 0-8.2-2.1-16.3-2.1-16.3z"/><path class="m" d="m434.7 351c-3.8 3.9-2.3 11.4-1.5 19.2 0.8 7.8 1.4 17.5 1.7 23.4 0.3 5 0.5 11.8 1.1 21.7 0.1 1.2 3.6 2.9 6.2 1 0 0 1.5-21.6 2.2-28.1 0.6-6.6 2.7-19.5 4.1-25.8 1.3-6.2 1.9-8.5 1.9-8.5z"/><path class="k" d="m437.9 309.3c-1.8-0.3-2.9 1.4-4.9 3.1-2 1.8-1.7 9.2-0.8 14.1 1 5 1.2 8.2 0.7 13.8-0.5 5.7-1.5 13.5-1.3 19.5 0 0 1.9 3.6 9.7 4.7 8.6 1.2 16.9-2.4 16.9-2.4 0 0-1.4-15.4-1.8-19.5-0.6-5.9 1.4-13.8 2.2-17.6 1.1-5.6-3.4-13.5-3.4-13.5 0 0-4.2 1.2-9.4 0.1-5-1.1-7.9-2.3-7.9-2.3z"/><path class="k" d="m455.2 311.5c-3.4 3.7-2.7 15.5 1 17.2 0.8 0.4 2.5-4.5 3.2-5.5 3.7-5.4 10.4-10.2 12.5-12.7 2.7-3.2 11.5-17.2 11.5-17.2 0 0-2.9-2.7-4.6-2.7 0 0-9.8 11.6-12 14-2.3 2.5-11.6 6.9-11.6 6.9z"/><path class="j" d="m444.4 277c0.3 0 0.9-0.2 1.6-0.3 1.4-0.3 1.4 0.1 3-1.2 0.8-0.8 1.4-0.6 1 0.6-0.1 0.5-0.8 1.3-1.2 1.8-0.5 0.8-1.1 2-1.6 2.4-0.9 0.8-2.8-3.3-2.8-3.3z"/><path class="d" d="m143 216.3l-12.6-7.3q0.1-0.1 0.1-0.1l12.6 7.3q0 0.1-0.1 0.1z"/><path class="d" d="m143.1 216.2l-12.6-7.3q0.9-0.3 1.7-0.6l12.6 7.4q-0.8 0.2-1.7 0.5z"/><path class="d" d="m144.8 215.7l-12.6-7.4q0.6-0.1 1.2-0.2l12.6 7.3q-0.6 0.1-1.2 0.3z"/><path class="d" d="m146 215.4l-12.6-7.3q0.5-0.1 1.1-0.1l12.6 7.3q-0.5 0-1.1 0.1z"/><path class="d" d="m147.1 215.3l-12.6-7.3q0.4 0 0.9 0l12.6 7.3q-0.5 0-0.9 0z"/><path class="d" d="m148 215.3l-12.6-7.3q0.4 0 0.8 0.1l12.6 7.3q-0.4-0.1-0.8-0.1z"/><path class="d" d="m148.8 215.4l-12.6-7.3q0.4 0 0.8 0.2l12.6 7.3q-0.4-0.1-0.8-0.2z"/><path class="d" d="m149.6 215.6l-12.6-7.3q0.4 0.1 0.8 0.2l12.6 7.3q-0.4-0.1-0.8-0.2z"/><path class="d" d="m150.4 215.8l-12.6-7.3q0.3 0.2 0.7 0.4l12.6 7.3q-0.4-0.2-0.7-0.4z"/><path class="d" d="m151.1 216.2l-12.6-7.3q0 0 0 0l12.7 7.3q-0.1 0-0.1 0z"/><path class="d" d="m126.5 204.9l-12.6-7.4q1-0.4 2-0.6l12.6 7.3q-1 0.3-2 0.7z"/><path class="d" d="m128.5 204.2l-12.6-7.3q0.9-0.3 1.7-0.4l12.6 7.3q-0.8 0.2-1.7 0.4z"/><path class="d" d="m130.2 203.8l-12.6-7.3q0.8-0.1 1.5-0.1l12.6 7.3q-0.7 0-1.5 0.1z"/><path class="d" d="m131.7 203.7l-12.6-7.3q0.7-0.1 1.3 0l12.6 7.3q-0.6 0-1.3 0z"/><path class="d" d="m133 203.7l-12.6-7.3q0.6 0 1.2 0.1l12.6 7.3q-0.6-0.1-1.2-0.1z"/><path class="d" d="m134.2 203.8l-12.6-7.3q0.5 0.1 1.1 0.3l12.6 7.3q-0.6-0.2-1.1-0.3z"/><path class="d" d="m135.3 204.1l-12.6-7.3q0.5 0.1 1 0.3l12.6 7.4q-0.5-0.3-1-0.4z"/><path class="d" d="m136.3 204.5l-12.6-7.4q0.5 0.2 1 0.5l12.6 7.3q-0.5-0.2-1-0.4z"/><path class="d" d="m137.3 204.9l-12.6-7.3q0 0 0.1 0.1l12.6 7.3q-0.1 0-0.1-0.1z"/><path class="d" d="m99.2 193.3l-12.6-7.3q2-1.1 3.9-1.9l12.6 7.3q-1.9 0.8-3.9 1.9z"/><path class="d" d="m103.1 191.4l-12.6-7.3q1.6-0.7 3.2-1.1l12.6 7.3q-1.6 0.4-3.2 1.1z"/><path class="d" d="m106.3 190.3l-12.6-7.3q1.2-0.3 2.4-0.5l12.6 7.3q-1.2 0.2-2.4 0.5z"/><path class="d" d="m108.7 189.8l-12.6-7.3q1.1-0.2 2.1-0.2l12.6 7.3q-1 0-2.1 0.2z"/><path class="d" d="m110.8 189.6l-12.6-7.3q0.9-0.1 1.8 0l12.6 7.3q-0.9 0-1.8 0z"/><path class="d" d="m112.6 189.6l-12.6-7.3q0.8 0 1.7 0.2l12.6 7.3q-0.8-0.1-1.7-0.2z"/><path class="d" d="m114.3 189.8l-12.6-7.3q0.7 0.1 1.5 0.3l12.6 7.4q-0.8-0.3-1.5-0.4z"/><path class="d" d="m115.8 190.2l-12.6-7.4q0.7 0.3 1.4 0.5l12.6 7.4q-0.7-0.3-1.4-0.5z"/><path class="d" d="m117.2 190.7l-12.6-7.4q0.8 0.3 1.4 0.7l12.6 7.3q-0.6-0.3-1.4-0.6z"/><path class="d" d="m118.6 191.3l-12.6-7.3q0.1 0.1 0.2 0.1l12.6 7.3q-0.1 0-0.2-0.1z"/><path class="d" d="m73.3 229.8l-12.6-7.4q0.1-0.6 0.3-1.3l12.6 7.4q-0.2 0.6-0.3 1.3z"/><path class="d" d="m73.6 228.5l-12.6-7.4q0.4-1.4 0.9-2.8l12.6 7.3q-0.5 1.4-0.9 2.9z"/><path class="d" d="m74.5 225.6l-12.6-7.3q0.4-1.3 0.9-2.6l12.6 7.4q-0.5 1.2-0.9 2.5z"/><path class="d" d="m75.4 223.1l-12.6-7.4q0.5-1.2 1-2.4l12.6 7.3q-0.5 1.2-1 2.5z"/><path class="d" d="m76.4 220.6l-12.6-7.3q0.5-1.2 1.1-2.4l12.6 7.3q-0.6 1.2-1.1 2.4z"/><path class="d" d="m77.5 218.2l-12.6-7.3q0.6-1.2 1.2-2.4l12.6 7.4q-0.6 1.1-1.2 2.3z"/><path class="d" d="m78.7 215.9l-12.6-7.4q0.6-1.1 1.3-2.3l12.6 7.3q-0.7 1.2-1.3 2.4z"/><path class="d" d="m80 213.5l-12.6-7.3q0.7-1.2 1.4-2.3l12.6 7.3q-0.7 1.2-1.4 2.3z"/><path class="d" d="m81.4 211.2l-12.6-7.3q0.8-1.2 1.6-2.4l12.6 7.3q-0.8 1.2-1.6 2.4z"/><path class="d" d="m83 208.8l-12.6-7.3q0.9-1.2 1.8-2.5l12.6 7.4q-0.9 1.2-1.8 2.4z"/><path class="d" d="m84.8 206.4l-12.6-7.4q1.1-1.3 2.2-2.7l12.6 7.4q-1.1 1.3-2.2 2.7z"/><path class="d" d="m87 203.7l-12.6-7.4q1.5-1.6 3-3.2l12.6 7.4q-1.5 1.5-3 3.2z"/><path class="d" d="m90 200.5l-12.6-7.4c2.9-2.8 6-5.2 9.2-7.1l12.6 7.3c-3.2 1.9-6.3 4.3-9.2 7.2z"/><path class="b" d="m38.6 276.4l-12.7-7.3 2-1.1 12.6 7.3z"/><path class="b" d="m28.6 309.7l-12.6-7.3c-2.5-1.5-4.1-4.6-4.1-9q0-1.4 0.2-2.8l12.6 7.3q-0.2 1.4-0.2 2.8c0.1 4.4 1.6 7.6 4.1 9z"/><path class="b" d="m24.7 297.9l-12.6-7.3q0.1-0.9 0.3-1.9l12.7 7.3q-0.3 1-0.4 1.9z"/><path class="b" d="m25.1 296l-12.7-7.3q0.2-0.8 0.4-1.6l12.6 7.3q-0.2 0.8-0.3 1.6z"/><path class="b" d="m25.4 294.4l-12.6-7.3q0.2-0.8 0.5-1.5l12.6 7.4q-0.3 0.7-0.5 1.4z"/><path class="b" d="m25.9 293l-12.6-7.4q0.2-0.6 0.5-1.3l12.6 7.3q-0.3 0.7-0.5 1.4z"/><path class="b" d="m26.4 291.6l-12.6-7.3q0.2-0.6 0.5-1.3l12.6 7.4q-0.3 0.6-0.5 1.2z"/><path class="b" d="m26.9 290.4l-12.6-7.4q0.2-0.6 0.5-1.2l12.6 7.3q-0.3 0.6-0.5 1.3z"/><path class="b" d="m27.4 289.1l-12.6-7.3q0.3-0.6 0.6-1.2l12.6 7.3q-0.3 0.6-0.6 1.2z"/><path class="b" d="m28 287.9l-12.6-7.3q0.4-0.6 0.7-1.2l12.6 7.4q-0.3 0.5-0.7 1.1z"/><path class="b" d="m28.7 286.8l-12.6-7.4q0.3-0.6 0.7-1.2l12.6 7.4q-0.3 0.6-0.7 1.2z"/><path class="b" d="m29.4 285.6l-12.6-7.4q0.4-0.6 0.8-1.2l12.6 7.4q-0.4 0.6-0.8 1.2z"/><path class="b" d="m30.2 284.4l-12.6-7.4q0.5-0.6 1-1.2l12.6 7.3q-0.5 0.6-1 1.3z"/><path class="b" d="m31.2 283.1l-12.6-7.3q0.5-0.7 1.1-1.4l12.6 7.3q-0.6 0.7-1.1 1.4z"/><path class="b" d="m32.3 281.7l-12.6-7.3q0.8-0.9 1.6-1.7l12.6 7.4q-0.8 0.7-1.6 1.6z"/><path class="b" d="m33.9 280.1l-12.6-7.4c1.4-1.4 3-2.6 4.6-3.6l12.7 7.3c-1.7 1-3.3 2.2-4.7 3.7z"/><path class="b" d="m40.5 275.3l-12.6-7.3q-0.2-1.3-0.2-2.7 0-2.2 0.3-4.5l12.6 7.4q-0.3 2.3-0.2 4.5 0 1.4 0.1 2.6z"/><path class="b" d="m40.6 268.2l-12.6-7.4q0.2-1.5 0.6-3.2l12.6 7.4q-0.3 1.6-0.6 3.2z"/><path class="b" d="m41.2 265l-12.6-7.4q0.3-1.3 0.6-2.6l12.6 7.3q-0.3 1.4-0.6 2.7z"/><path class="b" d="m41.8 262.3l-12.6-7.3q0.4-1.2 0.8-2.3l12.6 7.3q-0.4 1.2-0.8 2.3z"/><path class="b" d="m42.6 260l-12.6-7.3q0.3-1.1 0.7-2.2l12.6 7.3q-0.4 1.1-0.7 2.2z"/><path class="b" d="m43.3 257.8l-12.6-7.3q0.4-1.1 0.9-2.1l12.6 7.3q-0.5 1.1-0.9 2.1z"/><path class="b" d="m44.2 255.7l-12.6-7.3q0.4-1 0.9-2l12.6 7.3q-0.5 1-0.9 2z"/><path class="b" d="m45.1 253.7l-12.6-7.3q0.5-1 1-1.9l12.6 7.3q-0.5 1-1 1.9z"/><path class="b" d="m46.1 251.8l-12.6-7.3q0.5-1 1.1-2l12.6 7.3q-0.6 1-1.1 2z"/><path class="b" d="m47.2 249.8l-12.6-7.3q0.5-1 1.2-1.9l12.6 7.3q-0.7 1-1.2 1.9z"/><path class="b" d="m48.4 247.9l-12.6-7.3q0.6-1 1.3-2l12.6 7.3q-0.7 1-1.3 2z"/><path class="b" d="m49.7 245.9l-12.6-7.3q0.7-1.1 1.5-2.1l12.6 7.3q-0.8 1-1.5 2.1z"/><path class="b" d="m51.2 243.8l-12.6-7.3q0.9-1.2 1.9-2.3l12.6 7.3q-1 1.2-1.9 2.3z"/><path class="b" d="m53.1 241.5l-12.6-7.3q1.2-1.4 2.5-2.7l12.6 7.4q-1.3 1.2-2.5 2.6z"/><path class="b" d="m55.6 238.9l-12.6-7.4c2.4-2.3 5-4.4 7.7-5.9q1.7-1 3.3-1.6l12.6 7.3q-1.6 0.6-3.3 1.6c-2.7 1.6-5.3 3.6-7.7 6z"/><path class="b" d="m66.6 231.3l-12.6-7.3q1.3-0.6 2.7-1l12.6 7.4q-1.3 0.3-2.7 0.9z"/><path class="b" d="m69.3 230.4l-12.6-7.4q1-0.2 2-0.4l12.6 7.3q-1 0.2-2 0.5z"/><path class="b" d="m71.3 229.9l-12.6-7.3q0.8-0.1 1.7-0.2l12.6 7.4q-0.9 0-1.7 0.1z"/><path class="b" d="m73 229.8l-12.6-7.4q0.1 0 0.3 0l12.6 7.4q-0.2 0-0.3 0z"/><path class="f" d="m99.2 193.3c13.9-8 25.4-2.8 27.3 11.6 6.6-2.6 12.6-1 15.2 5.2 0.8 1.9 1.2 3.9 1.3 6.2 6.9-2.9 12.2 0.7 12.2 8.9 0.1 9-6.2 19.8-14 24.3l-102.6 59.2c-7.7 4.5-14 0.9-14.1-8 0-8.9 6.3-19.8 14.1-24.3l1.9-1.1q-0.1-1.2-0.1-2.6c-0.1-14.6 10.2-32.4 22.9-39.8 3.6-2 6.9-3.1 10-3.1 3.6-14.6 13.8-29.5 25.9-36.5z"/><path class="e" d="m101.2 214l16.6 16.1c0.3 0.4 0.3 1-0.2 1.3l-7.6 4.4c-0.3 0.1-0.4 0.4-0.4 0.6v22l-18.1 10.4v-21c-0.1-0.6-0.7-1-1.2-0.7l-5.7 3.3c-0.6 0.4-1.4-0.3-1-1l16.4-35.2c0.2-0.5 0.8-0.6 1.2-0.2z"/></svg>